M48
INCH,TZ
T1C0.0118
T2C0.0256
T3C0.0709
%
G90
G05
T1
X46500Y-42700
X48036Y-43300
X48036Y-43625
X48041Y-44441
X48059Y-42523
X48400Y-42900
X48400Y-45100
T2
X54600Y-41600
X54600Y-42100
X54600Y-42600
X54600Y-43100
X54600Y-43600
X54600Y-44100
X54600Y-44600
X54600Y-45100
X54600Y-45600
X54600Y-46100
X55100Y-41600
X55100Y-42100
X55100Y-42600
X55100Y-43100
X55100Y-43600
X55100Y-44100
X55100Y-44600
X55100Y-45100
X55100Y-45600
X55100Y-46100
T3
X40439Y-26116
X40439Y-27770
X40439Y-29423
X40439Y-31077
X40439Y-32730
X40439Y-34384
X40491Y-39936
X40491Y-41589
X40491Y-43243
X40491Y-44896
X40491Y-46550
X40491Y-48204
X42605Y-26116
X42605Y-27770
X42605Y-29423
X42605Y-31077
X42605Y-32730
X42605Y-34384
X42656Y-39936
X42656Y-41589
X42656Y-43243
X42656Y-44896
X42656Y-46550
X42656Y-48204
M30
