%TF.GenerationSoftware,KiCad,Pcbnew,7.0.10*%
%TF.CreationDate,2024-02-20T17:57:48-08:00*%
%TF.ProjectId,HarnessTesterAll,4861726e-6573-4735-9465-73746572416c,rev?*%
%TF.SameCoordinates,Original*%
%TF.FileFunction,Paste,Bot*%
%TF.FilePolarity,Positive*%
%FSLAX46Y46*%
G04 Gerber Fmt 4.6, Leading zero omitted, Abs format (unit mm)*
G04 Created by KiCad (PCBNEW 7.0.10) date 2024-02-20 17:57:48*
%MOMM*%
%LPD*%
G01*
G04 APERTURE LIST*
G04 Aperture macros list*
%AMRoundRect*
0 Rectangle with rounded corners*
0 $1 Rounding radius*
0 $2 $3 $4 $5 $6 $7 $8 $9 X,Y pos of 4 corners*
0 Add a 4 corners polygon primitive as box body*
4,1,4,$2,$3,$4,$5,$6,$7,$8,$9,$2,$3,0*
0 Add four circle primitives for the rounded corners*
1,1,$1+$1,$2,$3*
1,1,$1+$1,$4,$5*
1,1,$1+$1,$6,$7*
1,1,$1+$1,$8,$9*
0 Add four rect primitives between the rounded corners*
20,1,$1+$1,$2,$3,$4,$5,0*
20,1,$1+$1,$4,$5,$6,$7,0*
20,1,$1+$1,$6,$7,$8,$9,0*
20,1,$1+$1,$8,$9,$2,$3,0*%
G04 Aperture macros list end*
%ADD10RoundRect,0.200000X-0.200000X-0.275000X0.200000X-0.275000X0.200000X0.275000X-0.200000X0.275000X0*%
%ADD11RoundRect,0.200000X0.200000X0.275000X-0.200000X0.275000X-0.200000X-0.275000X0.200000X-0.275000X0*%
G04 APERTURE END LIST*
D10*
%TO.C,R13*%
X98489000Y-87376000D03*
X100139000Y-87376000D03*
%TD*%
%TO.C,R14*%
X98489000Y-83058000D03*
X100139000Y-83058000D03*
%TD*%
D11*
%TO.C,R20*%
X112394000Y-83058000D03*
X110744000Y-83058000D03*
%TD*%
%TO.C,R27*%
X119697000Y-115062000D03*
X118047000Y-115062000D03*
%TD*%
%TO.C,R23*%
X112839000Y-70612000D03*
X111189000Y-70612000D03*
%TD*%
%TO.C,R7*%
X112394000Y-122428000D03*
X110744000Y-122428000D03*
%TD*%
D10*
%TO.C,R1*%
X97473000Y-122428000D03*
X99123000Y-122428000D03*
%TD*%
%TO.C,R5*%
X97473000Y-104775000D03*
X99123000Y-104775000D03*
%TD*%
D11*
%TO.C,R24*%
X112839000Y-66548000D03*
X111189000Y-66548000D03*
%TD*%
D10*
%TO.C,R17*%
X98552000Y-70358000D03*
X100202000Y-70358000D03*
%TD*%
%TO.C,R15*%
X98426000Y-79502000D03*
X100076000Y-79502000D03*
%TD*%
D11*
%TO.C,R12*%
X112648000Y-101600000D03*
X110998000Y-101600000D03*
%TD*%
%TO.C,R11*%
X112585000Y-105664000D03*
X110935000Y-105664000D03*
%TD*%
%TO.C,R21*%
X112585000Y-78994000D03*
X110935000Y-78994000D03*
%TD*%
D10*
%TO.C,R3*%
X97473000Y-114300000D03*
X99123000Y-114300000D03*
%TD*%
%TO.C,R4*%
X97473000Y-110363000D03*
X99123000Y-110363000D03*
%TD*%
D11*
%TO.C,R22*%
X112648000Y-74676000D03*
X110998000Y-74676000D03*
%TD*%
D10*
%TO.C,R6*%
X97473000Y-101600000D03*
X99123000Y-101600000D03*
%TD*%
%TO.C,R18*%
X98489000Y-66040000D03*
X100139000Y-66040000D03*
%TD*%
D11*
%TO.C,R19*%
X112585000Y-87376000D03*
X110935000Y-87376000D03*
%TD*%
%TO.C,R10*%
X112585000Y-109982000D03*
X110935000Y-109982000D03*
%TD*%
%TO.C,R9*%
X112331000Y-114046000D03*
X110681000Y-114046000D03*
%TD*%
%TO.C,R8*%
X112331000Y-118364000D03*
X110681000Y-118364000D03*
%TD*%
D10*
%TO.C,R2*%
X97473000Y-118110000D03*
X99123000Y-118110000D03*
%TD*%
%TO.C,R16*%
X98489000Y-74676000D03*
X100139000Y-74676000D03*
%TD*%
M02*
