%TF.GenerationSoftware,KiCad,Pcbnew,7.0.10*%
%TF.CreationDate,2024-02-20T17:57:48-08:00*%
%TF.ProjectId,HarnessTesterAll,4861726e-6573-4735-9465-73746572416c,rev?*%
%TF.SameCoordinates,Original*%
%TF.FileFunction,Legend,Top*%
%TF.FilePolarity,Positive*%
%FSLAX46Y46*%
G04 Gerber Fmt 4.6, Leading zero omitted, Abs format (unit mm)*
G04 Created by KiCad (PCBNEW 7.0.10) date 2024-02-20 17:57:48*
%MOMM*%
%LPD*%
G01*
G04 APERTURE LIST*
%ADD10C,0.150000*%
%ADD11C,0.120000*%
%ADD12C,0.127000*%
G04 APERTURE END LIST*
D10*
X91736982Y-92022546D02*
X91403649Y-91546355D01*
X91165554Y-92022546D02*
X91165554Y-91022546D01*
X91165554Y-91022546D02*
X91546506Y-91022546D01*
X91546506Y-91022546D02*
X91641744Y-91070165D01*
X91641744Y-91070165D02*
X91689363Y-91117784D01*
X91689363Y-91117784D02*
X91736982Y-91213022D01*
X91736982Y-91213022D02*
X91736982Y-91355879D01*
X91736982Y-91355879D02*
X91689363Y-91451117D01*
X91689363Y-91451117D02*
X91641744Y-91498736D01*
X91641744Y-91498736D02*
X91546506Y-91546355D01*
X91546506Y-91546355D02*
X91165554Y-91546355D01*
X92117935Y-91117784D02*
X92165554Y-91070165D01*
X92165554Y-91070165D02*
X92260792Y-91022546D01*
X92260792Y-91022546D02*
X92498887Y-91022546D01*
X92498887Y-91022546D02*
X92594125Y-91070165D01*
X92594125Y-91070165D02*
X92641744Y-91117784D01*
X92641744Y-91117784D02*
X92689363Y-91213022D01*
X92689363Y-91213022D02*
X92689363Y-91308260D01*
X92689363Y-91308260D02*
X92641744Y-91451117D01*
X92641744Y-91451117D02*
X92070316Y-92022546D01*
X92070316Y-92022546D02*
X92689363Y-92022546D01*
X93546506Y-91022546D02*
X93356030Y-91022546D01*
X93356030Y-91022546D02*
X93260792Y-91070165D01*
X93260792Y-91070165D02*
X93213173Y-91117784D01*
X93213173Y-91117784D02*
X93117935Y-91260641D01*
X93117935Y-91260641D02*
X93070316Y-91451117D01*
X93070316Y-91451117D02*
X93070316Y-91832069D01*
X93070316Y-91832069D02*
X93117935Y-91927307D01*
X93117935Y-91927307D02*
X93165554Y-91974927D01*
X93165554Y-91974927D02*
X93260792Y-92022546D01*
X93260792Y-92022546D02*
X93451268Y-92022546D01*
X93451268Y-92022546D02*
X93546506Y-91974927D01*
X93546506Y-91974927D02*
X93594125Y-91927307D01*
X93594125Y-91927307D02*
X93641744Y-91832069D01*
X93641744Y-91832069D02*
X93641744Y-91593974D01*
X93641744Y-91593974D02*
X93594125Y-91498736D01*
X93594125Y-91498736D02*
X93546506Y-91451117D01*
X93546506Y-91451117D02*
X93451268Y-91403498D01*
X93451268Y-91403498D02*
X93260792Y-91403498D01*
X93260792Y-91403498D02*
X93165554Y-91451117D01*
X93165554Y-91451117D02*
X93117935Y-91498736D01*
X93117935Y-91498736D02*
X93070316Y-91593974D01*
X138985666Y-103423819D02*
X138985666Y-104138104D01*
X138985666Y-104138104D02*
X138938047Y-104280961D01*
X138938047Y-104280961D02*
X138842809Y-104376200D01*
X138842809Y-104376200D02*
X138699952Y-104423819D01*
X138699952Y-104423819D02*
X138604714Y-104423819D01*
X139366619Y-103423819D02*
X139985666Y-103423819D01*
X139985666Y-103423819D02*
X139652333Y-103804771D01*
X139652333Y-103804771D02*
X139795190Y-103804771D01*
X139795190Y-103804771D02*
X139890428Y-103852390D01*
X139890428Y-103852390D02*
X139938047Y-103900009D01*
X139938047Y-103900009D02*
X139985666Y-103995247D01*
X139985666Y-103995247D02*
X139985666Y-104233342D01*
X139985666Y-104233342D02*
X139938047Y-104328580D01*
X139938047Y-104328580D02*
X139890428Y-104376200D01*
X139890428Y-104376200D02*
X139795190Y-104423819D01*
X139795190Y-104423819D02*
X139509476Y-104423819D01*
X139509476Y-104423819D02*
X139414238Y-104376200D01*
X139414238Y-104376200D02*
X139366619Y-104328580D01*
X118451333Y-103483580D02*
X118403714Y-103531200D01*
X118403714Y-103531200D02*
X118260857Y-103578819D01*
X118260857Y-103578819D02*
X118165619Y-103578819D01*
X118165619Y-103578819D02*
X118022762Y-103531200D01*
X118022762Y-103531200D02*
X117927524Y-103435961D01*
X117927524Y-103435961D02*
X117879905Y-103340723D01*
X117879905Y-103340723D02*
X117832286Y-103150247D01*
X117832286Y-103150247D02*
X117832286Y-103007390D01*
X117832286Y-103007390D02*
X117879905Y-102816914D01*
X117879905Y-102816914D02*
X117927524Y-102721676D01*
X117927524Y-102721676D02*
X118022762Y-102626438D01*
X118022762Y-102626438D02*
X118165619Y-102578819D01*
X118165619Y-102578819D02*
X118260857Y-102578819D01*
X118260857Y-102578819D02*
X118403714Y-102626438D01*
X118403714Y-102626438D02*
X118451333Y-102674057D01*
X119308476Y-102912152D02*
X119308476Y-103578819D01*
X119070381Y-102531200D02*
X118832286Y-103245485D01*
X118832286Y-103245485D02*
X119451333Y-103245485D01*
X112373580Y-112942666D02*
X112421200Y-112990285D01*
X112421200Y-112990285D02*
X112468819Y-113133142D01*
X112468819Y-113133142D02*
X112468819Y-113228380D01*
X112468819Y-113228380D02*
X112421200Y-113371237D01*
X112421200Y-113371237D02*
X112325961Y-113466475D01*
X112325961Y-113466475D02*
X112230723Y-113514094D01*
X112230723Y-113514094D02*
X112040247Y-113561713D01*
X112040247Y-113561713D02*
X111897390Y-113561713D01*
X111897390Y-113561713D02*
X111706914Y-113514094D01*
X111706914Y-113514094D02*
X111611676Y-113466475D01*
X111611676Y-113466475D02*
X111516438Y-113371237D01*
X111516438Y-113371237D02*
X111468819Y-113228380D01*
X111468819Y-113228380D02*
X111468819Y-113133142D01*
X111468819Y-113133142D02*
X111516438Y-112990285D01*
X111516438Y-112990285D02*
X111564057Y-112942666D01*
X112468819Y-111990285D02*
X112468819Y-112561713D01*
X112468819Y-112275999D02*
X111468819Y-112275999D01*
X111468819Y-112275999D02*
X111611676Y-112371237D01*
X111611676Y-112371237D02*
X111706914Y-112466475D01*
X111706914Y-112466475D02*
X111754533Y-112561713D01*
X88621904Y-97155819D02*
X88621904Y-96155819D01*
X88621904Y-96155819D02*
X88859999Y-96155819D01*
X88859999Y-96155819D02*
X89002856Y-96203438D01*
X89002856Y-96203438D02*
X89098094Y-96298676D01*
X89098094Y-96298676D02*
X89145713Y-96393914D01*
X89145713Y-96393914D02*
X89193332Y-96584390D01*
X89193332Y-96584390D02*
X89193332Y-96727247D01*
X89193332Y-96727247D02*
X89145713Y-96917723D01*
X89145713Y-96917723D02*
X89098094Y-97012961D01*
X89098094Y-97012961D02*
X89002856Y-97108200D01*
X89002856Y-97108200D02*
X88859999Y-97155819D01*
X88859999Y-97155819D02*
X88621904Y-97155819D01*
X89574285Y-96251057D02*
X89621904Y-96203438D01*
X89621904Y-96203438D02*
X89717142Y-96155819D01*
X89717142Y-96155819D02*
X89955237Y-96155819D01*
X89955237Y-96155819D02*
X90050475Y-96203438D01*
X90050475Y-96203438D02*
X90098094Y-96251057D01*
X90098094Y-96251057D02*
X90145713Y-96346295D01*
X90145713Y-96346295D02*
X90145713Y-96441533D01*
X90145713Y-96441533D02*
X90098094Y-96584390D01*
X90098094Y-96584390D02*
X89526666Y-97155819D01*
X89526666Y-97155819D02*
X90145713Y-97155819D01*
X128375580Y-111659666D02*
X128423200Y-111707285D01*
X128423200Y-111707285D02*
X128470819Y-111850142D01*
X128470819Y-111850142D02*
X128470819Y-111945380D01*
X128470819Y-111945380D02*
X128423200Y-112088237D01*
X128423200Y-112088237D02*
X128327961Y-112183475D01*
X128327961Y-112183475D02*
X128232723Y-112231094D01*
X128232723Y-112231094D02*
X128042247Y-112278713D01*
X128042247Y-112278713D02*
X127899390Y-112278713D01*
X127899390Y-112278713D02*
X127708914Y-112231094D01*
X127708914Y-112231094D02*
X127613676Y-112183475D01*
X127613676Y-112183475D02*
X127518438Y-112088237D01*
X127518438Y-112088237D02*
X127470819Y-111945380D01*
X127470819Y-111945380D02*
X127470819Y-111850142D01*
X127470819Y-111850142D02*
X127518438Y-111707285D01*
X127518438Y-111707285D02*
X127566057Y-111659666D01*
X127566057Y-111278713D02*
X127518438Y-111231094D01*
X127518438Y-111231094D02*
X127470819Y-111135856D01*
X127470819Y-111135856D02*
X127470819Y-110897761D01*
X127470819Y-110897761D02*
X127518438Y-110802523D01*
X127518438Y-110802523D02*
X127566057Y-110754904D01*
X127566057Y-110754904D02*
X127661295Y-110707285D01*
X127661295Y-110707285D02*
X127756533Y-110707285D01*
X127756533Y-110707285D02*
X127899390Y-110754904D01*
X127899390Y-110754904D02*
X128470819Y-111326332D01*
X128470819Y-111326332D02*
X128470819Y-110707285D01*
X88479745Y-92116546D02*
X88479745Y-91116546D01*
X88479745Y-91116546D02*
X88717840Y-91116546D01*
X88717840Y-91116546D02*
X88860697Y-91164165D01*
X88860697Y-91164165D02*
X88955935Y-91259403D01*
X88955935Y-91259403D02*
X89003554Y-91354641D01*
X89003554Y-91354641D02*
X89051173Y-91545117D01*
X89051173Y-91545117D02*
X89051173Y-91687974D01*
X89051173Y-91687974D02*
X89003554Y-91878450D01*
X89003554Y-91878450D02*
X88955935Y-91973688D01*
X88955935Y-91973688D02*
X88860697Y-92068927D01*
X88860697Y-92068927D02*
X88717840Y-92116546D01*
X88717840Y-92116546D02*
X88479745Y-92116546D01*
X90003554Y-92116546D02*
X89432126Y-92116546D01*
X89717840Y-92116546D02*
X89717840Y-91116546D01*
X89717840Y-91116546D02*
X89622602Y-91259403D01*
X89622602Y-91259403D02*
X89527364Y-91354641D01*
X89527364Y-91354641D02*
X89432126Y-91402260D01*
X118451333Y-121677580D02*
X118403714Y-121725200D01*
X118403714Y-121725200D02*
X118260857Y-121772819D01*
X118260857Y-121772819D02*
X118165619Y-121772819D01*
X118165619Y-121772819D02*
X118022762Y-121725200D01*
X118022762Y-121725200D02*
X117927524Y-121629961D01*
X117927524Y-121629961D02*
X117879905Y-121534723D01*
X117879905Y-121534723D02*
X117832286Y-121344247D01*
X117832286Y-121344247D02*
X117832286Y-121201390D01*
X117832286Y-121201390D02*
X117879905Y-121010914D01*
X117879905Y-121010914D02*
X117927524Y-120915676D01*
X117927524Y-120915676D02*
X118022762Y-120820438D01*
X118022762Y-120820438D02*
X118165619Y-120772819D01*
X118165619Y-120772819D02*
X118260857Y-120772819D01*
X118260857Y-120772819D02*
X118403714Y-120820438D01*
X118403714Y-120820438D02*
X118451333Y-120868057D01*
X118784667Y-120772819D02*
X119403714Y-120772819D01*
X119403714Y-120772819D02*
X119070381Y-121153771D01*
X119070381Y-121153771D02*
X119213238Y-121153771D01*
X119213238Y-121153771D02*
X119308476Y-121201390D01*
X119308476Y-121201390D02*
X119356095Y-121249009D01*
X119356095Y-121249009D02*
X119403714Y-121344247D01*
X119403714Y-121344247D02*
X119403714Y-121582342D01*
X119403714Y-121582342D02*
X119356095Y-121677580D01*
X119356095Y-121677580D02*
X119308476Y-121725200D01*
X119308476Y-121725200D02*
X119213238Y-121772819D01*
X119213238Y-121772819D02*
X118927524Y-121772819D01*
X118927524Y-121772819D02*
X118832286Y-121725200D01*
X118832286Y-121725200D02*
X118784667Y-121677580D01*
X91790641Y-97007819D02*
X91457308Y-96531628D01*
X91219213Y-97007819D02*
X91219213Y-96007819D01*
X91219213Y-96007819D02*
X91600165Y-96007819D01*
X91600165Y-96007819D02*
X91695403Y-96055438D01*
X91695403Y-96055438D02*
X91743022Y-96103057D01*
X91743022Y-96103057D02*
X91790641Y-96198295D01*
X91790641Y-96198295D02*
X91790641Y-96341152D01*
X91790641Y-96341152D02*
X91743022Y-96436390D01*
X91743022Y-96436390D02*
X91695403Y-96484009D01*
X91695403Y-96484009D02*
X91600165Y-96531628D01*
X91600165Y-96531628D02*
X91219213Y-96531628D01*
X92171594Y-96103057D02*
X92219213Y-96055438D01*
X92219213Y-96055438D02*
X92314451Y-96007819D01*
X92314451Y-96007819D02*
X92552546Y-96007819D01*
X92552546Y-96007819D02*
X92647784Y-96055438D01*
X92647784Y-96055438D02*
X92695403Y-96103057D01*
X92695403Y-96103057D02*
X92743022Y-96198295D01*
X92743022Y-96198295D02*
X92743022Y-96293533D01*
X92743022Y-96293533D02*
X92695403Y-96436390D01*
X92695403Y-96436390D02*
X92123975Y-97007819D01*
X92123975Y-97007819D02*
X92743022Y-97007819D01*
X93647784Y-96007819D02*
X93171594Y-96007819D01*
X93171594Y-96007819D02*
X93123975Y-96484009D01*
X93123975Y-96484009D02*
X93171594Y-96436390D01*
X93171594Y-96436390D02*
X93266832Y-96388771D01*
X93266832Y-96388771D02*
X93504927Y-96388771D01*
X93504927Y-96388771D02*
X93600165Y-96436390D01*
X93600165Y-96436390D02*
X93647784Y-96484009D01*
X93647784Y-96484009D02*
X93695403Y-96579247D01*
X93695403Y-96579247D02*
X93695403Y-96817342D01*
X93695403Y-96817342D02*
X93647784Y-96912580D01*
X93647784Y-96912580D02*
X93600165Y-96960200D01*
X93600165Y-96960200D02*
X93504927Y-97007819D01*
X93504927Y-97007819D02*
X93266832Y-97007819D01*
X93266832Y-97007819D02*
X93171594Y-96960200D01*
X93171594Y-96960200D02*
X93123975Y-96912580D01*
X112268095Y-118072819D02*
X112268095Y-118882342D01*
X112268095Y-118882342D02*
X112315714Y-118977580D01*
X112315714Y-118977580D02*
X112363333Y-119025200D01*
X112363333Y-119025200D02*
X112458571Y-119072819D01*
X112458571Y-119072819D02*
X112649047Y-119072819D01*
X112649047Y-119072819D02*
X112744285Y-119025200D01*
X112744285Y-119025200D02*
X112791904Y-118977580D01*
X112791904Y-118977580D02*
X112839523Y-118882342D01*
X112839523Y-118882342D02*
X112839523Y-118072819D01*
X113839523Y-119072819D02*
X113268095Y-119072819D01*
X113553809Y-119072819D02*
X113553809Y-118072819D01*
X113553809Y-118072819D02*
X113458571Y-118215676D01*
X113458571Y-118215676D02*
X113363333Y-118310914D01*
X113363333Y-118310914D02*
X113268095Y-118358533D01*
D11*
%TO.C,R26*%
X92617098Y-93868227D02*
X92142582Y-93868227D01*
X92617098Y-92823227D02*
X92142582Y-92823227D01*
D12*
%TO.C,J2*%
X108882498Y-98137030D02*
X88947499Y-98137030D01*
X88947499Y-98137030D02*
X88947499Y-125736975D01*
X108882498Y-100070500D02*
X108882498Y-98137030D01*
X108882498Y-104270499D02*
X108882498Y-102803506D01*
X108882498Y-108470498D02*
X108882498Y-107003505D01*
X108882498Y-112670497D02*
X108882498Y-111203504D01*
X108882498Y-116870497D02*
X108882498Y-115403504D01*
X108882498Y-121070496D02*
X108882498Y-119603503D01*
X108882498Y-125736975D02*
X108882498Y-123803502D01*
X88947499Y-125736975D02*
X108882498Y-125736975D01*
X102847499Y-125990975D02*
X103482499Y-127514975D01*
X103482499Y-127514975D02*
X102212499Y-127514975D01*
X102212499Y-127514975D02*
X102847499Y-125990975D01*
D11*
%TO.C,SW1*%
X126830000Y-74846000D02*
X132080000Y-74846000D01*
X137330000Y-74846000D02*
X136080000Y-74846000D01*
X126830000Y-74296000D02*
X126830000Y-74846000D01*
X137330000Y-74296000D02*
X137330000Y-74846000D01*
X126830000Y-64896000D02*
X126830000Y-64346000D01*
X137330000Y-64896000D02*
X137330000Y-64346000D01*
X126830000Y-64346000D02*
X128080000Y-64346000D01*
X137330000Y-64346000D02*
X136080000Y-64346000D01*
%TO.C,J3*%
X137554000Y-104904000D02*
X138684000Y-104904000D01*
X137554000Y-105664000D02*
X137554000Y-104904000D01*
X137554000Y-106424000D02*
X137554000Y-117789000D01*
X137554000Y-106424000D02*
X138120529Y-106424000D01*
X137554000Y-117789000D02*
X138376470Y-117789000D01*
X138991530Y-117789000D02*
X139646470Y-117789000D01*
X139247471Y-106424000D02*
X139390529Y-106424000D01*
X139444000Y-104969000D02*
X139646470Y-104969000D01*
X139444000Y-105100529D02*
X139444000Y-104969000D01*
X139444000Y-106370529D02*
X139444000Y-106227471D01*
X140261530Y-104969000D02*
X141084000Y-104969000D01*
X140261530Y-117789000D02*
X141084000Y-117789000D01*
X141084000Y-104969000D02*
X141084000Y-117789000D01*
%TO.C,C4*%
X118477420Y-103884000D02*
X118758580Y-103884000D01*
X118477420Y-104904000D02*
X118758580Y-104904000D01*
%TO.C,C1*%
X111508000Y-112889420D02*
X111508000Y-113170580D01*
X110488000Y-112889420D02*
X110488000Y-113170580D01*
%TO.C,D2*%
X87735999Y-94388000D02*
X87735999Y-95858000D01*
X87735999Y-95858000D02*
X90020999Y-95858000D01*
X90020999Y-94388000D02*
X87735999Y-94388000D01*
%TO.C,C2*%
X125982000Y-111633580D02*
X125982000Y-111352420D01*
X127002000Y-111633580D02*
X127002000Y-111352420D01*
%TO.C,D1*%
X87758340Y-92610727D02*
X87758340Y-94080727D01*
X87758340Y-94080727D02*
X90043340Y-94080727D01*
X90043340Y-92610727D02*
X87758340Y-92610727D01*
%TO.C,C3*%
X118758580Y-120398000D02*
X118477420Y-120398000D01*
X118758580Y-119378000D02*
X118477420Y-119378000D01*
%TO.C,R25*%
X92670757Y-95645500D02*
X92196241Y-95645500D01*
X92670757Y-94600500D02*
X92196241Y-94600500D01*
D12*
%TO.C,J1*%
X108750998Y-63035028D02*
X88815999Y-63035028D01*
X88815999Y-63035028D02*
X88815999Y-90634973D01*
X108750998Y-64968498D02*
X108750998Y-63035028D01*
X108750998Y-69168497D02*
X108750998Y-67701504D01*
X108750998Y-73368496D02*
X108750998Y-71901503D01*
X108750998Y-77568495D02*
X108750998Y-76101502D01*
X108750998Y-81768495D02*
X108750998Y-80301502D01*
X108750998Y-85968494D02*
X108750998Y-84501501D01*
X108750998Y-90634973D02*
X108750998Y-88701500D01*
X88815999Y-90634973D02*
X108750998Y-90634973D01*
X102715999Y-90888973D02*
X103350999Y-92412973D01*
X103350999Y-92412973D02*
X102080999Y-92412973D01*
X102080999Y-92412973D02*
X102715999Y-90888973D01*
D10*
%TO.C,U1*%
X113697000Y-106981000D02*
X113697000Y-107556000D01*
X113697000Y-106981000D02*
X114372000Y-106981000D01*
X113697000Y-107556000D02*
X112422000Y-107556000D01*
X113697000Y-117331000D02*
X113697000Y-116656000D01*
X113697000Y-117331000D02*
X114372000Y-117331000D01*
X124047000Y-106981000D02*
X123372000Y-106981000D01*
X124047000Y-106981000D02*
X124047000Y-107656000D01*
X124047000Y-117331000D02*
X123372000Y-117331000D01*
X124047000Y-117331000D02*
X124047000Y-116656000D01*
%TD*%
M02*
