%TF.GenerationSoftware,KiCad,Pcbnew,7.0.10*%
%TF.CreationDate,2024-02-20T17:57:48-08:00*%
%TF.ProjectId,HarnessTesterAll,4861726e-6573-4735-9465-73746572416c,rev?*%
%TF.SameCoordinates,Original*%
%TF.FileFunction,Soldermask,Top*%
%TF.FilePolarity,Negative*%
%FSLAX46Y46*%
G04 Gerber Fmt 4.6, Leading zero omitted, Abs format (unit mm)*
G04 Created by KiCad (PCBNEW 7.0.10) date 2024-02-20 17:57:48*
%MOMM*%
%LPD*%
G01*
G04 APERTURE LIST*
G04 Aperture macros list*
%AMRoundRect*
0 Rectangle with rounded corners*
0 $1 Rounding radius*
0 $2 $3 $4 $5 $6 $7 $8 $9 X,Y pos of 4 corners*
0 Add a 4 corners polygon primitive as box body*
4,1,4,$2,$3,$4,$5,$6,$7,$8,$9,$2,$3,0*
0 Add four circle primitives for the rounded corners*
1,1,$1+$1,$2,$3*
1,1,$1+$1,$4,$5*
1,1,$1+$1,$6,$7*
1,1,$1+$1,$8,$9*
0 Add four rect primitives between the rounded corners*
20,1,$1+$1,$2,$3,$4,$5,0*
20,1,$1+$1,$4,$5,$6,$7,0*
20,1,$1+$1,$6,$7,$8,$9,0*
20,1,$1+$1,$8,$9,$2,$3,0*%
G04 Aperture macros list end*
%ADD10RoundRect,0.200000X0.200000X0.275000X-0.200000X0.275000X-0.200000X-0.275000X0.200000X-0.275000X0*%
%ADD11R,2.300000X2.300000*%
%ADD12C,2.300000*%
%ADD13R,2.500000X1.200000*%
%ADD14R,1.000000X1.000000*%
%ADD15O,1.000000X1.000000*%
%ADD16RoundRect,0.225000X-0.225000X-0.250000X0.225000X-0.250000X0.225000X0.250000X-0.225000X0.250000X0*%
%ADD17RoundRect,0.225000X-0.250000X0.225000X-0.250000X-0.225000X0.250000X-0.225000X0.250000X0.225000X0*%
%ADD18RoundRect,0.218750X-0.218750X-0.256250X0.218750X-0.256250X0.218750X0.256250X-0.218750X0.256250X0*%
%ADD19RoundRect,0.225000X0.250000X-0.225000X0.250000X0.225000X-0.250000X0.225000X-0.250000X-0.225000X0*%
%ADD20RoundRect,0.225000X0.225000X0.250000X-0.225000X0.250000X-0.225000X-0.250000X0.225000X-0.250000X0*%
%ADD21R,1.500000X0.550000*%
%ADD22R,0.550000X1.500000*%
G04 APERTURE END LIST*
D10*
%TO.C,R26*%
X93204840Y-93345727D03*
X91554840Y-93345727D03*
%TD*%
D11*
%TO.C,J2*%
X102847499Y-122436999D03*
D12*
X102847499Y-118237000D03*
X102847499Y-114037001D03*
X102847499Y-109837001D03*
X102847499Y-105637002D03*
X102847499Y-101437003D03*
X108347498Y-122436999D03*
X108347498Y-118237000D03*
X108347498Y-114037001D03*
X108347498Y-109837001D03*
X108347498Y-105637002D03*
X108347498Y-101437003D03*
%TD*%
D13*
%TO.C,SW1*%
X125830000Y-73406000D03*
X138330000Y-73406000D03*
X125830000Y-65786000D03*
X138330000Y-65786000D03*
%TD*%
D14*
%TO.C,J3*%
X138684000Y-105664000D03*
D15*
X139954000Y-105664000D03*
X138684000Y-106934000D03*
X139954000Y-106934000D03*
X138684000Y-108204000D03*
X139954000Y-108204000D03*
X138684000Y-109474000D03*
X139954000Y-109474000D03*
X138684000Y-110744000D03*
X139954000Y-110744000D03*
X138684000Y-112014000D03*
X139954000Y-112014000D03*
X138684000Y-113284000D03*
X139954000Y-113284000D03*
X138684000Y-114554000D03*
X139954000Y-114554000D03*
X138684000Y-115824000D03*
X139954000Y-115824000D03*
X138684000Y-117094000D03*
X139954000Y-117094000D03*
%TD*%
D16*
%TO.C,C4*%
X117843000Y-104394000D03*
X119393000Y-104394000D03*
%TD*%
D17*
%TO.C,C1*%
X110998000Y-112255000D03*
X110998000Y-113805000D03*
%TD*%
D18*
%TO.C,D2*%
X88433499Y-95123000D03*
X90008499Y-95123000D03*
%TD*%
D19*
%TO.C,C2*%
X126492000Y-112268000D03*
X126492000Y-110718000D03*
%TD*%
D18*
%TO.C,D1*%
X88455840Y-93345727D03*
X90030840Y-93345727D03*
%TD*%
D20*
%TO.C,C3*%
X119393000Y-119888000D03*
X117843000Y-119888000D03*
%TD*%
D10*
%TO.C,R25*%
X93258499Y-95123000D03*
X91608499Y-95123000D03*
%TD*%
D11*
%TO.C,J1*%
X102715999Y-87334997D03*
D12*
X102715999Y-83134998D03*
X102715999Y-78934999D03*
X102715999Y-74734999D03*
X102715999Y-70535000D03*
X102715999Y-66335001D03*
X108215998Y-87334997D03*
X108215998Y-83134998D03*
X108215998Y-78934999D03*
X108215998Y-74734999D03*
X108215998Y-70535000D03*
X108215998Y-66335001D03*
%TD*%
D21*
%TO.C,U1*%
X113172000Y-108156000D03*
X113172000Y-108956000D03*
X113172000Y-109756000D03*
X113172000Y-110556000D03*
X113172000Y-111356000D03*
X113172000Y-112156000D03*
X113172000Y-112956000D03*
X113172000Y-113756000D03*
X113172000Y-114556000D03*
X113172000Y-115356000D03*
X113172000Y-116156000D03*
D22*
X114872000Y-117856000D03*
X115672000Y-117856000D03*
X116472000Y-117856000D03*
X117272000Y-117856000D03*
X118072000Y-117856000D03*
X118872000Y-117856000D03*
X119672000Y-117856000D03*
X120472000Y-117856000D03*
X121272000Y-117856000D03*
X122072000Y-117856000D03*
X122872000Y-117856000D03*
D21*
X124572000Y-116156000D03*
X124572000Y-115356000D03*
X124572000Y-114556000D03*
X124572000Y-113756000D03*
X124572000Y-112956000D03*
X124572000Y-112156000D03*
X124572000Y-111356000D03*
X124572000Y-110556000D03*
X124572000Y-109756000D03*
X124572000Y-108956000D03*
X124572000Y-108156000D03*
D22*
X122872000Y-106456000D03*
X122072000Y-106456000D03*
X121272000Y-106456000D03*
X120472000Y-106456000D03*
X119672000Y-106456000D03*
X118872000Y-106456000D03*
X118072000Y-106456000D03*
X117272000Y-106456000D03*
X116472000Y-106456000D03*
X115672000Y-106456000D03*
X114872000Y-106456000D03*
%TD*%
M02*
