M48
; DRILL file {KiCad (7.0.0)} date Fri May  5 13:18:49 2023
; FORMAT={-:-/ absolute / inch / decimal}
; #@! TF.CreationDate,2023-05-05T13:18:49-07:00
; #@! TF.GenerationSoftware,Kicad,Pcbnew,(7.0.0)
; #@! TF.FileFunction,Plated,1,2,PTH
FMAT,2
INCH
; #@! TA.AperFunction,Plated,PTH,ViaDrill
T1C0.0118
; #@! TA.AperFunction,Plated,PTH,ViaDrill
T2C0.0157
; #@! TA.AperFunction,Plated,PTH,ComponentDrill
T3C0.0197
; #@! TA.AperFunction,Plated,PTH,ComponentDrill
T4C0.0315
; #@! TA.AperFunction,Plated,PTH,ComponentDrill
T5C0.0433
; #@! TA.AperFunction,Plated,PTH,ComponentDrill
T6C0.0472
; #@! TA.AperFunction,Plated,PTH,ComponentDrill
T7C0.0709
; #@! TA.AperFunction,Plated,PTH,ComponentDrill
T8C0.0984
; #@! TA.AperFunction,Plated,PTH,ComponentDrill
T9C0.1355
%
G90
G05
T1
X4.5437Y-3.1075
X5.2535Y-3.4457
X5.3561Y-3.4743
X5.389Y-3.3534
X5.5533Y-3.1276
X5.6Y-2.6
X5.6254Y-2.4567
X5.7042Y-3.2
X5.8716Y-3.2567
X7.2979Y-3.9539
T2
X3.6063Y-3.9335
X4.2481Y-3.4361
X4.6987Y-3.1177
X4.7383Y-3.1692
X4.7987Y-3.0727
X5.5987Y-4.3177
X5.6578Y-2.8601
X5.685Y-3.0701
X5.6985Y-3.362
X5.6987Y-3.3177
X5.6987Y-3.4177
X5.7003Y-3.2725
X5.747Y-3.0856
X5.7987Y-4.2177
X5.8002Y-4.1564
X5.8444Y-4.058
X5.8987Y-2.6177
X5.9286Y-3.0611
X5.9529Y-2.5928
X5.9561Y-2.8212
X5.9697Y-3.1217
X5.9987Y-3.9177
X6.0132Y-2.8325
X6.0357Y-2.568
X6.0738Y-3.0148
X6.0753Y-2.564
X6.0766Y-3.3715
X6.0817Y-3.3163
X6.0851Y-2.6528
X6.0906Y-3.0978
X6.0987Y-2.9814
X6.1062Y-2.9039
X6.1277Y-2.6613
X6.1453Y-3.0628
X6.1912Y-3.03
X6.1985Y-2.9337
X6.1987Y-2.8602
X6.2422Y-3.3028
X6.2501Y-3.5691
X6.2561Y-3.3524
X6.273Y-3.1934
X6.3107Y-3.6143
X6.3628Y-3.6161
X6.3901Y-3.8747
X6.4316Y-3.1086
X6.435Y-3.6168
X6.4618Y-3.8657
X6.9987Y-3.8177
X7.0987Y-3.7177
X7.1558Y-3.5
X7.4356Y-2.3835
T3
X5.6987Y-2.7177
X5.7381Y-2.7177
X5.7775Y-2.7177
T4
X6.4Y-2.3016
X6.4Y-2.4984
X6.4Y-2.7147
X6.4787Y-2.7147
X6.5575Y-2.7147
X6.6362Y-2.7147
T5
X7.5003Y-2.8323
X7.5003Y-3.4031
X7.5987Y-3.4031
X7.6971Y-2.8323
X7.6971Y-3.4031
T6
X4.1987Y-3.7177
X4.2987Y-3.7177
X4.3987Y-3.7177
X4.4987Y-3.7177
X4.5987Y-3.7177
X4.6987Y-3.7177
X4.7987Y-3.7177
X4.8987Y-3.7177
X4.9987Y-3.7177
X5.0987Y-3.7177
X5.1987Y-3.7177
X5.2987Y-3.7177
X5.3987Y-3.7177
X5.4987Y-3.7177
X5.5987Y-3.7177
X5.6987Y-3.7177
T7
X4.2853Y-4.6138
X4.2853Y-4.8303
X4.4507Y-4.6138
X4.4507Y-4.8303
X4.516Y-2.5051
X4.516Y-2.7217
X4.616Y-4.6138
X4.616Y-4.8303
X4.6814Y-2.5051
X4.6814Y-2.7217
X4.7814Y-4.6138
X4.7814Y-4.8303
X4.9468Y-4.6138
X4.9468Y-4.8303
X5.1121Y-4.6138
X5.1121Y-4.8303
X5.9853Y-4.6138
X5.9853Y-4.8303
X6.1507Y-4.6138
X6.1507Y-4.8303
X6.316Y-4.6138
X6.316Y-4.8303
X6.4814Y-4.6138
X6.4814Y-4.8303
X6.6468Y-4.6138
X6.6468Y-4.8303
X6.8121Y-4.6138
X6.8121Y-4.8303
T8
X3.9822Y-2.4972
X3.9822Y-3.7177
X6.9349Y-2.4972
X6.9349Y-3.7177
T9
X7.3743Y-3.1079
X7.8231Y-3.1079
T0
M30
