%TF.GenerationSoftware,KiCad,Pcbnew,7.0.10*%
%TF.CreationDate,2024-02-20T17:57:49-08:00*%
%TF.ProjectId,HarnessTesterAll,4861726e-6573-4735-9465-73746572416c,rev?*%
%TF.SameCoordinates,Original*%
%TF.FileFunction,AssemblyDrawing,Top*%
%FSLAX46Y46*%
G04 Gerber Fmt 4.6, Leading zero omitted, Abs format (unit mm)*
G04 Created by KiCad (PCBNEW 7.0.10) date 2024-02-20 17:57:49*
%MOMM*%
%LPD*%
G01*
G04 APERTURE LIST*
%ADD10C,0.060000*%
%ADD11C,0.150000*%
%ADD12C,0.100000*%
%ADD13C,0.127000*%
G04 APERTURE END LIST*
D10*
X92122697Y-93527654D02*
X91989364Y-93337178D01*
X91894126Y-93527654D02*
X91894126Y-93127654D01*
X91894126Y-93127654D02*
X92046507Y-93127654D01*
X92046507Y-93127654D02*
X92084602Y-93146702D01*
X92084602Y-93146702D02*
X92103649Y-93165749D01*
X92103649Y-93165749D02*
X92122697Y-93203845D01*
X92122697Y-93203845D02*
X92122697Y-93260987D01*
X92122697Y-93260987D02*
X92103649Y-93299083D01*
X92103649Y-93299083D02*
X92084602Y-93318130D01*
X92084602Y-93318130D02*
X92046507Y-93337178D01*
X92046507Y-93337178D02*
X91894126Y-93337178D01*
X92275078Y-93165749D02*
X92294126Y-93146702D01*
X92294126Y-93146702D02*
X92332221Y-93127654D01*
X92332221Y-93127654D02*
X92427459Y-93127654D01*
X92427459Y-93127654D02*
X92465554Y-93146702D01*
X92465554Y-93146702D02*
X92484602Y-93165749D01*
X92484602Y-93165749D02*
X92503649Y-93203845D01*
X92503649Y-93203845D02*
X92503649Y-93241940D01*
X92503649Y-93241940D02*
X92484602Y-93299083D01*
X92484602Y-93299083D02*
X92256030Y-93527654D01*
X92256030Y-93527654D02*
X92503649Y-93527654D01*
X92846506Y-93127654D02*
X92770316Y-93127654D01*
X92770316Y-93127654D02*
X92732220Y-93146702D01*
X92732220Y-93146702D02*
X92713173Y-93165749D01*
X92713173Y-93165749D02*
X92675078Y-93222892D01*
X92675078Y-93222892D02*
X92656030Y-93299083D01*
X92656030Y-93299083D02*
X92656030Y-93451464D01*
X92656030Y-93451464D02*
X92675078Y-93489559D01*
X92675078Y-93489559D02*
X92694125Y-93508607D01*
X92694125Y-93508607D02*
X92732220Y-93527654D01*
X92732220Y-93527654D02*
X92808411Y-93527654D01*
X92808411Y-93527654D02*
X92846506Y-93508607D01*
X92846506Y-93508607D02*
X92865554Y-93489559D01*
X92865554Y-93489559D02*
X92884601Y-93451464D01*
X92884601Y-93451464D02*
X92884601Y-93356226D01*
X92884601Y-93356226D02*
X92865554Y-93318130D01*
X92865554Y-93318130D02*
X92846506Y-93299083D01*
X92846506Y-93299083D02*
X92808411Y-93280035D01*
X92808411Y-93280035D02*
X92732220Y-93280035D01*
X92732220Y-93280035D02*
X92694125Y-93299083D01*
X92694125Y-93299083D02*
X92675078Y-93318130D01*
X92675078Y-93318130D02*
X92656030Y-93356226D01*
D11*
X91877141Y-126708819D02*
X92067617Y-126708819D01*
X92067617Y-126708819D02*
X92162855Y-126756438D01*
X92162855Y-126756438D02*
X92258093Y-126851676D01*
X92258093Y-126851676D02*
X92305712Y-127042152D01*
X92305712Y-127042152D02*
X92305712Y-127375485D01*
X92305712Y-127375485D02*
X92258093Y-127565961D01*
X92258093Y-127565961D02*
X92162855Y-127661200D01*
X92162855Y-127661200D02*
X92067617Y-127708819D01*
X92067617Y-127708819D02*
X91877141Y-127708819D01*
X91877141Y-127708819D02*
X91781903Y-127661200D01*
X91781903Y-127661200D02*
X91686665Y-127565961D01*
X91686665Y-127565961D02*
X91639046Y-127375485D01*
X91639046Y-127375485D02*
X91639046Y-127042152D01*
X91639046Y-127042152D02*
X91686665Y-126851676D01*
X91686665Y-126851676D02*
X91781903Y-126756438D01*
X91781903Y-126756438D02*
X91877141Y-126708819D01*
X93162855Y-127042152D02*
X93162855Y-127708819D01*
X92734284Y-127042152D02*
X92734284Y-127565961D01*
X92734284Y-127565961D02*
X92781903Y-127661200D01*
X92781903Y-127661200D02*
X92877141Y-127708819D01*
X92877141Y-127708819D02*
X93019998Y-127708819D01*
X93019998Y-127708819D02*
X93115236Y-127661200D01*
X93115236Y-127661200D02*
X93162855Y-127613580D01*
X93496189Y-127042152D02*
X93877141Y-127042152D01*
X93639046Y-126708819D02*
X93639046Y-127565961D01*
X93639046Y-127565961D02*
X93686665Y-127661200D01*
X93686665Y-127661200D02*
X93781903Y-127708819D01*
X93781903Y-127708819D02*
X93877141Y-127708819D01*
X94210475Y-127042152D02*
X94210475Y-128042152D01*
X94210475Y-127089771D02*
X94305713Y-127042152D01*
X94305713Y-127042152D02*
X94496189Y-127042152D01*
X94496189Y-127042152D02*
X94591427Y-127089771D01*
X94591427Y-127089771D02*
X94639046Y-127137390D01*
X94639046Y-127137390D02*
X94686665Y-127232628D01*
X94686665Y-127232628D02*
X94686665Y-127518342D01*
X94686665Y-127518342D02*
X94639046Y-127613580D01*
X94639046Y-127613580D02*
X94591427Y-127661200D01*
X94591427Y-127661200D02*
X94496189Y-127708819D01*
X94496189Y-127708819D02*
X94305713Y-127708819D01*
X94305713Y-127708819D02*
X94210475Y-127661200D01*
X95543808Y-127042152D02*
X95543808Y-127708819D01*
X95115237Y-127042152D02*
X95115237Y-127565961D01*
X95115237Y-127565961D02*
X95162856Y-127661200D01*
X95162856Y-127661200D02*
X95258094Y-127708819D01*
X95258094Y-127708819D02*
X95400951Y-127708819D01*
X95400951Y-127708819D02*
X95496189Y-127661200D01*
X95496189Y-127661200D02*
X95543808Y-127613580D01*
X95877142Y-127042152D02*
X96258094Y-127042152D01*
X96019999Y-126708819D02*
X96019999Y-127565961D01*
X96019999Y-127565961D02*
X96067618Y-127661200D01*
X96067618Y-127661200D02*
X96162856Y-127708819D01*
X96162856Y-127708819D02*
X96258094Y-127708819D01*
X97210476Y-126708819D02*
X97781904Y-126708819D01*
X97496190Y-127708819D02*
X97496190Y-126708819D01*
X98496190Y-127661200D02*
X98400952Y-127708819D01*
X98400952Y-127708819D02*
X98210476Y-127708819D01*
X98210476Y-127708819D02*
X98115238Y-127661200D01*
X98115238Y-127661200D02*
X98067619Y-127565961D01*
X98067619Y-127565961D02*
X98067619Y-127185009D01*
X98067619Y-127185009D02*
X98115238Y-127089771D01*
X98115238Y-127089771D02*
X98210476Y-127042152D01*
X98210476Y-127042152D02*
X98400952Y-127042152D01*
X98400952Y-127042152D02*
X98496190Y-127089771D01*
X98496190Y-127089771D02*
X98543809Y-127185009D01*
X98543809Y-127185009D02*
X98543809Y-127280247D01*
X98543809Y-127280247D02*
X98067619Y-127375485D01*
X98924762Y-127661200D02*
X99020000Y-127708819D01*
X99020000Y-127708819D02*
X99210476Y-127708819D01*
X99210476Y-127708819D02*
X99305714Y-127661200D01*
X99305714Y-127661200D02*
X99353333Y-127565961D01*
X99353333Y-127565961D02*
X99353333Y-127518342D01*
X99353333Y-127518342D02*
X99305714Y-127423104D01*
X99305714Y-127423104D02*
X99210476Y-127375485D01*
X99210476Y-127375485D02*
X99067619Y-127375485D01*
X99067619Y-127375485D02*
X98972381Y-127327866D01*
X98972381Y-127327866D02*
X98924762Y-127232628D01*
X98924762Y-127232628D02*
X98924762Y-127185009D01*
X98924762Y-127185009D02*
X98972381Y-127089771D01*
X98972381Y-127089771D02*
X99067619Y-127042152D01*
X99067619Y-127042152D02*
X99210476Y-127042152D01*
X99210476Y-127042152D02*
X99305714Y-127089771D01*
X99639048Y-127042152D02*
X100020000Y-127042152D01*
X99781905Y-126708819D02*
X99781905Y-127565961D01*
X99781905Y-127565961D02*
X99829524Y-127661200D01*
X99829524Y-127661200D02*
X99924762Y-127708819D01*
X99924762Y-127708819D02*
X100020000Y-127708819D01*
X100734286Y-127661200D02*
X100639048Y-127708819D01*
X100639048Y-127708819D02*
X100448572Y-127708819D01*
X100448572Y-127708819D02*
X100353334Y-127661200D01*
X100353334Y-127661200D02*
X100305715Y-127565961D01*
X100305715Y-127565961D02*
X100305715Y-127185009D01*
X100305715Y-127185009D02*
X100353334Y-127089771D01*
X100353334Y-127089771D02*
X100448572Y-127042152D01*
X100448572Y-127042152D02*
X100639048Y-127042152D01*
X100639048Y-127042152D02*
X100734286Y-127089771D01*
X100734286Y-127089771D02*
X100781905Y-127185009D01*
X100781905Y-127185009D02*
X100781905Y-127280247D01*
X100781905Y-127280247D02*
X100305715Y-127375485D01*
X101210477Y-127708819D02*
X101210477Y-127042152D01*
X101210477Y-127232628D02*
X101258096Y-127137390D01*
X101258096Y-127137390D02*
X101305715Y-127089771D01*
X101305715Y-127089771D02*
X101400953Y-127042152D01*
X101400953Y-127042152D02*
X101496191Y-127042152D01*
X104568666Y-126708819D02*
X104568666Y-127423104D01*
X104568666Y-127423104D02*
X104521047Y-127565961D01*
X104521047Y-127565961D02*
X104425809Y-127661200D01*
X104425809Y-127661200D02*
X104282952Y-127708819D01*
X104282952Y-127708819D02*
X104187714Y-127708819D01*
X104997238Y-126804057D02*
X105044857Y-126756438D01*
X105044857Y-126756438D02*
X105140095Y-126708819D01*
X105140095Y-126708819D02*
X105378190Y-126708819D01*
X105378190Y-126708819D02*
X105473428Y-126756438D01*
X105473428Y-126756438D02*
X105521047Y-126804057D01*
X105521047Y-126804057D02*
X105568666Y-126899295D01*
X105568666Y-126899295D02*
X105568666Y-126994533D01*
X105568666Y-126994533D02*
X105521047Y-127137390D01*
X105521047Y-127137390D02*
X104949619Y-127708819D01*
X104949619Y-127708819D02*
X105568666Y-127708819D01*
X131095904Y-77162819D02*
X130762571Y-76686628D01*
X130524476Y-77162819D02*
X130524476Y-76162819D01*
X130524476Y-76162819D02*
X130905428Y-76162819D01*
X130905428Y-76162819D02*
X131000666Y-76210438D01*
X131000666Y-76210438D02*
X131048285Y-76258057D01*
X131048285Y-76258057D02*
X131095904Y-76353295D01*
X131095904Y-76353295D02*
X131095904Y-76496152D01*
X131095904Y-76496152D02*
X131048285Y-76591390D01*
X131048285Y-76591390D02*
X131000666Y-76639009D01*
X131000666Y-76639009D02*
X130905428Y-76686628D01*
X130905428Y-76686628D02*
X130524476Y-76686628D01*
X131905428Y-77115200D02*
X131810190Y-77162819D01*
X131810190Y-77162819D02*
X131619714Y-77162819D01*
X131619714Y-77162819D02*
X131524476Y-77115200D01*
X131524476Y-77115200D02*
X131476857Y-77019961D01*
X131476857Y-77019961D02*
X131476857Y-76639009D01*
X131476857Y-76639009D02*
X131524476Y-76543771D01*
X131524476Y-76543771D02*
X131619714Y-76496152D01*
X131619714Y-76496152D02*
X131810190Y-76496152D01*
X131810190Y-76496152D02*
X131905428Y-76543771D01*
X131905428Y-76543771D02*
X131953047Y-76639009D01*
X131953047Y-76639009D02*
X131953047Y-76734247D01*
X131953047Y-76734247D02*
X131476857Y-76829485D01*
X132334000Y-77115200D02*
X132429238Y-77162819D01*
X132429238Y-77162819D02*
X132619714Y-77162819D01*
X132619714Y-77162819D02*
X132714952Y-77115200D01*
X132714952Y-77115200D02*
X132762571Y-77019961D01*
X132762571Y-77019961D02*
X132762571Y-76972342D01*
X132762571Y-76972342D02*
X132714952Y-76877104D01*
X132714952Y-76877104D02*
X132619714Y-76829485D01*
X132619714Y-76829485D02*
X132476857Y-76829485D01*
X132476857Y-76829485D02*
X132381619Y-76781866D01*
X132381619Y-76781866D02*
X132334000Y-76686628D01*
X132334000Y-76686628D02*
X132334000Y-76639009D01*
X132334000Y-76639009D02*
X132381619Y-76543771D01*
X132381619Y-76543771D02*
X132476857Y-76496152D01*
X132476857Y-76496152D02*
X132619714Y-76496152D01*
X132619714Y-76496152D02*
X132714952Y-76543771D01*
X133572095Y-77115200D02*
X133476857Y-77162819D01*
X133476857Y-77162819D02*
X133286381Y-77162819D01*
X133286381Y-77162819D02*
X133191143Y-77115200D01*
X133191143Y-77115200D02*
X133143524Y-77019961D01*
X133143524Y-77019961D02*
X133143524Y-76639009D01*
X133143524Y-76639009D02*
X133191143Y-76543771D01*
X133191143Y-76543771D02*
X133286381Y-76496152D01*
X133286381Y-76496152D02*
X133476857Y-76496152D01*
X133476857Y-76496152D02*
X133572095Y-76543771D01*
X133572095Y-76543771D02*
X133619714Y-76639009D01*
X133619714Y-76639009D02*
X133619714Y-76734247D01*
X133619714Y-76734247D02*
X133143524Y-76829485D01*
X133905429Y-76496152D02*
X134286381Y-76496152D01*
X134048286Y-76162819D02*
X134048286Y-77019961D01*
X134048286Y-77019961D02*
X134095905Y-77115200D01*
X134095905Y-77115200D02*
X134191143Y-77162819D01*
X134191143Y-77162819D02*
X134286381Y-77162819D01*
X132487200Y-70929332D02*
X132534819Y-70786475D01*
X132534819Y-70786475D02*
X132534819Y-70548380D01*
X132534819Y-70548380D02*
X132487200Y-70453142D01*
X132487200Y-70453142D02*
X132439580Y-70405523D01*
X132439580Y-70405523D02*
X132344342Y-70357904D01*
X132344342Y-70357904D02*
X132249104Y-70357904D01*
X132249104Y-70357904D02*
X132153866Y-70405523D01*
X132153866Y-70405523D02*
X132106247Y-70453142D01*
X132106247Y-70453142D02*
X132058628Y-70548380D01*
X132058628Y-70548380D02*
X132011009Y-70738856D01*
X132011009Y-70738856D02*
X131963390Y-70834094D01*
X131963390Y-70834094D02*
X131915771Y-70881713D01*
X131915771Y-70881713D02*
X131820533Y-70929332D01*
X131820533Y-70929332D02*
X131725295Y-70929332D01*
X131725295Y-70929332D02*
X131630057Y-70881713D01*
X131630057Y-70881713D02*
X131582438Y-70834094D01*
X131582438Y-70834094D02*
X131534819Y-70738856D01*
X131534819Y-70738856D02*
X131534819Y-70500761D01*
X131534819Y-70500761D02*
X131582438Y-70357904D01*
X131534819Y-70024570D02*
X132534819Y-69786475D01*
X132534819Y-69786475D02*
X131820533Y-69595999D01*
X131820533Y-69595999D02*
X132534819Y-69405523D01*
X132534819Y-69405523D02*
X131534819Y-69167428D01*
X132534819Y-68262666D02*
X132534819Y-68834094D01*
X132534819Y-68548380D02*
X131534819Y-68548380D01*
X131534819Y-68548380D02*
X131677676Y-68643618D01*
X131677676Y-68643618D02*
X131772914Y-68738856D01*
X131772914Y-68738856D02*
X131820533Y-68834094D01*
X138152333Y-118243819D02*
X138152333Y-118958104D01*
X138152333Y-118958104D02*
X138104714Y-119100961D01*
X138104714Y-119100961D02*
X138009476Y-119196200D01*
X138009476Y-119196200D02*
X137866619Y-119243819D01*
X137866619Y-119243819D02*
X137771381Y-119243819D01*
X138485667Y-118243819D02*
X139057095Y-118243819D01*
X138771381Y-119243819D02*
X138771381Y-118243819D01*
X139342810Y-118958104D02*
X139819000Y-118958104D01*
X139247572Y-119243819D02*
X139580905Y-118243819D01*
X139580905Y-118243819D02*
X139914238Y-119243819D01*
X140771381Y-118291438D02*
X140676143Y-118243819D01*
X140676143Y-118243819D02*
X140533286Y-118243819D01*
X140533286Y-118243819D02*
X140390429Y-118291438D01*
X140390429Y-118291438D02*
X140295191Y-118386676D01*
X140295191Y-118386676D02*
X140247572Y-118481914D01*
X140247572Y-118481914D02*
X140199953Y-118672390D01*
X140199953Y-118672390D02*
X140199953Y-118815247D01*
X140199953Y-118815247D02*
X140247572Y-119005723D01*
X140247572Y-119005723D02*
X140295191Y-119100961D01*
X140295191Y-119100961D02*
X140390429Y-119196200D01*
X140390429Y-119196200D02*
X140533286Y-119243819D01*
X140533286Y-119243819D02*
X140628524Y-119243819D01*
X140628524Y-119243819D02*
X140771381Y-119196200D01*
X140771381Y-119196200D02*
X140819000Y-119148580D01*
X140819000Y-119148580D02*
X140819000Y-118815247D01*
X140819000Y-118815247D02*
X140628524Y-118815247D01*
X138773819Y-111712333D02*
X139488104Y-111712333D01*
X139488104Y-111712333D02*
X139630961Y-111759952D01*
X139630961Y-111759952D02*
X139726200Y-111855190D01*
X139726200Y-111855190D02*
X139773819Y-111998047D01*
X139773819Y-111998047D02*
X139773819Y-112093285D01*
X138773819Y-111331380D02*
X138773819Y-110712333D01*
X138773819Y-110712333D02*
X139154771Y-111045666D01*
X139154771Y-111045666D02*
X139154771Y-110902809D01*
X139154771Y-110902809D02*
X139202390Y-110807571D01*
X139202390Y-110807571D02*
X139250009Y-110759952D01*
X139250009Y-110759952D02*
X139345247Y-110712333D01*
X139345247Y-110712333D02*
X139583342Y-110712333D01*
X139583342Y-110712333D02*
X139678580Y-110759952D01*
X139678580Y-110759952D02*
X139726200Y-110807571D01*
X139726200Y-110807571D02*
X139773819Y-110902809D01*
X139773819Y-110902809D02*
X139773819Y-111188523D01*
X139773819Y-111188523D02*
X139726200Y-111283761D01*
X139726200Y-111283761D02*
X139678580Y-111331380D01*
D10*
X118551333Y-104537832D02*
X118532285Y-104556880D01*
X118532285Y-104556880D02*
X118475143Y-104575927D01*
X118475143Y-104575927D02*
X118437047Y-104575927D01*
X118437047Y-104575927D02*
X118379904Y-104556880D01*
X118379904Y-104556880D02*
X118341809Y-104518784D01*
X118341809Y-104518784D02*
X118322762Y-104480689D01*
X118322762Y-104480689D02*
X118303714Y-104404499D01*
X118303714Y-104404499D02*
X118303714Y-104347356D01*
X118303714Y-104347356D02*
X118322762Y-104271165D01*
X118322762Y-104271165D02*
X118341809Y-104233070D01*
X118341809Y-104233070D02*
X118379904Y-104194975D01*
X118379904Y-104194975D02*
X118437047Y-104175927D01*
X118437047Y-104175927D02*
X118475143Y-104175927D01*
X118475143Y-104175927D02*
X118532285Y-104194975D01*
X118532285Y-104194975D02*
X118551333Y-104214022D01*
X118894190Y-104309260D02*
X118894190Y-104575927D01*
X118798952Y-104156880D02*
X118703714Y-104442594D01*
X118703714Y-104442594D02*
X118951333Y-104442594D01*
X111141832Y-113096666D02*
X111160880Y-113115714D01*
X111160880Y-113115714D02*
X111179927Y-113172856D01*
X111179927Y-113172856D02*
X111179927Y-113210952D01*
X111179927Y-113210952D02*
X111160880Y-113268095D01*
X111160880Y-113268095D02*
X111122784Y-113306190D01*
X111122784Y-113306190D02*
X111084689Y-113325237D01*
X111084689Y-113325237D02*
X111008499Y-113344285D01*
X111008499Y-113344285D02*
X110951356Y-113344285D01*
X110951356Y-113344285D02*
X110875165Y-113325237D01*
X110875165Y-113325237D02*
X110837070Y-113306190D01*
X110837070Y-113306190D02*
X110798975Y-113268095D01*
X110798975Y-113268095D02*
X110779927Y-113210952D01*
X110779927Y-113210952D02*
X110779927Y-113172856D01*
X110779927Y-113172856D02*
X110798975Y-113115714D01*
X110798975Y-113115714D02*
X110818022Y-113096666D01*
X111179927Y-112715714D02*
X111179927Y-112944285D01*
X111179927Y-112829999D02*
X110779927Y-112829999D01*
X110779927Y-112829999D02*
X110837070Y-112868095D01*
X110837070Y-112868095D02*
X110875165Y-112906190D01*
X110875165Y-112906190D02*
X110894213Y-112944285D01*
D11*
X94924666Y-95943009D02*
X95067523Y-95990628D01*
X95067523Y-95990628D02*
X95115142Y-96038247D01*
X95115142Y-96038247D02*
X95162761Y-96133485D01*
X95162761Y-96133485D02*
X95162761Y-96276342D01*
X95162761Y-96276342D02*
X95115142Y-96371580D01*
X95115142Y-96371580D02*
X95067523Y-96419200D01*
X95067523Y-96419200D02*
X94972285Y-96466819D01*
X94972285Y-96466819D02*
X94591333Y-96466819D01*
X94591333Y-96466819D02*
X94591333Y-95466819D01*
X94591333Y-95466819D02*
X94924666Y-95466819D01*
X94924666Y-95466819D02*
X95019904Y-95514438D01*
X95019904Y-95514438D02*
X95067523Y-95562057D01*
X95067523Y-95562057D02*
X95115142Y-95657295D01*
X95115142Y-95657295D02*
X95115142Y-95752533D01*
X95115142Y-95752533D02*
X95067523Y-95847771D01*
X95067523Y-95847771D02*
X95019904Y-95895390D01*
X95019904Y-95895390D02*
X94924666Y-95943009D01*
X94924666Y-95943009D02*
X94591333Y-95943009D01*
X96019904Y-96466819D02*
X96019904Y-95943009D01*
X96019904Y-95943009D02*
X95972285Y-95847771D01*
X95972285Y-95847771D02*
X95877047Y-95800152D01*
X95877047Y-95800152D02*
X95686571Y-95800152D01*
X95686571Y-95800152D02*
X95591333Y-95847771D01*
X96019904Y-96419200D02*
X95924666Y-96466819D01*
X95924666Y-96466819D02*
X95686571Y-96466819D01*
X95686571Y-96466819D02*
X95591333Y-96419200D01*
X95591333Y-96419200D02*
X95543714Y-96323961D01*
X95543714Y-96323961D02*
X95543714Y-96228723D01*
X95543714Y-96228723D02*
X95591333Y-96133485D01*
X95591333Y-96133485D02*
X95686571Y-96085866D01*
X95686571Y-96085866D02*
X95924666Y-96085866D01*
X95924666Y-96085866D02*
X96019904Y-96038247D01*
X96924666Y-96466819D02*
X96924666Y-95466819D01*
X96924666Y-96419200D02*
X96829428Y-96466819D01*
X96829428Y-96466819D02*
X96638952Y-96466819D01*
X96638952Y-96466819D02*
X96543714Y-96419200D01*
X96543714Y-96419200D02*
X96496095Y-96371580D01*
X96496095Y-96371580D02*
X96448476Y-96276342D01*
X96448476Y-96276342D02*
X96448476Y-95990628D01*
X96448476Y-95990628D02*
X96496095Y-95895390D01*
X96496095Y-95895390D02*
X96543714Y-95847771D01*
X96543714Y-95847771D02*
X96638952Y-95800152D01*
X96638952Y-95800152D02*
X96829428Y-95800152D01*
X96829428Y-95800152D02*
X96924666Y-95847771D01*
D10*
X88925761Y-95304927D02*
X88925761Y-94904927D01*
X88925761Y-94904927D02*
X89020999Y-94904927D01*
X89020999Y-94904927D02*
X89078142Y-94923975D01*
X89078142Y-94923975D02*
X89116237Y-94962070D01*
X89116237Y-94962070D02*
X89135284Y-95000165D01*
X89135284Y-95000165D02*
X89154332Y-95076356D01*
X89154332Y-95076356D02*
X89154332Y-95133499D01*
X89154332Y-95133499D02*
X89135284Y-95209689D01*
X89135284Y-95209689D02*
X89116237Y-95247784D01*
X89116237Y-95247784D02*
X89078142Y-95285880D01*
X89078142Y-95285880D02*
X89020999Y-95304927D01*
X89020999Y-95304927D02*
X88925761Y-95304927D01*
X89306713Y-94943022D02*
X89325761Y-94923975D01*
X89325761Y-94923975D02*
X89363856Y-94904927D01*
X89363856Y-94904927D02*
X89459094Y-94904927D01*
X89459094Y-94904927D02*
X89497189Y-94923975D01*
X89497189Y-94923975D02*
X89516237Y-94943022D01*
X89516237Y-94943022D02*
X89535284Y-94981118D01*
X89535284Y-94981118D02*
X89535284Y-95019213D01*
X89535284Y-95019213D02*
X89516237Y-95076356D01*
X89516237Y-95076356D02*
X89287665Y-95304927D01*
X89287665Y-95304927D02*
X89535284Y-95304927D01*
X126635832Y-111559666D02*
X126654880Y-111578714D01*
X126654880Y-111578714D02*
X126673927Y-111635856D01*
X126673927Y-111635856D02*
X126673927Y-111673952D01*
X126673927Y-111673952D02*
X126654880Y-111731095D01*
X126654880Y-111731095D02*
X126616784Y-111769190D01*
X126616784Y-111769190D02*
X126578689Y-111788237D01*
X126578689Y-111788237D02*
X126502499Y-111807285D01*
X126502499Y-111807285D02*
X126445356Y-111807285D01*
X126445356Y-111807285D02*
X126369165Y-111788237D01*
X126369165Y-111788237D02*
X126331070Y-111769190D01*
X126331070Y-111769190D02*
X126292975Y-111731095D01*
X126292975Y-111731095D02*
X126273927Y-111673952D01*
X126273927Y-111673952D02*
X126273927Y-111635856D01*
X126273927Y-111635856D02*
X126292975Y-111578714D01*
X126292975Y-111578714D02*
X126312022Y-111559666D01*
X126312022Y-111407285D02*
X126292975Y-111388237D01*
X126292975Y-111388237D02*
X126273927Y-111350142D01*
X126273927Y-111350142D02*
X126273927Y-111254904D01*
X126273927Y-111254904D02*
X126292975Y-111216809D01*
X126292975Y-111216809D02*
X126312022Y-111197761D01*
X126312022Y-111197761D02*
X126350118Y-111178714D01*
X126350118Y-111178714D02*
X126388213Y-111178714D01*
X126388213Y-111178714D02*
X126445356Y-111197761D01*
X126445356Y-111197761D02*
X126673927Y-111426333D01*
X126673927Y-111426333D02*
X126673927Y-111178714D01*
D11*
X94916761Y-93736438D02*
X94821523Y-93688819D01*
X94821523Y-93688819D02*
X94678666Y-93688819D01*
X94678666Y-93688819D02*
X94535809Y-93736438D01*
X94535809Y-93736438D02*
X94440571Y-93831676D01*
X94440571Y-93831676D02*
X94392952Y-93926914D01*
X94392952Y-93926914D02*
X94345333Y-94117390D01*
X94345333Y-94117390D02*
X94345333Y-94260247D01*
X94345333Y-94260247D02*
X94392952Y-94450723D01*
X94392952Y-94450723D02*
X94440571Y-94545961D01*
X94440571Y-94545961D02*
X94535809Y-94641200D01*
X94535809Y-94641200D02*
X94678666Y-94688819D01*
X94678666Y-94688819D02*
X94773904Y-94688819D01*
X94773904Y-94688819D02*
X94916761Y-94641200D01*
X94916761Y-94641200D02*
X94964380Y-94593580D01*
X94964380Y-94593580D02*
X94964380Y-94260247D01*
X94964380Y-94260247D02*
X94773904Y-94260247D01*
X95535809Y-94688819D02*
X95440571Y-94641200D01*
X95440571Y-94641200D02*
X95392952Y-94593580D01*
X95392952Y-94593580D02*
X95345333Y-94498342D01*
X95345333Y-94498342D02*
X95345333Y-94212628D01*
X95345333Y-94212628D02*
X95392952Y-94117390D01*
X95392952Y-94117390D02*
X95440571Y-94069771D01*
X95440571Y-94069771D02*
X95535809Y-94022152D01*
X95535809Y-94022152D02*
X95678666Y-94022152D01*
X95678666Y-94022152D02*
X95773904Y-94069771D01*
X95773904Y-94069771D02*
X95821523Y-94117390D01*
X95821523Y-94117390D02*
X95869142Y-94212628D01*
X95869142Y-94212628D02*
X95869142Y-94498342D01*
X95869142Y-94498342D02*
X95821523Y-94593580D01*
X95821523Y-94593580D02*
X95773904Y-94641200D01*
X95773904Y-94641200D02*
X95678666Y-94688819D01*
X95678666Y-94688819D02*
X95535809Y-94688819D01*
X96440571Y-94688819D02*
X96345333Y-94641200D01*
X96345333Y-94641200D02*
X96297714Y-94593580D01*
X96297714Y-94593580D02*
X96250095Y-94498342D01*
X96250095Y-94498342D02*
X96250095Y-94212628D01*
X96250095Y-94212628D02*
X96297714Y-94117390D01*
X96297714Y-94117390D02*
X96345333Y-94069771D01*
X96345333Y-94069771D02*
X96440571Y-94022152D01*
X96440571Y-94022152D02*
X96583428Y-94022152D01*
X96583428Y-94022152D02*
X96678666Y-94069771D01*
X96678666Y-94069771D02*
X96726285Y-94117390D01*
X96726285Y-94117390D02*
X96773904Y-94212628D01*
X96773904Y-94212628D02*
X96773904Y-94498342D01*
X96773904Y-94498342D02*
X96726285Y-94593580D01*
X96726285Y-94593580D02*
X96678666Y-94641200D01*
X96678666Y-94641200D02*
X96583428Y-94688819D01*
X96583428Y-94688819D02*
X96440571Y-94688819D01*
X97631047Y-94688819D02*
X97631047Y-93688819D01*
X97631047Y-94641200D02*
X97535809Y-94688819D01*
X97535809Y-94688819D02*
X97345333Y-94688819D01*
X97345333Y-94688819D02*
X97250095Y-94641200D01*
X97250095Y-94641200D02*
X97202476Y-94593580D01*
X97202476Y-94593580D02*
X97154857Y-94498342D01*
X97154857Y-94498342D02*
X97154857Y-94212628D01*
X97154857Y-94212628D02*
X97202476Y-94117390D01*
X97202476Y-94117390D02*
X97250095Y-94069771D01*
X97250095Y-94069771D02*
X97345333Y-94022152D01*
X97345333Y-94022152D02*
X97535809Y-94022152D01*
X97535809Y-94022152D02*
X97631047Y-94069771D01*
D10*
X88948102Y-93527654D02*
X88948102Y-93127654D01*
X88948102Y-93127654D02*
X89043340Y-93127654D01*
X89043340Y-93127654D02*
X89100483Y-93146702D01*
X89100483Y-93146702D02*
X89138578Y-93184797D01*
X89138578Y-93184797D02*
X89157625Y-93222892D01*
X89157625Y-93222892D02*
X89176673Y-93299083D01*
X89176673Y-93299083D02*
X89176673Y-93356226D01*
X89176673Y-93356226D02*
X89157625Y-93432416D01*
X89157625Y-93432416D02*
X89138578Y-93470511D01*
X89138578Y-93470511D02*
X89100483Y-93508607D01*
X89100483Y-93508607D02*
X89043340Y-93527654D01*
X89043340Y-93527654D02*
X88948102Y-93527654D01*
X89557625Y-93527654D02*
X89329054Y-93527654D01*
X89443340Y-93527654D02*
X89443340Y-93127654D01*
X89443340Y-93127654D02*
X89405244Y-93184797D01*
X89405244Y-93184797D02*
X89367149Y-93222892D01*
X89367149Y-93222892D02*
X89329054Y-93241940D01*
D11*
X117118000Y-117912819D02*
X117213238Y-117912819D01*
X117213238Y-117912819D02*
X117308476Y-117960438D01*
X117308476Y-117960438D02*
X117356095Y-118008057D01*
X117356095Y-118008057D02*
X117403714Y-118103295D01*
X117403714Y-118103295D02*
X117451333Y-118293771D01*
X117451333Y-118293771D02*
X117451333Y-118531866D01*
X117451333Y-118531866D02*
X117403714Y-118722342D01*
X117403714Y-118722342D02*
X117356095Y-118817580D01*
X117356095Y-118817580D02*
X117308476Y-118865200D01*
X117308476Y-118865200D02*
X117213238Y-118912819D01*
X117213238Y-118912819D02*
X117118000Y-118912819D01*
X117118000Y-118912819D02*
X117022762Y-118865200D01*
X117022762Y-118865200D02*
X116975143Y-118817580D01*
X116975143Y-118817580D02*
X116927524Y-118722342D01*
X116927524Y-118722342D02*
X116879905Y-118531866D01*
X116879905Y-118531866D02*
X116879905Y-118293771D01*
X116879905Y-118293771D02*
X116927524Y-118103295D01*
X116927524Y-118103295D02*
X116975143Y-118008057D01*
X116975143Y-118008057D02*
X117022762Y-117960438D01*
X117022762Y-117960438D02*
X117118000Y-117912819D01*
X117879905Y-118817580D02*
X117927524Y-118865200D01*
X117927524Y-118865200D02*
X117879905Y-118912819D01*
X117879905Y-118912819D02*
X117832286Y-118865200D01*
X117832286Y-118865200D02*
X117879905Y-118817580D01*
X117879905Y-118817580D02*
X117879905Y-118912819D01*
X118879904Y-118912819D02*
X118308476Y-118912819D01*
X118594190Y-118912819D02*
X118594190Y-117912819D01*
X118594190Y-117912819D02*
X118498952Y-118055676D01*
X118498952Y-118055676D02*
X118403714Y-118150914D01*
X118403714Y-118150914D02*
X118308476Y-118198533D01*
X119737047Y-118246152D02*
X119737047Y-118912819D01*
X119308476Y-118246152D02*
X119308476Y-118769961D01*
X119308476Y-118769961D02*
X119356095Y-118865200D01*
X119356095Y-118865200D02*
X119451333Y-118912819D01*
X119451333Y-118912819D02*
X119594190Y-118912819D01*
X119594190Y-118912819D02*
X119689428Y-118865200D01*
X119689428Y-118865200D02*
X119737047Y-118817580D01*
X120070381Y-118246152D02*
X120451333Y-118246152D01*
X120213238Y-118912819D02*
X120213238Y-118055676D01*
X120213238Y-118055676D02*
X120260857Y-117960438D01*
X120260857Y-117960438D02*
X120356095Y-117912819D01*
X120356095Y-117912819D02*
X120451333Y-117912819D01*
D10*
X118551333Y-120031832D02*
X118532285Y-120050880D01*
X118532285Y-120050880D02*
X118475143Y-120069927D01*
X118475143Y-120069927D02*
X118437047Y-120069927D01*
X118437047Y-120069927D02*
X118379904Y-120050880D01*
X118379904Y-120050880D02*
X118341809Y-120012784D01*
X118341809Y-120012784D02*
X118322762Y-119974689D01*
X118322762Y-119974689D02*
X118303714Y-119898499D01*
X118303714Y-119898499D02*
X118303714Y-119841356D01*
X118303714Y-119841356D02*
X118322762Y-119765165D01*
X118322762Y-119765165D02*
X118341809Y-119727070D01*
X118341809Y-119727070D02*
X118379904Y-119688975D01*
X118379904Y-119688975D02*
X118437047Y-119669927D01*
X118437047Y-119669927D02*
X118475143Y-119669927D01*
X118475143Y-119669927D02*
X118532285Y-119688975D01*
X118532285Y-119688975D02*
X118551333Y-119708022D01*
X118684666Y-119669927D02*
X118932285Y-119669927D01*
X118932285Y-119669927D02*
X118798952Y-119822308D01*
X118798952Y-119822308D02*
X118856095Y-119822308D01*
X118856095Y-119822308D02*
X118894190Y-119841356D01*
X118894190Y-119841356D02*
X118913238Y-119860403D01*
X118913238Y-119860403D02*
X118932285Y-119898499D01*
X118932285Y-119898499D02*
X118932285Y-119993737D01*
X118932285Y-119993737D02*
X118913238Y-120031832D01*
X118913238Y-120031832D02*
X118894190Y-120050880D01*
X118894190Y-120050880D02*
X118856095Y-120069927D01*
X118856095Y-120069927D02*
X118741809Y-120069927D01*
X118741809Y-120069927D02*
X118703714Y-120050880D01*
X118703714Y-120050880D02*
X118684666Y-120031832D01*
X92176356Y-95304927D02*
X92043023Y-95114451D01*
X91947785Y-95304927D02*
X91947785Y-94904927D01*
X91947785Y-94904927D02*
X92100166Y-94904927D01*
X92100166Y-94904927D02*
X92138261Y-94923975D01*
X92138261Y-94923975D02*
X92157308Y-94943022D01*
X92157308Y-94943022D02*
X92176356Y-94981118D01*
X92176356Y-94981118D02*
X92176356Y-95038260D01*
X92176356Y-95038260D02*
X92157308Y-95076356D01*
X92157308Y-95076356D02*
X92138261Y-95095403D01*
X92138261Y-95095403D02*
X92100166Y-95114451D01*
X92100166Y-95114451D02*
X91947785Y-95114451D01*
X92328737Y-94943022D02*
X92347785Y-94923975D01*
X92347785Y-94923975D02*
X92385880Y-94904927D01*
X92385880Y-94904927D02*
X92481118Y-94904927D01*
X92481118Y-94904927D02*
X92519213Y-94923975D01*
X92519213Y-94923975D02*
X92538261Y-94943022D01*
X92538261Y-94943022D02*
X92557308Y-94981118D01*
X92557308Y-94981118D02*
X92557308Y-95019213D01*
X92557308Y-95019213D02*
X92538261Y-95076356D01*
X92538261Y-95076356D02*
X92309689Y-95304927D01*
X92309689Y-95304927D02*
X92557308Y-95304927D01*
X92919213Y-94904927D02*
X92728737Y-94904927D01*
X92728737Y-94904927D02*
X92709689Y-95095403D01*
X92709689Y-95095403D02*
X92728737Y-95076356D01*
X92728737Y-95076356D02*
X92766832Y-95057308D01*
X92766832Y-95057308D02*
X92862070Y-95057308D01*
X92862070Y-95057308D02*
X92900165Y-95076356D01*
X92900165Y-95076356D02*
X92919213Y-95095403D01*
X92919213Y-95095403D02*
X92938260Y-95133499D01*
X92938260Y-95133499D02*
X92938260Y-95228737D01*
X92938260Y-95228737D02*
X92919213Y-95266832D01*
X92919213Y-95266832D02*
X92900165Y-95285880D01*
X92900165Y-95285880D02*
X92862070Y-95304927D01*
X92862070Y-95304927D02*
X92766832Y-95304927D01*
X92766832Y-95304927D02*
X92728737Y-95285880D01*
X92728737Y-95285880D02*
X92709689Y-95266832D01*
D11*
X94544094Y-92402819D02*
X94544094Y-91402819D01*
X95020284Y-91736152D02*
X95020284Y-92402819D01*
X95020284Y-91831390D02*
X95067903Y-91783771D01*
X95067903Y-91783771D02*
X95163141Y-91736152D01*
X95163141Y-91736152D02*
X95305998Y-91736152D01*
X95305998Y-91736152D02*
X95401236Y-91783771D01*
X95401236Y-91783771D02*
X95448855Y-91879009D01*
X95448855Y-91879009D02*
X95448855Y-92402819D01*
X95925046Y-91736152D02*
X95925046Y-92736152D01*
X95925046Y-91783771D02*
X96020284Y-91736152D01*
X96020284Y-91736152D02*
X96210760Y-91736152D01*
X96210760Y-91736152D02*
X96305998Y-91783771D01*
X96305998Y-91783771D02*
X96353617Y-91831390D01*
X96353617Y-91831390D02*
X96401236Y-91926628D01*
X96401236Y-91926628D02*
X96401236Y-92212342D01*
X96401236Y-92212342D02*
X96353617Y-92307580D01*
X96353617Y-92307580D02*
X96305998Y-92355200D01*
X96305998Y-92355200D02*
X96210760Y-92402819D01*
X96210760Y-92402819D02*
X96020284Y-92402819D01*
X96020284Y-92402819D02*
X95925046Y-92355200D01*
X97258379Y-91736152D02*
X97258379Y-92402819D01*
X96829808Y-91736152D02*
X96829808Y-92259961D01*
X96829808Y-92259961D02*
X96877427Y-92355200D01*
X96877427Y-92355200D02*
X96972665Y-92402819D01*
X96972665Y-92402819D02*
X97115522Y-92402819D01*
X97115522Y-92402819D02*
X97210760Y-92355200D01*
X97210760Y-92355200D02*
X97258379Y-92307580D01*
X97591713Y-91736152D02*
X97972665Y-91736152D01*
X97734570Y-91402819D02*
X97734570Y-92259961D01*
X97734570Y-92259961D02*
X97782189Y-92355200D01*
X97782189Y-92355200D02*
X97877427Y-92402819D01*
X97877427Y-92402819D02*
X97972665Y-92402819D01*
X98925047Y-91402819D02*
X99496475Y-91402819D01*
X99210761Y-92402819D02*
X99210761Y-91402819D01*
X100210761Y-92355200D02*
X100115523Y-92402819D01*
X100115523Y-92402819D02*
X99925047Y-92402819D01*
X99925047Y-92402819D02*
X99829809Y-92355200D01*
X99829809Y-92355200D02*
X99782190Y-92259961D01*
X99782190Y-92259961D02*
X99782190Y-91879009D01*
X99782190Y-91879009D02*
X99829809Y-91783771D01*
X99829809Y-91783771D02*
X99925047Y-91736152D01*
X99925047Y-91736152D02*
X100115523Y-91736152D01*
X100115523Y-91736152D02*
X100210761Y-91783771D01*
X100210761Y-91783771D02*
X100258380Y-91879009D01*
X100258380Y-91879009D02*
X100258380Y-91974247D01*
X100258380Y-91974247D02*
X99782190Y-92069485D01*
X100639333Y-92355200D02*
X100734571Y-92402819D01*
X100734571Y-92402819D02*
X100925047Y-92402819D01*
X100925047Y-92402819D02*
X101020285Y-92355200D01*
X101020285Y-92355200D02*
X101067904Y-92259961D01*
X101067904Y-92259961D02*
X101067904Y-92212342D01*
X101067904Y-92212342D02*
X101020285Y-92117104D01*
X101020285Y-92117104D02*
X100925047Y-92069485D01*
X100925047Y-92069485D02*
X100782190Y-92069485D01*
X100782190Y-92069485D02*
X100686952Y-92021866D01*
X100686952Y-92021866D02*
X100639333Y-91926628D01*
X100639333Y-91926628D02*
X100639333Y-91879009D01*
X100639333Y-91879009D02*
X100686952Y-91783771D01*
X100686952Y-91783771D02*
X100782190Y-91736152D01*
X100782190Y-91736152D02*
X100925047Y-91736152D01*
X100925047Y-91736152D02*
X101020285Y-91783771D01*
X101353619Y-91736152D02*
X101734571Y-91736152D01*
X101496476Y-91402819D02*
X101496476Y-92259961D01*
X101496476Y-92259961D02*
X101544095Y-92355200D01*
X101544095Y-92355200D02*
X101639333Y-92402819D01*
X101639333Y-92402819D02*
X101734571Y-92402819D01*
X102448857Y-92355200D02*
X102353619Y-92402819D01*
X102353619Y-92402819D02*
X102163143Y-92402819D01*
X102163143Y-92402819D02*
X102067905Y-92355200D01*
X102067905Y-92355200D02*
X102020286Y-92259961D01*
X102020286Y-92259961D02*
X102020286Y-91879009D01*
X102020286Y-91879009D02*
X102067905Y-91783771D01*
X102067905Y-91783771D02*
X102163143Y-91736152D01*
X102163143Y-91736152D02*
X102353619Y-91736152D01*
X102353619Y-91736152D02*
X102448857Y-91783771D01*
X102448857Y-91783771D02*
X102496476Y-91879009D01*
X102496476Y-91879009D02*
X102496476Y-91974247D01*
X102496476Y-91974247D02*
X102020286Y-92069485D01*
X102925048Y-92402819D02*
X102925048Y-91736152D01*
X102925048Y-91926628D02*
X102972667Y-91831390D01*
X102972667Y-91831390D02*
X103020286Y-91783771D01*
X103020286Y-91783771D02*
X103115524Y-91736152D01*
X103115524Y-91736152D02*
X103210762Y-91736152D01*
X105330666Y-91402819D02*
X105330666Y-92117104D01*
X105330666Y-92117104D02*
X105283047Y-92259961D01*
X105283047Y-92259961D02*
X105187809Y-92355200D01*
X105187809Y-92355200D02*
X105044952Y-92402819D01*
X105044952Y-92402819D02*
X104949714Y-92402819D01*
X106330666Y-92402819D02*
X105759238Y-92402819D01*
X106044952Y-92402819D02*
X106044952Y-91402819D01*
X106044952Y-91402819D02*
X105949714Y-91545676D01*
X105949714Y-91545676D02*
X105854476Y-91640914D01*
X105854476Y-91640914D02*
X105759238Y-91688533D01*
X118110095Y-111610819D02*
X118110095Y-112420342D01*
X118110095Y-112420342D02*
X118157714Y-112515580D01*
X118157714Y-112515580D02*
X118205333Y-112563200D01*
X118205333Y-112563200D02*
X118300571Y-112610819D01*
X118300571Y-112610819D02*
X118491047Y-112610819D01*
X118491047Y-112610819D02*
X118586285Y-112563200D01*
X118586285Y-112563200D02*
X118633904Y-112515580D01*
X118633904Y-112515580D02*
X118681523Y-112420342D01*
X118681523Y-112420342D02*
X118681523Y-111610819D01*
X119681523Y-112610819D02*
X119110095Y-112610819D01*
X119395809Y-112610819D02*
X119395809Y-111610819D01*
X119395809Y-111610819D02*
X119300571Y-111753676D01*
X119300571Y-111753676D02*
X119205333Y-111848914D01*
X119205333Y-111848914D02*
X119110095Y-111896533D01*
D12*
%TO.C,R26*%
X93179840Y-93758227D02*
X91579840Y-93758227D01*
X93179840Y-92933227D02*
X93179840Y-93758227D01*
X91579840Y-93758227D02*
X91579840Y-92933227D01*
X91579840Y-92933227D02*
X93179840Y-92933227D01*
D13*
%TO.C,J2*%
X108882498Y-98137030D02*
X88947499Y-98137030D01*
X88947499Y-98137030D02*
X88947499Y-125736975D01*
X108882498Y-125736975D02*
X108882498Y-98137030D01*
X88947499Y-125736975D02*
X108882498Y-125736975D01*
X102847499Y-125990975D02*
X103482499Y-127514975D01*
X103482499Y-127514975D02*
X102212499Y-127514975D01*
X102212499Y-127514975D02*
X102847499Y-125990975D01*
D12*
%TO.C,SW1*%
X127080000Y-74596000D02*
X127080000Y-64596000D01*
X137080000Y-74596000D02*
X127080000Y-74596000D01*
X127080000Y-64596000D02*
X137080000Y-64596000D01*
X137080000Y-64596000D02*
X137080000Y-74596000D01*
X128180000Y-73446000D02*
G75*
G03*
X127380000Y-73446000I-400000J0D01*
G01*
X127380000Y-73446000D02*
G75*
G03*
X128180000Y-73446000I400000J0D01*
G01*
%TO.C,J3*%
X137614000Y-105881500D02*
X138466500Y-105029000D01*
X137614000Y-117729000D02*
X137614000Y-105881500D01*
X138466500Y-105029000D02*
X141024000Y-105029000D01*
X141024000Y-105029000D02*
X141024000Y-117729000D01*
X141024000Y-117729000D02*
X137614000Y-117729000D01*
%TO.C,C4*%
X117818000Y-103994000D02*
X119418000Y-103994000D01*
X117818000Y-104794000D02*
X117818000Y-103994000D01*
X119418000Y-103994000D02*
X119418000Y-104794000D01*
X119418000Y-104794000D02*
X117818000Y-104794000D01*
%TO.C,C1*%
X111398000Y-112230000D02*
X111398000Y-113830000D01*
X110598000Y-112230000D02*
X111398000Y-112230000D01*
X111398000Y-113830000D02*
X110598000Y-113830000D01*
X110598000Y-113830000D02*
X110598000Y-112230000D01*
%TO.C,D2*%
X88420999Y-95023000D02*
X88420999Y-95523000D01*
X88420999Y-95523000D02*
X90020999Y-95523000D01*
X88720999Y-94723000D02*
X88420999Y-95023000D01*
X90020999Y-94723000D02*
X88720999Y-94723000D01*
X90020999Y-95523000D02*
X90020999Y-94723000D01*
%TO.C,C2*%
X126092000Y-112293000D02*
X126092000Y-110693000D01*
X126892000Y-112293000D02*
X126092000Y-112293000D01*
X126092000Y-110693000D02*
X126892000Y-110693000D01*
X126892000Y-110693000D02*
X126892000Y-112293000D01*
%TO.C,D1*%
X88443340Y-93245727D02*
X88443340Y-93745727D01*
X88443340Y-93745727D02*
X90043340Y-93745727D01*
X88743340Y-92945727D02*
X88443340Y-93245727D01*
X90043340Y-92945727D02*
X88743340Y-92945727D01*
X90043340Y-93745727D02*
X90043340Y-92945727D01*
%TO.C,C3*%
X119418000Y-120288000D02*
X117818000Y-120288000D01*
X119418000Y-119488000D02*
X119418000Y-120288000D01*
X117818000Y-120288000D02*
X117818000Y-119488000D01*
X117818000Y-119488000D02*
X119418000Y-119488000D01*
%TO.C,R25*%
X93233499Y-95535500D02*
X91633499Y-95535500D01*
X93233499Y-94710500D02*
X93233499Y-95535500D01*
X91633499Y-95535500D02*
X91633499Y-94710500D01*
X91633499Y-94710500D02*
X93233499Y-94710500D01*
D13*
%TO.C,J1*%
X108750998Y-63035028D02*
X88815999Y-63035028D01*
X88815999Y-63035028D02*
X88815999Y-90634973D01*
X108750998Y-90634973D02*
X108750998Y-63035028D01*
X88815999Y-90634973D02*
X108750998Y-90634973D01*
X102715999Y-90888973D02*
X103350999Y-92412973D01*
X103350999Y-92412973D02*
X102080999Y-92412973D01*
X102080999Y-92412973D02*
X102715999Y-90888973D01*
D11*
%TO.C,U1*%
X113872000Y-108156000D02*
X114872000Y-107156000D01*
X113872000Y-117156000D02*
X113872000Y-108156000D01*
X114872000Y-107156000D02*
X123872000Y-107156000D01*
X123872000Y-107156000D02*
X123872000Y-117156000D01*
X123872000Y-117156000D02*
X113872000Y-117156000D01*
%TD*%
M02*
