%TF.GenerationSoftware,KiCad,Pcbnew,(7.0.0)*%
%TF.CreationDate,2023-05-05T13:18:47-07:00*%
%TF.ProjectId,HarnessTesterAll,4861726e-6573-4735-9465-73746572416c,rev?*%
%TF.SameCoordinates,Original*%
%TF.FileFunction,Soldermask,Bot*%
%TF.FilePolarity,Negative*%
%FSLAX46Y46*%
G04 Gerber Fmt 4.6, Leading zero omitted, Abs format (unit mm)*
G04 Created by KiCad (PCBNEW (7.0.0)) date 2023-05-05 13:18:47*
%MOMM*%
%LPD*%
G01*
G04 APERTURE LIST*
G04 Aperture macros list*
%AMRoundRect*
0 Rectangle with rounded corners*
0 $1 Rounding radius*
0 $2 $3 $4 $5 $6 $7 $8 $9 X,Y pos of 4 corners*
0 Add a 4 corners polygon primitive as box body*
4,1,4,$2,$3,$4,$5,$6,$7,$8,$9,$2,$3,0*
0 Add four circle primitives for the rounded corners*
1,1,$1+$1,$2,$3*
1,1,$1+$1,$4,$5*
1,1,$1+$1,$6,$7*
1,1,$1+$1,$8,$9*
0 Add four rect primitives between the rounded corners*
20,1,$1+$1,$2,$3,$4,$5,0*
20,1,$1+$1,$4,$5,$6,$7,0*
20,1,$1+$1,$6,$7,$8,$9,0*
20,1,$1+$1,$8,$9,$2,$3,0*%
G04 Aperture macros list end*
%ADD10C,4.300000*%
%ADD11C,2.000000*%
%ADD12C,1.650000*%
%ADD13C,5.161000*%
%ADD14RoundRect,0.200000X-0.275000X0.200000X-0.275000X-0.200000X0.275000X-0.200000X0.275000X0.200000X0*%
%ADD15RoundRect,0.200000X0.275000X-0.200000X0.275000X0.200000X-0.275000X0.200000X-0.275000X-0.200000X0*%
%ADD16RoundRect,0.200000X-0.200000X-0.275000X0.200000X-0.275000X0.200000X0.275000X-0.200000X0.275000X0*%
%ADD17RoundRect,0.200000X0.200000X0.275000X-0.200000X0.275000X-0.200000X-0.275000X0.200000X-0.275000X0*%
%ADD18C,3.000000*%
%ADD19RoundRect,0.250001X1.099999X1.599999X-1.099999X1.599999X-1.099999X-1.599999X1.099999X-1.599999X0*%
%ADD20O,2.700000X3.700000*%
%ADD21R,1.350000X1.350000*%
%ADD22O,1.350000X1.350000*%
%ADD23R,0.850000X0.850000*%
%ADD24O,0.850000X0.850000*%
%ADD25RoundRect,0.250001X-1.099999X-1.599999X1.099999X-1.599999X1.099999X1.599999X-1.099999X1.599999X0*%
%ADD26R,1.800000X2.600000*%
%ADD27O,1.800000X2.600000*%
G04 APERTURE END LIST*
D10*
%TO.C,*%
X91440000Y-127000000D03*
%TD*%
%TO.C,REF\u002A\u002A*%
X198120000Y-127000000D03*
%TD*%
%TO.C,REF\u002A\u002A*%
X198120000Y-55880000D03*
%TD*%
%TO.C,REF\u002A\u002A*%
X91440000Y-55880000D03*
%TD*%
D11*
%TO.C,LS2*%
X162560000Y-63460000D03*
X162560000Y-58460000D03*
%TD*%
D12*
%TO.C,SW2*%
X195507526Y-71940000D03*
X190507526Y-71940000D03*
X195507526Y-86440000D03*
X190507526Y-86440000D03*
X193007526Y-86440000D03*
D13*
X198707526Y-78940000D03*
X187307526Y-78940000D03*
%TD*%
D14*
%TO.C,C21*%
X137805810Y-85829209D03*
X137805810Y-87479209D03*
%TD*%
D15*
%TO.C,C20*%
X135245990Y-87446768D03*
X135245990Y-85796768D03*
%TD*%
D16*
%TO.C,C17*%
X146923754Y-70234736D03*
X148573754Y-70234736D03*
%TD*%
D17*
%TO.C,C16*%
X164536016Y-66719727D03*
X162886016Y-66719727D03*
%TD*%
D15*
%TO.C,C15*%
X156448634Y-82754618D03*
X156448634Y-81104618D03*
%TD*%
D18*
%TO.C,J1*%
X129847526Y-129990000D03*
X108847526Y-129990000D03*
D19*
X129847526Y-122690000D03*
D20*
X125647525Y-122689999D03*
X121447525Y-122689999D03*
X117247525Y-122689999D03*
X113047525Y-122689999D03*
X108847525Y-122689999D03*
X129847525Y-117189999D03*
X125647525Y-117189999D03*
X121447525Y-117189999D03*
X117247525Y-117189999D03*
X113047525Y-117189999D03*
X108847525Y-117189999D03*
%TD*%
D21*
%TO.C,J4*%
X162559999Y-68953613D03*
D22*
X164559999Y-68953613D03*
X166559999Y-68953613D03*
X168559999Y-68953613D03*
%TD*%
D23*
%TO.C,J7*%
X146747525Y-69029999D03*
D24*
X145747525Y-69029999D03*
X144747525Y-69029999D03*
%TD*%
D18*
%TO.C,J3*%
X116807526Y-56330000D03*
D25*
X114707526Y-63630000D03*
D20*
X118907525Y-63629999D03*
X114707525Y-69129999D03*
X118907525Y-69129999D03*
%TD*%
D18*
%TO.C,J2*%
X173027526Y-129990000D03*
X152027526Y-129990000D03*
D19*
X173027526Y-122690000D03*
D20*
X168827525Y-122689999D03*
X164627525Y-122689999D03*
X160427525Y-122689999D03*
X156227525Y-122689999D03*
X152027525Y-122689999D03*
X173027525Y-117189999D03*
X168827525Y-117189999D03*
X164627525Y-117189999D03*
X160427525Y-117189999D03*
X156227525Y-117189999D03*
X152027525Y-117189999D03*
%TD*%
D18*
%TO.C,DS1*%
X101148426Y-63429300D03*
X101148426Y-94430000D03*
X176147006Y-63429300D03*
X176147526Y-94430000D03*
D26*
X106647525Y-94429999D03*
D27*
X109187525Y-94429999D03*
X111727525Y-94429999D03*
X114267525Y-94429999D03*
X116807525Y-94429999D03*
X119347525Y-94429999D03*
X121887525Y-94429999D03*
X124427525Y-94429999D03*
X126967525Y-94429999D03*
X129507525Y-94429999D03*
X132047525Y-94429999D03*
X134587525Y-94429999D03*
X137127525Y-94429999D03*
X139667525Y-94429999D03*
X142207525Y-94429999D03*
X144747525Y-94429999D03*
%TD*%
M02*
