%TF.GenerationSoftware,KiCad,Pcbnew,7.0.10*%
%TF.CreationDate,2024-02-20T17:57:48-08:00*%
%TF.ProjectId,HarnessTesterAll,4861726e-6573-4735-9465-73746572416c,rev?*%
%TF.SameCoordinates,Original*%
%TF.FileFunction,Copper,L2,Bot*%
%TF.FilePolarity,Positive*%
%FSLAX46Y46*%
G04 Gerber Fmt 4.6, Leading zero omitted, Abs format (unit mm)*
G04 Created by KiCad (PCBNEW 7.0.10) date 2024-02-20 17:57:48*
%MOMM*%
%LPD*%
G01*
G04 APERTURE LIST*
G04 Aperture macros list*
%AMRoundRect*
0 Rectangle with rounded corners*
0 $1 Rounding radius*
0 $2 $3 $4 $5 $6 $7 $8 $9 X,Y pos of 4 corners*
0 Add a 4 corners polygon primitive as box body*
4,1,4,$2,$3,$4,$5,$6,$7,$8,$9,$2,$3,0*
0 Add four circle primitives for the rounded corners*
1,1,$1+$1,$2,$3*
1,1,$1+$1,$4,$5*
1,1,$1+$1,$6,$7*
1,1,$1+$1,$8,$9*
0 Add four rect primitives between the rounded corners*
20,1,$1+$1,$2,$3,$4,$5,0*
20,1,$1+$1,$4,$5,$6,$7,0*
20,1,$1+$1,$6,$7,$8,$9,0*
20,1,$1+$1,$8,$9,$2,$3,0*%
G04 Aperture macros list end*
%TA.AperFunction,ComponentPad*%
%ADD10R,2.300000X2.300000*%
%TD*%
%TA.AperFunction,ComponentPad*%
%ADD11C,2.300000*%
%TD*%
%TA.AperFunction,ComponentPad*%
%ADD12R,1.000000X1.000000*%
%TD*%
%TA.AperFunction,ComponentPad*%
%ADD13O,1.000000X1.000000*%
%TD*%
%TA.AperFunction,SMDPad,CuDef*%
%ADD14RoundRect,0.200000X-0.200000X-0.275000X0.200000X-0.275000X0.200000X0.275000X-0.200000X0.275000X0*%
%TD*%
%TA.AperFunction,SMDPad,CuDef*%
%ADD15RoundRect,0.200000X0.200000X0.275000X-0.200000X0.275000X-0.200000X-0.275000X0.200000X-0.275000X0*%
%TD*%
%TA.AperFunction,ViaPad*%
%ADD16C,0.600000*%
%TD*%
%TA.AperFunction,Conductor*%
%ADD17C,0.500000*%
%TD*%
%TA.AperFunction,Conductor*%
%ADD18C,0.200000*%
%TD*%
G04 APERTURE END LIST*
D10*
%TO.P,J2,1,1*%
%TO.N,Out1*%
X102847499Y-122436999D03*
D11*
%TO.P,J2,2,2*%
%TO.N,Out2*%
X102847499Y-118237000D03*
%TO.P,J2,3,3*%
%TO.N,Out3*%
X102847499Y-114037001D03*
%TO.P,J2,4,4*%
%TO.N,Out4*%
X102847499Y-109837001D03*
%TO.P,J2,5,5*%
%TO.N,Out5*%
X102847499Y-105637002D03*
%TO.P,J2,6,6*%
%TO.N,Out6*%
X102847499Y-101437003D03*
%TO.P,J2,7,7*%
%TO.N,Out7*%
X108347498Y-122436999D03*
%TO.P,J2,8,8*%
%TO.N,Out8*%
X108347498Y-118237000D03*
%TO.P,J2,9,9*%
%TO.N,Out9*%
X108347498Y-114037001D03*
%TO.P,J2,10,10*%
%TO.N,Out10*%
X108347498Y-109837001D03*
%TO.P,J2,11,11*%
%TO.N,Out11*%
X108347498Y-105637002D03*
%TO.P,J2,12,12*%
%TO.N,Out12*%
X108347498Y-101437003D03*
%TD*%
D12*
%TO.P,J3,1,Pin_1*%
%TO.N,+3.3V*%
X138684000Y-105664000D03*
D13*
%TO.P,J3,2,Pin_2*%
%TO.N,unconnected-(J3-Pin_2-Pad2)*%
X139954000Y-105664000D03*
%TO.P,J3,3,Pin_3*%
%TO.N,unconnected-(J3-Pin_3-Pad3)*%
X138684000Y-106934000D03*
%TO.P,J3,4,Pin_4*%
%TO.N,GND*%
X139954000Y-106934000D03*
%TO.P,J3,5,Pin_5*%
%TO.N,TDI *%
X138684000Y-108204000D03*
%TO.P,J3,6,Pin_6*%
%TO.N,GND*%
X139954000Y-108204000D03*
%TO.P,J3,7,Pin_7*%
%TO.N,TMS*%
X138684000Y-109474000D03*
%TO.P,J3,8,Pin_8*%
%TO.N,GND*%
X139954000Y-109474000D03*
%TO.P,J3,9,Pin_9*%
%TO.N,TCK*%
X138684000Y-110744000D03*
%TO.P,J3,10,Pin_10*%
%TO.N,GND*%
X139954000Y-110744000D03*
%TO.P,J3,11,Pin_11*%
%TO.N,unconnected-(J3-Pin_11-Pad11)*%
X138684000Y-112014000D03*
%TO.P,J3,12,Pin_12*%
%TO.N,GND*%
X139954000Y-112014000D03*
%TO.P,J3,13,Pin_13*%
%TO.N,TDO*%
X138684000Y-113284000D03*
%TO.P,J3,14,Pin_14*%
%TO.N,GND*%
X139954000Y-113284000D03*
%TO.P,J3,15,Pin_15*%
%TO.N,RST*%
X138684000Y-114554000D03*
%TO.P,J3,16,Pin_16*%
%TO.N,GND*%
X139954000Y-114554000D03*
%TO.P,J3,17,Pin_17*%
%TO.N,unconnected-(J3-Pin_17-Pad17)*%
X138684000Y-115824000D03*
%TO.P,J3,18,Pin_18*%
%TO.N,GND*%
X139954000Y-115824000D03*
%TO.P,J3,19,Pin_19*%
%TO.N,unconnected-(J3-Pin_19-Pad19)*%
X138684000Y-117094000D03*
%TO.P,J3,20,Pin_20*%
%TO.N,GND*%
X139954000Y-117094000D03*
%TD*%
D10*
%TO.P,J1,1,1*%
%TO.N,In1*%
X102715999Y-87334997D03*
D11*
%TO.P,J1,2,2*%
%TO.N,In2*%
X102715999Y-83134998D03*
%TO.P,J1,3,3*%
%TO.N,In3*%
X102715999Y-78934999D03*
%TO.P,J1,4,4*%
%TO.N,In4*%
X102715999Y-74734999D03*
%TO.P,J1,5,5*%
%TO.N,In5*%
X102715999Y-70535000D03*
%TO.P,J1,6,6*%
%TO.N,In6*%
X102715999Y-66335001D03*
%TO.P,J1,7,7*%
%TO.N,In7*%
X108215998Y-87334997D03*
%TO.P,J1,8,8*%
%TO.N,In8*%
X108215998Y-83134998D03*
%TO.P,J1,9,9*%
%TO.N,In9*%
X108215998Y-78934999D03*
%TO.P,J1,10,10*%
%TO.N,In10*%
X108215998Y-74734999D03*
%TO.P,J1,11,11*%
%TO.N,In11*%
X108215998Y-70535000D03*
%TO.P,J1,12,12*%
%TO.N,In12*%
X108215998Y-66335001D03*
%TD*%
D14*
%TO.P,R13,1*%
%TO.N,+3.3V*%
X98489000Y-87376000D03*
%TO.P,R13,2*%
%TO.N,In1*%
X100139000Y-87376000D03*
%TD*%
%TO.P,R14,1*%
%TO.N,+3.3V*%
X98489000Y-83058000D03*
%TO.P,R14,2*%
%TO.N,In2*%
X100139000Y-83058000D03*
%TD*%
D15*
%TO.P,R20,1*%
%TO.N,+3.3V*%
X112394000Y-83058000D03*
%TO.P,R20,2*%
%TO.N,In8*%
X110744000Y-83058000D03*
%TD*%
%TO.P,R27,1*%
%TO.N,RST*%
X119697000Y-115062000D03*
%TO.P,R27,2*%
%TO.N,+3.3V*%
X118047000Y-115062000D03*
%TD*%
%TO.P,R23,1*%
%TO.N,+3.3V*%
X112839000Y-70612000D03*
%TO.P,R23,2*%
%TO.N,In11*%
X111189000Y-70612000D03*
%TD*%
%TO.P,R7,1*%
%TO.N,+3.3V*%
X112394000Y-122428000D03*
%TO.P,R7,2*%
%TO.N,Out7*%
X110744000Y-122428000D03*
%TD*%
D14*
%TO.P,R1,1*%
%TO.N,+3.3V*%
X97473000Y-122428000D03*
%TO.P,R1,2*%
%TO.N,Out1*%
X99123000Y-122428000D03*
%TD*%
%TO.P,R5,1*%
%TO.N,+3.3V*%
X97473000Y-104775000D03*
%TO.P,R5,2*%
%TO.N,Out5*%
X99123000Y-104775000D03*
%TD*%
D15*
%TO.P,R24,1*%
%TO.N,+3.3V*%
X112839000Y-66548000D03*
%TO.P,R24,2*%
%TO.N,In12*%
X111189000Y-66548000D03*
%TD*%
D14*
%TO.P,R17,1*%
%TO.N,+3.3V*%
X98552000Y-70358000D03*
%TO.P,R17,2*%
%TO.N,In5*%
X100202000Y-70358000D03*
%TD*%
%TO.P,R15,1*%
%TO.N,+3.3V*%
X98426000Y-79502000D03*
%TO.P,R15,2*%
%TO.N,In3*%
X100076000Y-79502000D03*
%TD*%
D15*
%TO.P,R12,1*%
%TO.N,+3.3V*%
X112648000Y-101600000D03*
%TO.P,R12,2*%
%TO.N,Out12*%
X110998000Y-101600000D03*
%TD*%
%TO.P,R11,1*%
%TO.N,+3.3V*%
X112585000Y-105664000D03*
%TO.P,R11,2*%
%TO.N,Out11*%
X110935000Y-105664000D03*
%TD*%
%TO.P,R21,1*%
%TO.N,+3.3V*%
X112585000Y-78994000D03*
%TO.P,R21,2*%
%TO.N,In9*%
X110935000Y-78994000D03*
%TD*%
D14*
%TO.P,R3,1*%
%TO.N,+3.3V*%
X97473000Y-114300000D03*
%TO.P,R3,2*%
%TO.N,Out3*%
X99123000Y-114300000D03*
%TD*%
%TO.P,R4,1*%
%TO.N,+3.3V*%
X97473000Y-110363000D03*
%TO.P,R4,2*%
%TO.N,Out4*%
X99123000Y-110363000D03*
%TD*%
D15*
%TO.P,R22,1*%
%TO.N,+3.3V*%
X112648000Y-74676000D03*
%TO.P,R22,2*%
%TO.N,In10*%
X110998000Y-74676000D03*
%TD*%
D14*
%TO.P,R6,1*%
%TO.N,+3.3V*%
X97473000Y-101600000D03*
%TO.P,R6,2*%
%TO.N,Out6*%
X99123000Y-101600000D03*
%TD*%
%TO.P,R18,1*%
%TO.N,+3.3V*%
X98489000Y-66040000D03*
%TO.P,R18,2*%
%TO.N,In6*%
X100139000Y-66040000D03*
%TD*%
D15*
%TO.P,R19,1*%
%TO.N,+3.3V*%
X112585000Y-87376000D03*
%TO.P,R19,2*%
%TO.N,In7*%
X110935000Y-87376000D03*
%TD*%
%TO.P,R10,1*%
%TO.N,+3.3V*%
X112585000Y-109982000D03*
%TO.P,R10,2*%
%TO.N,Out10*%
X110935000Y-109982000D03*
%TD*%
%TO.P,R9,1*%
%TO.N,+3.3V*%
X112331000Y-114046000D03*
%TO.P,R9,2*%
%TO.N,Out9*%
X110681000Y-114046000D03*
%TD*%
%TO.P,R8,1*%
%TO.N,+3.3V*%
X112331000Y-118364000D03*
%TO.P,R8,2*%
%TO.N,Out8*%
X110681000Y-118364000D03*
%TD*%
D14*
%TO.P,R2,1*%
%TO.N,+3.3V*%
X97473000Y-118110000D03*
%TO.P,R2,2*%
%TO.N,Out2*%
X99123000Y-118110000D03*
%TD*%
%TO.P,R16,1*%
%TO.N,+3.3V*%
X98489000Y-74676000D03*
%TO.P,R16,2*%
%TO.N,In4*%
X100139000Y-74676000D03*
%TD*%
D16*
%TO.N,+3.3V*%
X122024669Y-112880669D03*
X118110000Y-108458000D03*
%TO.N,RST*%
X122936000Y-114554000D03*
%TO.N,TMS*%
X122012000Y-109982000D03*
%TO.N,TCK*%
X122012000Y-110806266D03*
%TO.N,TDO*%
X122936000Y-108966000D03*
%TO.N,TDI *%
X122069394Y-108008994D03*
%TD*%
D17*
%TO.N,+3.3V*%
X118110000Y-108584000D02*
X118047000Y-108521000D01*
X120228331Y-112880669D02*
X118047000Y-115062000D01*
X118047000Y-115062000D02*
X118110000Y-114999000D01*
D18*
X118047000Y-108521000D02*
X118110000Y-108458000D01*
D17*
X122024669Y-112880669D02*
X120228331Y-112880669D01*
D18*
X95227499Y-58992000D02*
X95418499Y-58801000D01*
D17*
X118110000Y-114999000D02*
X118110000Y-108584000D01*
%TO.N,Out11*%
X108347498Y-105637002D02*
X110908002Y-105637002D01*
D18*
X110908002Y-105637002D02*
X110935000Y-105664000D01*
D17*
%TO.N,In7*%
X110935000Y-87376000D02*
X108257001Y-87376000D01*
D18*
X108257001Y-87376000D02*
X108215998Y-87334997D01*
%TO.N,In6*%
X100434001Y-66335001D02*
X100139000Y-66040000D01*
D17*
X102715999Y-66335001D02*
X100434001Y-66335001D01*
%TO.N,In5*%
X102715999Y-70535000D02*
X100379000Y-70535000D01*
D18*
X100379000Y-70535000D02*
X100202000Y-70358000D01*
D17*
%TO.N,In4*%
X102715999Y-74734999D02*
X100197999Y-74734999D01*
D18*
X100197999Y-74734999D02*
X100139000Y-74676000D01*
%TO.N,In3*%
X102148998Y-79502000D02*
X102715999Y-78934999D01*
D17*
X100076000Y-79502000D02*
X102148998Y-79502000D01*
%TO.N,In2*%
X102715999Y-83134998D02*
X100215998Y-83134998D01*
D18*
X100215998Y-83134998D02*
X100139000Y-83058000D01*
%TO.N,In1*%
X100180003Y-87334997D02*
X100139000Y-87376000D01*
D17*
X102715999Y-87334997D02*
X100180003Y-87334997D01*
D18*
%TO.N,Out12*%
X110835003Y-101437003D02*
X110998000Y-101600000D01*
D17*
X108347498Y-101437003D02*
X110835003Y-101437003D01*
%TO.N,Out1*%
X99123000Y-122428000D02*
X102838500Y-122428000D01*
D18*
X102838500Y-122428000D02*
X102847499Y-122436999D01*
%TO.N,Out2*%
X102720499Y-118110000D02*
X102847499Y-118237000D01*
X102339499Y-118237000D02*
X102847499Y-118237000D01*
D17*
X99123000Y-118110000D02*
X102720499Y-118110000D01*
D18*
%TO.N,Out3*%
X102584500Y-114300000D02*
X102847499Y-114037001D01*
D17*
X99123000Y-114300000D02*
X102584500Y-114300000D01*
D18*
%TO.N,Out4*%
X102321500Y-110363000D02*
X102847499Y-109837001D01*
D17*
X99123000Y-110363000D02*
X102321500Y-110363000D01*
%TO.N,Out5*%
X99123000Y-104775000D02*
X101985497Y-104775000D01*
D18*
X101985497Y-104775000D02*
X102847499Y-105637002D01*
D17*
%TO.N,Out6*%
X102847499Y-101437003D02*
X99285997Y-101437003D01*
D18*
X99285997Y-101437003D02*
X99123000Y-101600000D01*
%TO.N,Out7*%
X108356497Y-122428000D02*
X108347498Y-122436999D01*
D17*
X110744000Y-122428000D02*
X108356497Y-122428000D01*
%TO.N,Out8*%
X108347498Y-118237000D02*
X110554000Y-118237000D01*
D18*
X110554000Y-118237000D02*
X110681000Y-118364000D01*
%TO.N,Out9*%
X110672001Y-114037001D02*
X110681000Y-114046000D01*
D17*
X108347498Y-114037001D02*
X110672001Y-114037001D01*
D18*
%TO.N,Out10*%
X110790001Y-109837001D02*
X110935000Y-109982000D01*
D17*
X108347498Y-109837001D02*
X110790001Y-109837001D01*
%TO.N,In8*%
X110744000Y-83058000D02*
X108292996Y-83058000D01*
D18*
X108292996Y-83058000D02*
X108215998Y-83134998D01*
D17*
%TO.N,In9*%
X110935000Y-78994000D02*
X108274999Y-78994000D01*
D18*
X108274999Y-78994000D02*
X108215998Y-78934999D01*
D17*
%TO.N,In10*%
X110998000Y-74676000D02*
X108274997Y-74676000D01*
D18*
X108274997Y-74676000D02*
X108215998Y-74734999D01*
D17*
%TO.N,In11*%
X108215998Y-70535000D02*
X111112000Y-70535000D01*
D18*
X111112000Y-70535000D02*
X111189000Y-70612000D01*
%TO.N,In12*%
X110976001Y-66335001D02*
X111189000Y-66548000D01*
D17*
X108215998Y-66335001D02*
X110976001Y-66335001D01*
%TO.N,RST*%
X122936000Y-114554000D02*
X120205000Y-114554000D01*
X120205000Y-114554000D02*
X138684000Y-114554000D01*
X119634000Y-115125000D02*
X119697000Y-115062000D01*
X119634000Y-115125000D02*
X120205000Y-114554000D01*
D18*
%TO.N,TMS*%
X138184001Y-109973999D02*
X138684000Y-109474000D01*
X122020001Y-109973999D02*
X138184001Y-109973999D01*
X122012000Y-109982000D02*
X122020001Y-109973999D01*
%TO.N,TCK*%
X122012000Y-110806266D02*
X122074266Y-110744000D01*
X122074266Y-110744000D02*
X138684000Y-110744000D01*
%TO.N,TDO*%
X121412000Y-111506000D02*
X136652000Y-111506000D01*
X121412000Y-108966000D02*
X121412000Y-111506000D01*
X138430000Y-113284000D02*
X138684000Y-113284000D01*
X136652000Y-111506000D02*
X138430000Y-113284000D01*
X122936000Y-108966000D02*
X121412000Y-108966000D01*
%TO.N,TDI *%
X138684000Y-108204000D02*
X122264400Y-108204000D01*
X122264400Y-108204000D02*
X122069394Y-108008994D01*
%TD*%
%TA.AperFunction,Conductor*%
%TO.N,+3.3V*%
G36*
X141918539Y-57019685D02*
G01*
X141964294Y-57072489D01*
X141975500Y-57124000D01*
X141975500Y-129876000D01*
X141955815Y-129943039D01*
X141903011Y-129988794D01*
X141851500Y-130000000D01*
X87124000Y-130000000D01*
X87056961Y-129980315D01*
X87011206Y-129927511D01*
X87000000Y-129876000D01*
X87000000Y-122678000D01*
X96573001Y-122678000D01*
X96573001Y-122759582D01*
X96579408Y-122830102D01*
X96579409Y-122830107D01*
X96629981Y-122992396D01*
X96717927Y-123137877D01*
X96838122Y-123258072D01*
X96983604Y-123346019D01*
X96983603Y-123346019D01*
X97145894Y-123396590D01*
X97145893Y-123396590D01*
X97216408Y-123402998D01*
X97216426Y-123402999D01*
X97723000Y-123402999D01*
X97729581Y-123402999D01*
X97800102Y-123396591D01*
X97800107Y-123396590D01*
X97962396Y-123346018D01*
X98107877Y-123258072D01*
X98228072Y-123137877D01*
X98316017Y-122992398D01*
X98341135Y-122911792D01*
X98379872Y-122853644D01*
X98443897Y-122825669D01*
X98512883Y-122836750D01*
X98564926Y-122883368D01*
X98570001Y-122892377D01*
X98594950Y-122941342D01*
X98594952Y-122941344D01*
X98594954Y-122941347D01*
X98684652Y-123031045D01*
X98684654Y-123031046D01*
X98684658Y-123031050D01*
X98797694Y-123088645D01*
X98797698Y-123088647D01*
X98891475Y-123103499D01*
X98891481Y-123103500D01*
X99354518Y-123103499D01*
X99448304Y-123088646D01*
X99561342Y-123031050D01*
X99599997Y-122992395D01*
X99651050Y-122941343D01*
X99656786Y-122933448D01*
X99659059Y-122935100D01*
X99696546Y-122895409D01*
X99759057Y-122878500D01*
X101372999Y-122878500D01*
X101440038Y-122898185D01*
X101485793Y-122950989D01*
X101496999Y-123002500D01*
X101496999Y-123606751D01*
X101508630Y-123665228D01*
X101508631Y-123665229D01*
X101552946Y-123731551D01*
X101619268Y-123775866D01*
X101619269Y-123775867D01*
X101677746Y-123787498D01*
X101677749Y-123787499D01*
X101677751Y-123787499D01*
X104017249Y-123787499D01*
X104017250Y-123787498D01*
X104032067Y-123784551D01*
X104075728Y-123775867D01*
X104075728Y-123775866D01*
X104075730Y-123775866D01*
X104142051Y-123731551D01*
X104186366Y-123665230D01*
X104186366Y-123665228D01*
X104186367Y-123665228D01*
X104197998Y-123606751D01*
X104197999Y-123606749D01*
X104197999Y-122436999D01*
X106991839Y-122436999D01*
X107012434Y-122672402D01*
X107012436Y-122672412D01*
X107073592Y-122900654D01*
X107073594Y-122900658D01*
X107073595Y-122900662D01*
X107121083Y-123002500D01*
X107173463Y-123114829D01*
X107173465Y-123114833D01*
X107189601Y-123137877D01*
X107309003Y-123308400D01*
X107476097Y-123475494D01*
X107572882Y-123543264D01*
X107669663Y-123611031D01*
X107669665Y-123611032D01*
X107669668Y-123611034D01*
X107883835Y-123710902D01*
X108112090Y-123772062D01*
X108288532Y-123787499D01*
X108347497Y-123792658D01*
X108347498Y-123792658D01*
X108347499Y-123792658D01*
X108406464Y-123787499D01*
X108582906Y-123772062D01*
X108811161Y-123710902D01*
X109025328Y-123611034D01*
X109218899Y-123475494D01*
X109385993Y-123308400D01*
X109521533Y-123114829D01*
X109598350Y-122950095D01*
X109644522Y-122897656D01*
X109710732Y-122878500D01*
X110107943Y-122878500D01*
X110174982Y-122898185D01*
X110208206Y-122934906D01*
X110210214Y-122933448D01*
X110215950Y-122941343D01*
X110305652Y-123031045D01*
X110305654Y-123031046D01*
X110305658Y-123031050D01*
X110418694Y-123088645D01*
X110418698Y-123088647D01*
X110512475Y-123103499D01*
X110512481Y-123103500D01*
X110975518Y-123103499D01*
X111069304Y-123088646D01*
X111182342Y-123031050D01*
X111272050Y-122941342D01*
X111296995Y-122892384D01*
X111344967Y-122841591D01*
X111412788Y-122824796D01*
X111478923Y-122847333D01*
X111522375Y-122902048D01*
X111525863Y-122911791D01*
X111550981Y-122992396D01*
X111638927Y-123137877D01*
X111759122Y-123258072D01*
X111904604Y-123346019D01*
X111904603Y-123346019D01*
X112066894Y-123396590D01*
X112066893Y-123396590D01*
X112137408Y-123402998D01*
X112137426Y-123402999D01*
X112143999Y-123402998D01*
X112144000Y-123402998D01*
X112144000Y-122678000D01*
X112644000Y-122678000D01*
X112644000Y-123402999D01*
X112650581Y-123402999D01*
X112721102Y-123396591D01*
X112721107Y-123396590D01*
X112883396Y-123346018D01*
X113028877Y-123258072D01*
X113149072Y-123137877D01*
X113237019Y-122992395D01*
X113287590Y-122830106D01*
X113294000Y-122759572D01*
X113294000Y-122678000D01*
X112644000Y-122678000D01*
X112144000Y-122678000D01*
X112144000Y-121453000D01*
X112644000Y-121453000D01*
X112644000Y-122178000D01*
X113293999Y-122178000D01*
X113293999Y-122096417D01*
X113287591Y-122025897D01*
X113287590Y-122025892D01*
X113237018Y-121863603D01*
X113149072Y-121718122D01*
X113028877Y-121597927D01*
X112883395Y-121509980D01*
X112883396Y-121509980D01*
X112721105Y-121459409D01*
X112721106Y-121459409D01*
X112650572Y-121453000D01*
X112644000Y-121453000D01*
X112144000Y-121453000D01*
X112143999Y-121452999D01*
X112137436Y-121453000D01*
X112137417Y-121453001D01*
X112066897Y-121459408D01*
X112066892Y-121459409D01*
X111904603Y-121509981D01*
X111759122Y-121597927D01*
X111638927Y-121718122D01*
X111550981Y-121863603D01*
X111525863Y-121944209D01*
X111487125Y-122002356D01*
X111423100Y-122030330D01*
X111354115Y-122019248D01*
X111302072Y-121972629D01*
X111296994Y-121963614D01*
X111272050Y-121914658D01*
X111272048Y-121914656D01*
X111272045Y-121914652D01*
X111182347Y-121824954D01*
X111182344Y-121824952D01*
X111182342Y-121824950D01*
X111105517Y-121785805D01*
X111069301Y-121767352D01*
X110975524Y-121752500D01*
X110512482Y-121752500D01*
X110431519Y-121765323D01*
X110418696Y-121767354D01*
X110305658Y-121824950D01*
X110305657Y-121824951D01*
X110305652Y-121824954D01*
X110215950Y-121914657D01*
X110210214Y-121922552D01*
X110207940Y-121920899D01*
X110170454Y-121960591D01*
X110107943Y-121977500D01*
X109702339Y-121977500D01*
X109635300Y-121957815D01*
X109589957Y-121905905D01*
X109521533Y-121759170D01*
X109521532Y-121759168D01*
X109385992Y-121565596D01*
X109218900Y-121398505D01*
X109218893Y-121398500D01*
X109025332Y-121262966D01*
X109025328Y-121262964D01*
X109025326Y-121262963D01*
X108811161Y-121163096D01*
X108811157Y-121163095D01*
X108811153Y-121163093D01*
X108582911Y-121101937D01*
X108582901Y-121101935D01*
X108347499Y-121081340D01*
X108347497Y-121081340D01*
X108112094Y-121101935D01*
X108112084Y-121101937D01*
X107883842Y-121163093D01*
X107883833Y-121163097D01*
X107669669Y-121262963D01*
X107669667Y-121262964D01*
X107476095Y-121398504D01*
X107309003Y-121565596D01*
X107173463Y-121759168D01*
X107173462Y-121759170D01*
X107073596Y-121973334D01*
X107073592Y-121973343D01*
X107012436Y-122201585D01*
X107012434Y-122201595D01*
X106991839Y-122436998D01*
X106991839Y-122436999D01*
X104197999Y-122436999D01*
X104197999Y-121267248D01*
X104197998Y-121267246D01*
X104186367Y-121208769D01*
X104186366Y-121208768D01*
X104142051Y-121142446D01*
X104075729Y-121098131D01*
X104075728Y-121098130D01*
X104017251Y-121086499D01*
X104017247Y-121086499D01*
X101677751Y-121086499D01*
X101677746Y-121086499D01*
X101619269Y-121098130D01*
X101619268Y-121098131D01*
X101552946Y-121142446D01*
X101508631Y-121208768D01*
X101508630Y-121208769D01*
X101496999Y-121267246D01*
X101496999Y-121853500D01*
X101477314Y-121920539D01*
X101424510Y-121966294D01*
X101372999Y-121977500D01*
X99759057Y-121977500D01*
X99692018Y-121957815D01*
X99658793Y-121921093D01*
X99656786Y-121922552D01*
X99651050Y-121914657D01*
X99561347Y-121824954D01*
X99561344Y-121824952D01*
X99561342Y-121824950D01*
X99484517Y-121785805D01*
X99448301Y-121767352D01*
X99354524Y-121752500D01*
X98891482Y-121752500D01*
X98810519Y-121765323D01*
X98797696Y-121767354D01*
X98684658Y-121824950D01*
X98684657Y-121824951D01*
X98684652Y-121824954D01*
X98594954Y-121914652D01*
X98594950Y-121914657D01*
X98570005Y-121963614D01*
X98522029Y-122014409D01*
X98454208Y-122031203D01*
X98388074Y-122008664D01*
X98344623Y-121953948D01*
X98341135Y-121944207D01*
X98316017Y-121863600D01*
X98228072Y-121718122D01*
X98107877Y-121597927D01*
X97962395Y-121509980D01*
X97962396Y-121509980D01*
X97800105Y-121459409D01*
X97800106Y-121459409D01*
X97729572Y-121453000D01*
X97723000Y-121453000D01*
X97723000Y-123402999D01*
X97216426Y-123402999D01*
X97222999Y-123402998D01*
X97223000Y-123402998D01*
X97223000Y-122678000D01*
X96573001Y-122678000D01*
X87000000Y-122678000D01*
X87000000Y-122178000D01*
X96573000Y-122178000D01*
X97223000Y-122178000D01*
X97223000Y-121453000D01*
X97222999Y-121452999D01*
X97216436Y-121453000D01*
X97216417Y-121453001D01*
X97145897Y-121459408D01*
X97145892Y-121459409D01*
X96983603Y-121509981D01*
X96838122Y-121597927D01*
X96717927Y-121718122D01*
X96629980Y-121863604D01*
X96579409Y-122025893D01*
X96573000Y-122096427D01*
X96573000Y-122178000D01*
X87000000Y-122178000D01*
X87000000Y-118360000D01*
X96573001Y-118360000D01*
X96573001Y-118441582D01*
X96579408Y-118512102D01*
X96579409Y-118512107D01*
X96629981Y-118674396D01*
X96717927Y-118819877D01*
X96838122Y-118940072D01*
X96983604Y-119028019D01*
X96983603Y-119028019D01*
X97145894Y-119078590D01*
X97145893Y-119078590D01*
X97216408Y-119084998D01*
X97216426Y-119084999D01*
X97723000Y-119084999D01*
X97729581Y-119084999D01*
X97800102Y-119078591D01*
X97800107Y-119078590D01*
X97962396Y-119028018D01*
X98107877Y-118940072D01*
X98228072Y-118819877D01*
X98316017Y-118674398D01*
X98341135Y-118593792D01*
X98379872Y-118535644D01*
X98443897Y-118507669D01*
X98512883Y-118518750D01*
X98564926Y-118565368D01*
X98570001Y-118574377D01*
X98594950Y-118623342D01*
X98594952Y-118623344D01*
X98594954Y-118623347D01*
X98684652Y-118713045D01*
X98684654Y-118713046D01*
X98684658Y-118713050D01*
X98788786Y-118766106D01*
X98797698Y-118770647D01*
X98891475Y-118785499D01*
X98891481Y-118785500D01*
X99354518Y-118785499D01*
X99448304Y-118770646D01*
X99561342Y-118713050D01*
X99603873Y-118670519D01*
X99651050Y-118623343D01*
X99656786Y-118615448D01*
X99659059Y-118617100D01*
X99696546Y-118577409D01*
X99759057Y-118560500D01*
X101440891Y-118560500D01*
X101507930Y-118580185D01*
X101553685Y-118632989D01*
X101560666Y-118652408D01*
X101573592Y-118700653D01*
X101573595Y-118700660D01*
X101573596Y-118700663D01*
X101655985Y-118877347D01*
X101673464Y-118914830D01*
X101673466Y-118914834D01*
X101750357Y-119024645D01*
X101809004Y-119108401D01*
X101976098Y-119275495D01*
X102066790Y-119338998D01*
X102169664Y-119411032D01*
X102169666Y-119411033D01*
X102169669Y-119411035D01*
X102383836Y-119510903D01*
X102612091Y-119572063D01*
X102800417Y-119588539D01*
X102847498Y-119592659D01*
X102847499Y-119592659D01*
X102847500Y-119592659D01*
X102886733Y-119589226D01*
X103082907Y-119572063D01*
X103311162Y-119510903D01*
X103525329Y-119411035D01*
X103718900Y-119275495D01*
X103885994Y-119108401D01*
X104021534Y-118914830D01*
X104121402Y-118700663D01*
X104182562Y-118472408D01*
X104203158Y-118237000D01*
X106991839Y-118237000D01*
X107012434Y-118472403D01*
X107012436Y-118472413D01*
X107073592Y-118700655D01*
X107073594Y-118700659D01*
X107073595Y-118700663D01*
X107155984Y-118877347D01*
X107173463Y-118914830D01*
X107173465Y-118914834D01*
X107250356Y-119024645D01*
X107309003Y-119108401D01*
X107476097Y-119275495D01*
X107566789Y-119338998D01*
X107669663Y-119411032D01*
X107669665Y-119411033D01*
X107669668Y-119411035D01*
X107883835Y-119510903D01*
X108112090Y-119572063D01*
X108300416Y-119588539D01*
X108347497Y-119592659D01*
X108347498Y-119592659D01*
X108347499Y-119592659D01*
X108386732Y-119589226D01*
X108582906Y-119572063D01*
X108811161Y-119510903D01*
X109025328Y-119411035D01*
X109218899Y-119275495D01*
X109385993Y-119108401D01*
X109521533Y-118914830D01*
X109594154Y-118759093D01*
X109640325Y-118706656D01*
X109706535Y-118687500D01*
X109980308Y-118687500D01*
X110047347Y-118707185D01*
X110089801Y-118756179D01*
X110090924Y-118755608D01*
X110095353Y-118764301D01*
X110095354Y-118764304D01*
X110152950Y-118877342D01*
X110152952Y-118877344D01*
X110152954Y-118877347D01*
X110242652Y-118967045D01*
X110242654Y-118967046D01*
X110242658Y-118967050D01*
X110355694Y-119024645D01*
X110355698Y-119024647D01*
X110449475Y-119039499D01*
X110449481Y-119039500D01*
X110912518Y-119039499D01*
X111006304Y-119024646D01*
X111119342Y-118967050D01*
X111209050Y-118877342D01*
X111233995Y-118828384D01*
X111281967Y-118777591D01*
X111349788Y-118760796D01*
X111415923Y-118783333D01*
X111459375Y-118838048D01*
X111462863Y-118847791D01*
X111487981Y-118928396D01*
X111575927Y-119073877D01*
X111696122Y-119194072D01*
X111841604Y-119282019D01*
X111841603Y-119282019D01*
X112003894Y-119332590D01*
X112003893Y-119332590D01*
X112074408Y-119338998D01*
X112074426Y-119338999D01*
X112080999Y-119338998D01*
X112081000Y-119338998D01*
X112081000Y-118614000D01*
X112581000Y-118614000D01*
X112581000Y-119338999D01*
X112587581Y-119338999D01*
X112658102Y-119332591D01*
X112658107Y-119332590D01*
X112820396Y-119282018D01*
X112965877Y-119194072D01*
X113086072Y-119073877D01*
X113174019Y-118928395D01*
X113224590Y-118766106D01*
X113231000Y-118695569D01*
X113231000Y-118614000D01*
X112581000Y-118614000D01*
X112081000Y-118614000D01*
X112081000Y-117389000D01*
X112581000Y-117389000D01*
X112581000Y-118114000D01*
X113230999Y-118114000D01*
X113230999Y-118032417D01*
X113224591Y-117961897D01*
X113224590Y-117961892D01*
X113174018Y-117799603D01*
X113086072Y-117654122D01*
X112965877Y-117533927D01*
X112820395Y-117445980D01*
X112820396Y-117445980D01*
X112658105Y-117395409D01*
X112658106Y-117395409D01*
X112587572Y-117389000D01*
X112581000Y-117389000D01*
X112081000Y-117389000D01*
X112080999Y-117388999D01*
X112074436Y-117389000D01*
X112074417Y-117389001D01*
X112003897Y-117395408D01*
X112003892Y-117395409D01*
X111841603Y-117445981D01*
X111696122Y-117533927D01*
X111575927Y-117654122D01*
X111487981Y-117799603D01*
X111462863Y-117880209D01*
X111424125Y-117938356D01*
X111360100Y-117966330D01*
X111291115Y-117955248D01*
X111239072Y-117908629D01*
X111234002Y-117899630D01*
X111209050Y-117850658D01*
X111209048Y-117850656D01*
X111209045Y-117850652D01*
X111119347Y-117760954D01*
X111119344Y-117760952D01*
X111119342Y-117760950D01*
X111018751Y-117709696D01*
X111006301Y-117703352D01*
X110912524Y-117688500D01*
X110449482Y-117688500D01*
X110368519Y-117701323D01*
X110355696Y-117703354D01*
X110242658Y-117760950D01*
X110242657Y-117760950D01*
X110242653Y-117760953D01*
X110240082Y-117762821D01*
X110236430Y-117764123D01*
X110233963Y-117765381D01*
X110233800Y-117765061D01*
X110174274Y-117786298D01*
X110167201Y-117786500D01*
X109706535Y-117786500D01*
X109639496Y-117766815D01*
X109594154Y-117714906D01*
X109521533Y-117559171D01*
X109518630Y-117555024D01*
X109385992Y-117365597D01*
X109218900Y-117198506D01*
X109218893Y-117198501D01*
X109025332Y-117062967D01*
X109025328Y-117062965D01*
X109025326Y-117062964D01*
X108811161Y-116963097D01*
X108811157Y-116963096D01*
X108811153Y-116963094D01*
X108582911Y-116901938D01*
X108582901Y-116901936D01*
X108347499Y-116881341D01*
X108347497Y-116881341D01*
X108112094Y-116901936D01*
X108112084Y-116901938D01*
X107883842Y-116963094D01*
X107883833Y-116963098D01*
X107669669Y-117062964D01*
X107669667Y-117062965D01*
X107476095Y-117198505D01*
X107309003Y-117365597D01*
X107173463Y-117559169D01*
X107173462Y-117559171D01*
X107073596Y-117773335D01*
X107073592Y-117773344D01*
X107012436Y-118001586D01*
X107012434Y-118001596D01*
X106991839Y-118236999D01*
X106991839Y-118237000D01*
X104203158Y-118237000D01*
X104182562Y-118001592D01*
X104121402Y-117773337D01*
X104021534Y-117559171D01*
X104018631Y-117555024D01*
X103885993Y-117365597D01*
X103718901Y-117198506D01*
X103718894Y-117198501D01*
X103525333Y-117062967D01*
X103525329Y-117062965D01*
X103525327Y-117062964D01*
X103311162Y-116963097D01*
X103311158Y-116963096D01*
X103311154Y-116963094D01*
X103082912Y-116901938D01*
X103082902Y-116901936D01*
X102847500Y-116881341D01*
X102847498Y-116881341D01*
X102612095Y-116901936D01*
X102612085Y-116901938D01*
X102383843Y-116963094D01*
X102383834Y-116963098D01*
X102169670Y-117062964D01*
X102169668Y-117062965D01*
X101976096Y-117198505D01*
X101809004Y-117365597D01*
X101673464Y-117559169D01*
X101673463Y-117559171D01*
X101660065Y-117587905D01*
X101613893Y-117640344D01*
X101547683Y-117659500D01*
X99759057Y-117659500D01*
X99692018Y-117639815D01*
X99658793Y-117603093D01*
X99656786Y-117604552D01*
X99651050Y-117596657D01*
X99561347Y-117506954D01*
X99561344Y-117506952D01*
X99561342Y-117506950D01*
X99484517Y-117467805D01*
X99448301Y-117449352D01*
X99354524Y-117434500D01*
X98891482Y-117434500D01*
X98810519Y-117447323D01*
X98797696Y-117449354D01*
X98684658Y-117506950D01*
X98684657Y-117506951D01*
X98684652Y-117506954D01*
X98594954Y-117596652D01*
X98594950Y-117596657D01*
X98570005Y-117645614D01*
X98522029Y-117696409D01*
X98454208Y-117713203D01*
X98388074Y-117690664D01*
X98344623Y-117635948D01*
X98341135Y-117626207D01*
X98316017Y-117545600D01*
X98228072Y-117400122D01*
X98107877Y-117279927D01*
X97962395Y-117191980D01*
X97962396Y-117191980D01*
X97800105Y-117141409D01*
X97800106Y-117141409D01*
X97729572Y-117135000D01*
X97723000Y-117135000D01*
X97723000Y-119084999D01*
X97216426Y-119084999D01*
X97222999Y-119084998D01*
X97223000Y-119084998D01*
X97223000Y-118360000D01*
X96573001Y-118360000D01*
X87000000Y-118360000D01*
X87000000Y-117860000D01*
X96573000Y-117860000D01*
X97223000Y-117860000D01*
X97223000Y-117135000D01*
X97222999Y-117134999D01*
X97216436Y-117135000D01*
X97216417Y-117135001D01*
X97145897Y-117141408D01*
X97145892Y-117141409D01*
X96983603Y-117191981D01*
X96838122Y-117279927D01*
X96717927Y-117400122D01*
X96629980Y-117545604D01*
X96579409Y-117707893D01*
X96573000Y-117778427D01*
X96573000Y-117860000D01*
X87000000Y-117860000D01*
X87000000Y-114550000D01*
X96573001Y-114550000D01*
X96573001Y-114631582D01*
X96579408Y-114702102D01*
X96579409Y-114702107D01*
X96629981Y-114864396D01*
X96717927Y-115009877D01*
X96838122Y-115130072D01*
X96983604Y-115218019D01*
X96983603Y-115218019D01*
X97145894Y-115268590D01*
X97145893Y-115268590D01*
X97216408Y-115274998D01*
X97216426Y-115274999D01*
X97723000Y-115274999D01*
X97729581Y-115274999D01*
X97800102Y-115268591D01*
X97800107Y-115268590D01*
X97962396Y-115218018D01*
X98107877Y-115130072D01*
X98228072Y-115009877D01*
X98316017Y-114864398D01*
X98341135Y-114783792D01*
X98379872Y-114725644D01*
X98443897Y-114697669D01*
X98512883Y-114708750D01*
X98564926Y-114755368D01*
X98570001Y-114764377D01*
X98594950Y-114813342D01*
X98594952Y-114813344D01*
X98594954Y-114813347D01*
X98684652Y-114903045D01*
X98684654Y-114903046D01*
X98684658Y-114903050D01*
X98797694Y-114960645D01*
X98797698Y-114960647D01*
X98891475Y-114975499D01*
X98891481Y-114975500D01*
X99354518Y-114975499D01*
X99448304Y-114960646D01*
X99561342Y-114903050D01*
X99599996Y-114864396D01*
X99651050Y-114813343D01*
X99656786Y-114805448D01*
X99659059Y-114807100D01*
X99696546Y-114767409D01*
X99759057Y-114750500D01*
X101633890Y-114750500D01*
X101700929Y-114770185D01*
X101735465Y-114803377D01*
X101809004Y-114908403D01*
X101895075Y-114994473D01*
X101976098Y-115075496D01*
X102054041Y-115130072D01*
X102169664Y-115211033D01*
X102169666Y-115211034D01*
X102169669Y-115211036D01*
X102383836Y-115310904D01*
X102612091Y-115372064D01*
X102800417Y-115388540D01*
X102847498Y-115392660D01*
X102847499Y-115392660D01*
X102847500Y-115392660D01*
X102886733Y-115389227D01*
X103082907Y-115372064D01*
X103311162Y-115310904D01*
X103525329Y-115211036D01*
X103718900Y-115075496D01*
X103885994Y-114908402D01*
X104021534Y-114714831D01*
X104121402Y-114500664D01*
X104182562Y-114272409D01*
X104203158Y-114037001D01*
X106991839Y-114037001D01*
X107012434Y-114272404D01*
X107012436Y-114272414D01*
X107073592Y-114500656D01*
X107073594Y-114500660D01*
X107073595Y-114500664D01*
X107142788Y-114649048D01*
X107173463Y-114714831D01*
X107173465Y-114714835D01*
X107271667Y-114855081D01*
X107309003Y-114908402D01*
X107476097Y-115075496D01*
X107554040Y-115130072D01*
X107669663Y-115211033D01*
X107669665Y-115211034D01*
X107669668Y-115211036D01*
X107883835Y-115310904D01*
X108112090Y-115372064D01*
X108300416Y-115388540D01*
X108347497Y-115392660D01*
X108347498Y-115392660D01*
X108347499Y-115392660D01*
X108386732Y-115389227D01*
X108582906Y-115372064D01*
X108807071Y-115312000D01*
X117147001Y-115312000D01*
X117147001Y-115393582D01*
X117153408Y-115464102D01*
X117153409Y-115464107D01*
X117203981Y-115626396D01*
X117291927Y-115771877D01*
X117412122Y-115892072D01*
X117557604Y-115980019D01*
X117557603Y-115980019D01*
X117719894Y-116030590D01*
X117719893Y-116030590D01*
X117790408Y-116036998D01*
X117790426Y-116036999D01*
X118297000Y-116036999D01*
X118303581Y-116036999D01*
X118374102Y-116030591D01*
X118374107Y-116030590D01*
X118536396Y-115980018D01*
X118681877Y-115892072D01*
X118802072Y-115771877D01*
X118890017Y-115626398D01*
X118915135Y-115545792D01*
X118953872Y-115487644D01*
X119017897Y-115459669D01*
X119086883Y-115470750D01*
X119138926Y-115517368D01*
X119144001Y-115526377D01*
X119168950Y-115575342D01*
X119168952Y-115575344D01*
X119168954Y-115575347D01*
X119258652Y-115665045D01*
X119258654Y-115665046D01*
X119258658Y-115665050D01*
X119371694Y-115722645D01*
X119371698Y-115722647D01*
X119465475Y-115737499D01*
X119465481Y-115737500D01*
X119928518Y-115737499D01*
X120022304Y-115722646D01*
X120135342Y-115665050D01*
X120225050Y-115575342D01*
X120282646Y-115462304D01*
X120282646Y-115462302D01*
X120282647Y-115462301D01*
X120295124Y-115383523D01*
X120297500Y-115368519D01*
X120297499Y-115149966D01*
X120317183Y-115082927D01*
X120333820Y-115062283D01*
X120355287Y-115040817D01*
X120416611Y-115007333D01*
X120442966Y-115004500D01*
X122678273Y-115004500D01*
X122717004Y-115012926D01*
X122717437Y-115011455D01*
X122864036Y-115054499D01*
X122864038Y-115054500D01*
X122864039Y-115054500D01*
X123007962Y-115054500D01*
X123007962Y-115054499D01*
X123072043Y-115035684D01*
X123154563Y-115011455D01*
X123154995Y-115012926D01*
X123193727Y-115004500D01*
X138089117Y-115004500D01*
X138156156Y-115024185D01*
X138171338Y-115035680D01*
X138239635Y-115096185D01*
X138276761Y-115155373D01*
X138275993Y-115225238D01*
X138239635Y-115281814D01*
X138155816Y-115356071D01*
X138059182Y-115496068D01*
X137998860Y-115655125D01*
X137998859Y-115655130D01*
X137978355Y-115824000D01*
X137998859Y-115992869D01*
X137998860Y-115992874D01*
X138059182Y-116151931D01*
X138155818Y-116291930D01*
X138239634Y-116366185D01*
X138276761Y-116425374D01*
X138275993Y-116495240D01*
X138239634Y-116551815D01*
X138155818Y-116626069D01*
X138059182Y-116766068D01*
X137998860Y-116925125D01*
X137998859Y-116925130D01*
X137978355Y-117094000D01*
X137998859Y-117262869D01*
X137998860Y-117262874D01*
X138059182Y-117421931D01*
X138115398Y-117503372D01*
X138155817Y-117561929D01*
X138244330Y-117640344D01*
X138283150Y-117674736D01*
X138433773Y-117753789D01*
X138433775Y-117753790D01*
X138598944Y-117794500D01*
X138769056Y-117794500D01*
X138934225Y-117753790D01*
X139018238Y-117709696D01*
X139084849Y-117674736D01*
X139084850Y-117674734D01*
X139084852Y-117674734D01*
X139212183Y-117561929D01*
X139216950Y-117555021D01*
X139271230Y-117511033D01*
X139340678Y-117503372D01*
X139403244Y-117534473D01*
X139421046Y-117555017D01*
X139425817Y-117561929D01*
X139514330Y-117640344D01*
X139553150Y-117674736D01*
X139703773Y-117753789D01*
X139703775Y-117753790D01*
X139868944Y-117794500D01*
X140039056Y-117794500D01*
X140204225Y-117753790D01*
X140288238Y-117709696D01*
X140354849Y-117674736D01*
X140354850Y-117674734D01*
X140354852Y-117674734D01*
X140482183Y-117561929D01*
X140578818Y-117421930D01*
X140639140Y-117262872D01*
X140659645Y-117094000D01*
X140639140Y-116925128D01*
X140578818Y-116766070D01*
X140482183Y-116626071D01*
X140398363Y-116551813D01*
X140361238Y-116492626D01*
X140362006Y-116422761D01*
X140398363Y-116366186D01*
X140482183Y-116291929D01*
X140578818Y-116151930D01*
X140639140Y-115992872D01*
X140659645Y-115824000D01*
X140639140Y-115655128D01*
X140578818Y-115496070D01*
X140556755Y-115464107D01*
X140544476Y-115446318D01*
X140482183Y-115356071D01*
X140398363Y-115281813D01*
X140361238Y-115222626D01*
X140362006Y-115152761D01*
X140398363Y-115096186D01*
X140482183Y-115021929D01*
X140578818Y-114881930D01*
X140639140Y-114722872D01*
X140659645Y-114554000D01*
X140639140Y-114385128D01*
X140636274Y-114377572D01*
X140581039Y-114231927D01*
X140578818Y-114226070D01*
X140482183Y-114086071D01*
X140398363Y-114011813D01*
X140361238Y-113952626D01*
X140362006Y-113882761D01*
X140398363Y-113826186D01*
X140482183Y-113751929D01*
X140578818Y-113611930D01*
X140639140Y-113452872D01*
X140659645Y-113284000D01*
X140639140Y-113115128D01*
X140578818Y-112956070D01*
X140482183Y-112816071D01*
X140398363Y-112741813D01*
X140361238Y-112682626D01*
X140362006Y-112612761D01*
X140398363Y-112556186D01*
X140482183Y-112481929D01*
X140578818Y-112341930D01*
X140639140Y-112182872D01*
X140659645Y-112014000D01*
X140639140Y-111845128D01*
X140625123Y-111808169D01*
X140589000Y-111712918D01*
X140578818Y-111686070D01*
X140482183Y-111546071D01*
X140398363Y-111471813D01*
X140361238Y-111412626D01*
X140362006Y-111342761D01*
X140398363Y-111286186D01*
X140482183Y-111211929D01*
X140578818Y-111071930D01*
X140639140Y-110912872D01*
X140659645Y-110744000D01*
X140639140Y-110575128D01*
X140578818Y-110416070D01*
X140553089Y-110378796D01*
X140542975Y-110364143D01*
X140482183Y-110276071D01*
X140398363Y-110201813D01*
X140361238Y-110142626D01*
X140362006Y-110072761D01*
X140398363Y-110016186D01*
X140482183Y-109941929D01*
X140578818Y-109801930D01*
X140639140Y-109642872D01*
X140659645Y-109474000D01*
X140639140Y-109305128D01*
X140578818Y-109146070D01*
X140552855Y-109108457D01*
X140544476Y-109096318D01*
X140482183Y-109006071D01*
X140398363Y-108931813D01*
X140361238Y-108872626D01*
X140362006Y-108802761D01*
X140398363Y-108746186D01*
X140482183Y-108671929D01*
X140578818Y-108531930D01*
X140639140Y-108372872D01*
X140659645Y-108204000D01*
X140639140Y-108035128D01*
X140578818Y-107876070D01*
X140560782Y-107849941D01*
X140544476Y-107826318D01*
X140482183Y-107736071D01*
X140398363Y-107661813D01*
X140361238Y-107602626D01*
X140362006Y-107532761D01*
X140398363Y-107476186D01*
X140482183Y-107401929D01*
X140578818Y-107261930D01*
X140639140Y-107102872D01*
X140659645Y-106934000D01*
X140639140Y-106765128D01*
X140578818Y-106606070D01*
X140482183Y-106466071D01*
X140398363Y-106391813D01*
X140361238Y-106332626D01*
X140362006Y-106262761D01*
X140398363Y-106206186D01*
X140482183Y-106131929D01*
X140578818Y-105991930D01*
X140639140Y-105832872D01*
X140659645Y-105664000D01*
X140639140Y-105495128D01*
X140578818Y-105336070D01*
X140576296Y-105332417D01*
X140540425Y-105280448D01*
X140482183Y-105196071D01*
X140354852Y-105083266D01*
X140354849Y-105083263D01*
X140204226Y-105004210D01*
X140039056Y-104963500D01*
X139868944Y-104963500D01*
X139868942Y-104963500D01*
X139768759Y-104988192D01*
X139698957Y-104985122D01*
X139641895Y-104944802D01*
X139630251Y-104927219D01*
X139627349Y-104921905D01*
X139541190Y-104806812D01*
X139541187Y-104806809D01*
X139426093Y-104720649D01*
X139426086Y-104720645D01*
X139291379Y-104670403D01*
X139291372Y-104670401D01*
X139231844Y-104664000D01*
X138934000Y-104664000D01*
X138934000Y-105456327D01*
X138896129Y-105411195D01*
X138796871Y-105353888D01*
X138712436Y-105339000D01*
X138655564Y-105339000D01*
X138571129Y-105353888D01*
X138471871Y-105411195D01*
X138398199Y-105498993D01*
X138359000Y-105606694D01*
X138359000Y-105721306D01*
X138398199Y-105829007D01*
X138469517Y-105914000D01*
X137684000Y-105914000D01*
X137684000Y-106211844D01*
X137690401Y-106271372D01*
X137690403Y-106271379D01*
X137740645Y-106406086D01*
X137740649Y-106406093D01*
X137826809Y-106521187D01*
X137826812Y-106521190D01*
X137941905Y-106607349D01*
X137943829Y-106608400D01*
X137945379Y-106609950D01*
X137949011Y-106612669D01*
X137948620Y-106613190D01*
X137993236Y-106657804D01*
X138008089Y-106726077D01*
X138000350Y-106761197D01*
X137998862Y-106765121D01*
X137998859Y-106765130D01*
X137978355Y-106934000D01*
X137998859Y-107102869D01*
X137998860Y-107102874D01*
X138059182Y-107261931D01*
X138155818Y-107401930D01*
X138239634Y-107476185D01*
X138276761Y-107535374D01*
X138275993Y-107605240D01*
X138239634Y-107661815D01*
X138155819Y-107736067D01*
X138077218Y-107849941D01*
X138022935Y-107893931D01*
X137975168Y-107903500D01*
X122651129Y-107903500D01*
X122584090Y-107883815D01*
X122538335Y-107831012D01*
X122521718Y-107794627D01*
X122494771Y-107735621D01*
X122400522Y-107626851D01*
X122279447Y-107549041D01*
X122279445Y-107549040D01*
X122279443Y-107549039D01*
X122279444Y-107549039D01*
X122141357Y-107508494D01*
X122141355Y-107508494D01*
X121997433Y-107508494D01*
X121997430Y-107508494D01*
X121859343Y-107549039D01*
X121738267Y-107626850D01*
X121644017Y-107735620D01*
X121644016Y-107735622D01*
X121584228Y-107866537D01*
X121563747Y-108008994D01*
X121584228Y-108151450D01*
X121644016Y-108282365D01*
X121644017Y-108282367D01*
X121738266Y-108391137D01*
X121809917Y-108437184D01*
X121855672Y-108489988D01*
X121865616Y-108559147D01*
X121836591Y-108622703D01*
X121777813Y-108660477D01*
X121742878Y-108665500D01*
X121471215Y-108665500D01*
X121449257Y-108662437D01*
X121440208Y-108661599D01*
X121440207Y-108661599D01*
X121403817Y-108664971D01*
X121392376Y-108665500D01*
X121384154Y-108665500D01*
X121376069Y-108667011D01*
X121364739Y-108668591D01*
X121328339Y-108671964D01*
X121319644Y-108674438D01*
X121310008Y-108677668D01*
X121301563Y-108680940D01*
X121270494Y-108700176D01*
X121260496Y-108705746D01*
X121227769Y-108722042D01*
X121220547Y-108727496D01*
X121212751Y-108733970D01*
X121206044Y-108740084D01*
X121184026Y-108769241D01*
X121176713Y-108778048D01*
X121152085Y-108805064D01*
X121147322Y-108812756D01*
X121142385Y-108821620D01*
X121138343Y-108829737D01*
X121128343Y-108864884D01*
X121124704Y-108875741D01*
X121111499Y-108909826D01*
X121109829Y-108918762D01*
X121108437Y-108928745D01*
X121107599Y-108937791D01*
X121110971Y-108974182D01*
X121111500Y-108985623D01*
X121111500Y-111446784D01*
X121108437Y-111468745D01*
X121107599Y-111477791D01*
X121110971Y-111514182D01*
X121111500Y-111525623D01*
X121111500Y-111533843D01*
X121111501Y-111533854D01*
X121113011Y-111541937D01*
X121114591Y-111553264D01*
X121117964Y-111589658D01*
X121120443Y-111598372D01*
X121123667Y-111607989D01*
X121126938Y-111616432D01*
X121146177Y-111647503D01*
X121151746Y-111657502D01*
X121157731Y-111669521D01*
X121168041Y-111690228D01*
X121173526Y-111697490D01*
X121179957Y-111705235D01*
X121186080Y-111711951D01*
X121215249Y-111733979D01*
X121224061Y-111741296D01*
X121251069Y-111765918D01*
X121258797Y-111770702D01*
X121267580Y-111775594D01*
X121275732Y-111779653D01*
X121275736Y-111779656D01*
X121310895Y-111789659D01*
X121321742Y-111793295D01*
X121355827Y-111806500D01*
X121355828Y-111806500D01*
X121364755Y-111808169D01*
X121374742Y-111809562D01*
X121383788Y-111810399D01*
X121383793Y-111810401D01*
X121420183Y-111807028D01*
X121431624Y-111806500D01*
X136476167Y-111806500D01*
X136543206Y-111826185D01*
X136563848Y-111842819D01*
X137944411Y-113223382D01*
X137977896Y-113284705D01*
X137979826Y-113296116D01*
X137998859Y-113452869D01*
X137998860Y-113452874D01*
X138059182Y-113611931D01*
X138081247Y-113643897D01*
X138147225Y-113739482D01*
X138155818Y-113751930D01*
X138239634Y-113826185D01*
X138276761Y-113885374D01*
X138275993Y-113955240D01*
X138239634Y-114011815D01*
X138171344Y-114072315D01*
X138108112Y-114102037D01*
X138089117Y-114103500D01*
X123193727Y-114103500D01*
X123154995Y-114095073D01*
X123154563Y-114096545D01*
X123007963Y-114053500D01*
X123007961Y-114053500D01*
X122864039Y-114053500D01*
X122864036Y-114053500D01*
X122717437Y-114096545D01*
X122717004Y-114095073D01*
X122678273Y-114103500D01*
X120237262Y-114103500D01*
X120223379Y-114102720D01*
X120217316Y-114102037D01*
X120187963Y-114098729D01*
X120131810Y-114109354D01*
X120127241Y-114110131D01*
X120070715Y-114118651D01*
X120062558Y-114121167D01*
X120054531Y-114123976D01*
X120054528Y-114123977D01*
X120054524Y-114123978D01*
X120054524Y-114123979D01*
X120003964Y-114150699D01*
X119999830Y-114152786D01*
X119948359Y-114177574D01*
X119941310Y-114182379D01*
X119934458Y-114187436D01*
X119894046Y-114227848D01*
X119890709Y-114231063D01*
X119848808Y-114269942D01*
X119843015Y-114277207D01*
X119842363Y-114276687D01*
X119832969Y-114288925D01*
X119771713Y-114350181D01*
X119710390Y-114383666D01*
X119684033Y-114386500D01*
X119465482Y-114386500D01*
X119384519Y-114399323D01*
X119371696Y-114401354D01*
X119258658Y-114458950D01*
X119258657Y-114458951D01*
X119258652Y-114458954D01*
X119168954Y-114548652D01*
X119168950Y-114548657D01*
X119144005Y-114597614D01*
X119096029Y-114648409D01*
X119028208Y-114665203D01*
X118962074Y-114642664D01*
X118918623Y-114587948D01*
X118915135Y-114578207D01*
X118890017Y-114497600D01*
X118802072Y-114352122D01*
X118681877Y-114231927D01*
X118536395Y-114143980D01*
X118536396Y-114143980D01*
X118374105Y-114093409D01*
X118374106Y-114093409D01*
X118303572Y-114087000D01*
X118297000Y-114087000D01*
X118297000Y-116036999D01*
X117790426Y-116036999D01*
X117796999Y-116036998D01*
X117797000Y-116036998D01*
X117797000Y-115312000D01*
X117147001Y-115312000D01*
X108807071Y-115312000D01*
X108811161Y-115310904D01*
X109025328Y-115211036D01*
X109218899Y-115075496D01*
X109385993Y-114908402D01*
X109521533Y-114714831D01*
X109594154Y-114559094D01*
X109640325Y-114506657D01*
X109706535Y-114487501D01*
X110040358Y-114487501D01*
X110107397Y-114507186D01*
X110150842Y-114555204D01*
X110152950Y-114559342D01*
X110152954Y-114559347D01*
X110242652Y-114649045D01*
X110242654Y-114649046D01*
X110242658Y-114649050D01*
X110346778Y-114702102D01*
X110355698Y-114706647D01*
X110449475Y-114721499D01*
X110449481Y-114721500D01*
X110912518Y-114721499D01*
X111006304Y-114706646D01*
X111119342Y-114649050D01*
X111209050Y-114559342D01*
X111233995Y-114510384D01*
X111281967Y-114459591D01*
X111349788Y-114442796D01*
X111415923Y-114465333D01*
X111459375Y-114520048D01*
X111462863Y-114529791D01*
X111487981Y-114610396D01*
X111575927Y-114755877D01*
X111696122Y-114876072D01*
X111841604Y-114964019D01*
X111841603Y-114964019D01*
X112003894Y-115014590D01*
X112003893Y-115014590D01*
X112074408Y-115020998D01*
X112074426Y-115020999D01*
X112080999Y-115020998D01*
X112081000Y-115020998D01*
X112081000Y-114296000D01*
X112581000Y-114296000D01*
X112581000Y-115020999D01*
X112587581Y-115020999D01*
X112658102Y-115014591D01*
X112658107Y-115014590D01*
X112820396Y-114964018D01*
X112965877Y-114876072D01*
X113029949Y-114812000D01*
X117147000Y-114812000D01*
X117797000Y-114812000D01*
X117797000Y-114087000D01*
X117796999Y-114086999D01*
X117790436Y-114087000D01*
X117790417Y-114087001D01*
X117719897Y-114093408D01*
X117719892Y-114093409D01*
X117557603Y-114143981D01*
X117412122Y-114231927D01*
X117291927Y-114352122D01*
X117203980Y-114497604D01*
X117153409Y-114659893D01*
X117147000Y-114730427D01*
X117147000Y-114812000D01*
X113029949Y-114812000D01*
X113086072Y-114755877D01*
X113174019Y-114610395D01*
X113224590Y-114448106D01*
X113231000Y-114377572D01*
X113231000Y-114296000D01*
X112581000Y-114296000D01*
X112081000Y-114296000D01*
X112081000Y-113071000D01*
X112581000Y-113071000D01*
X112581000Y-113796000D01*
X113230999Y-113796000D01*
X113230999Y-113714417D01*
X113224591Y-113643897D01*
X113224590Y-113643892D01*
X113174018Y-113481603D01*
X113086072Y-113336122D01*
X112965877Y-113215927D01*
X112820395Y-113127980D01*
X112820396Y-113127980D01*
X112658105Y-113077409D01*
X112658106Y-113077409D01*
X112587572Y-113071000D01*
X112581000Y-113071000D01*
X112081000Y-113071000D01*
X112080999Y-113070999D01*
X112074436Y-113071000D01*
X112074417Y-113071001D01*
X112003897Y-113077408D01*
X112003892Y-113077409D01*
X111841603Y-113127981D01*
X111696122Y-113215927D01*
X111575927Y-113336122D01*
X111487981Y-113481603D01*
X111462863Y-113562209D01*
X111424125Y-113620356D01*
X111360100Y-113648330D01*
X111291115Y-113637248D01*
X111239072Y-113590629D01*
X111234002Y-113581630D01*
X111209050Y-113532658D01*
X111209048Y-113532656D01*
X111209045Y-113532652D01*
X111119347Y-113442954D01*
X111119344Y-113442952D01*
X111119342Y-113442950D01*
X111042517Y-113403805D01*
X111006301Y-113385352D01*
X110912524Y-113370500D01*
X110449482Y-113370500D01*
X110368519Y-113383323D01*
X110355696Y-113385354D01*
X110242658Y-113442950D01*
X110242657Y-113442951D01*
X110242652Y-113442954D01*
X110152950Y-113532656D01*
X110150966Y-113535388D01*
X110147702Y-113537904D01*
X110146049Y-113539558D01*
X110145835Y-113539344D01*
X110095636Y-113578053D01*
X110050649Y-113586501D01*
X109706535Y-113586501D01*
X109639496Y-113566816D01*
X109594154Y-113514907D01*
X109521533Y-113359172D01*
X109505394Y-113336122D01*
X109385992Y-113165598D01*
X109218900Y-112998507D01*
X109218893Y-112998502D01*
X109025332Y-112862968D01*
X109025328Y-112862966D01*
X108983632Y-112843523D01*
X108811161Y-112763098D01*
X108811157Y-112763097D01*
X108811153Y-112763095D01*
X108582911Y-112701939D01*
X108582901Y-112701937D01*
X108347499Y-112681342D01*
X108347497Y-112681342D01*
X108112094Y-112701937D01*
X108112084Y-112701939D01*
X107883842Y-112763095D01*
X107883833Y-112763099D01*
X107669669Y-112862965D01*
X107669667Y-112862966D01*
X107476095Y-112998506D01*
X107309003Y-113165598D01*
X107173463Y-113359170D01*
X107173462Y-113359172D01*
X107073596Y-113573336D01*
X107073592Y-113573345D01*
X107012436Y-113801587D01*
X107012434Y-113801597D01*
X106991839Y-114037000D01*
X106991839Y-114037001D01*
X104203158Y-114037001D01*
X104200954Y-114011815D01*
X104190987Y-113897893D01*
X104182562Y-113801593D01*
X104124929Y-113586501D01*
X104121404Y-113573345D01*
X104121403Y-113573344D01*
X104121402Y-113573338D01*
X104021534Y-113359172D01*
X104005395Y-113336122D01*
X103885993Y-113165598D01*
X103718901Y-112998507D01*
X103718894Y-112998502D01*
X103525333Y-112862968D01*
X103525329Y-112862966D01*
X103483633Y-112843523D01*
X103311162Y-112763098D01*
X103311158Y-112763097D01*
X103311154Y-112763095D01*
X103082912Y-112701939D01*
X103082902Y-112701937D01*
X102847500Y-112681342D01*
X102847498Y-112681342D01*
X102612095Y-112701937D01*
X102612085Y-112701939D01*
X102383843Y-112763095D01*
X102383834Y-112763099D01*
X102169670Y-112862965D01*
X102169668Y-112862966D01*
X101976096Y-112998506D01*
X101809004Y-113165598D01*
X101673464Y-113359170D01*
X101673463Y-113359172D01*
X101573597Y-113573336D01*
X101573593Y-113573345D01*
X101539381Y-113701033D01*
X101525743Y-113751932D01*
X101524226Y-113757593D01*
X101487861Y-113817253D01*
X101425015Y-113847783D01*
X101404451Y-113849500D01*
X99759057Y-113849500D01*
X99692018Y-113829815D01*
X99658793Y-113793093D01*
X99656786Y-113794552D01*
X99651050Y-113786657D01*
X99561347Y-113696954D01*
X99561344Y-113696952D01*
X99561342Y-113696950D01*
X99484517Y-113657805D01*
X99448301Y-113639352D01*
X99354524Y-113624500D01*
X98891482Y-113624500D01*
X98810994Y-113637248D01*
X98797696Y-113639354D01*
X98684658Y-113696950D01*
X98684657Y-113696951D01*
X98684652Y-113696954D01*
X98594954Y-113786652D01*
X98594950Y-113786657D01*
X98570005Y-113835614D01*
X98522029Y-113886409D01*
X98454208Y-113903203D01*
X98388074Y-113880664D01*
X98344623Y-113825948D01*
X98341135Y-113816207D01*
X98316017Y-113735600D01*
X98228072Y-113590122D01*
X98107877Y-113469927D01*
X97962395Y-113381980D01*
X97962396Y-113381980D01*
X97800105Y-113331409D01*
X97800106Y-113331409D01*
X97729572Y-113325000D01*
X97723000Y-113325000D01*
X97723000Y-115274999D01*
X97216426Y-115274999D01*
X97222999Y-115274998D01*
X97223000Y-115274998D01*
X97223000Y-114550000D01*
X96573001Y-114550000D01*
X87000000Y-114550000D01*
X87000000Y-114050000D01*
X96573000Y-114050000D01*
X97223000Y-114050000D01*
X97223000Y-113325000D01*
X97222999Y-113324999D01*
X97216436Y-113325000D01*
X97216417Y-113325001D01*
X97145897Y-113331408D01*
X97145892Y-113331409D01*
X96983603Y-113381981D01*
X96838122Y-113469927D01*
X96717927Y-113590122D01*
X96629980Y-113735604D01*
X96579409Y-113897893D01*
X96573000Y-113968427D01*
X96573000Y-114050000D01*
X87000000Y-114050000D01*
X87000000Y-110613000D01*
X96573001Y-110613000D01*
X96573001Y-110694582D01*
X96579408Y-110765102D01*
X96579409Y-110765107D01*
X96629981Y-110927396D01*
X96717927Y-111072877D01*
X96838122Y-111193072D01*
X96983604Y-111281019D01*
X96983603Y-111281019D01*
X97145894Y-111331590D01*
X97145893Y-111331590D01*
X97216408Y-111337998D01*
X97216426Y-111337999D01*
X97723000Y-111337999D01*
X97729581Y-111337999D01*
X97800102Y-111331591D01*
X97800107Y-111331590D01*
X97962396Y-111281018D01*
X98107877Y-111193072D01*
X98228072Y-111072877D01*
X98316017Y-110927398D01*
X98341135Y-110846792D01*
X98379872Y-110788644D01*
X98443897Y-110760669D01*
X98512883Y-110771750D01*
X98564926Y-110818368D01*
X98570001Y-110827377D01*
X98594950Y-110876342D01*
X98594952Y-110876344D01*
X98594954Y-110876347D01*
X98684652Y-110966045D01*
X98684654Y-110966046D01*
X98684658Y-110966050D01*
X98772942Y-111011033D01*
X98797698Y-111023647D01*
X98891475Y-111038499D01*
X98891481Y-111038500D01*
X99354518Y-111038499D01*
X99448304Y-111023646D01*
X99561342Y-110966050D01*
X99599996Y-110927396D01*
X99651050Y-110876343D01*
X99656786Y-110868448D01*
X99659059Y-110870100D01*
X99696546Y-110830409D01*
X99759057Y-110813500D01*
X101862740Y-110813500D01*
X101929779Y-110833185D01*
X101950421Y-110849819D01*
X101976098Y-110875496D01*
X102050219Y-110927396D01*
X102169664Y-111011033D01*
X102169666Y-111011034D01*
X102169669Y-111011036D01*
X102383836Y-111110904D01*
X102612091Y-111172064D01*
X102798911Y-111188409D01*
X102847498Y-111192660D01*
X102847499Y-111192660D01*
X102847500Y-111192660D01*
X102896087Y-111188409D01*
X103082907Y-111172064D01*
X103311162Y-111110904D01*
X103525329Y-111011036D01*
X103718900Y-110875496D01*
X103885994Y-110708402D01*
X104021534Y-110514831D01*
X104121402Y-110300664D01*
X104182562Y-110072409D01*
X104203158Y-109837001D01*
X106991839Y-109837001D01*
X107012434Y-110072404D01*
X107012436Y-110072414D01*
X107073592Y-110300656D01*
X107073594Y-110300660D01*
X107073595Y-110300664D01*
X107127409Y-110416068D01*
X107173463Y-110514831D01*
X107173465Y-110514835D01*
X107262959Y-110642645D01*
X107309003Y-110708402D01*
X107476097Y-110875496D01*
X107550218Y-110927396D01*
X107669663Y-111011033D01*
X107669665Y-111011034D01*
X107669668Y-111011036D01*
X107883835Y-111110904D01*
X108112090Y-111172064D01*
X108298910Y-111188409D01*
X108347497Y-111192660D01*
X108347498Y-111192660D01*
X108347499Y-111192660D01*
X108396086Y-111188409D01*
X108582906Y-111172064D01*
X108811161Y-111110904D01*
X109025328Y-111011036D01*
X109218899Y-110875496D01*
X109385993Y-110708402D01*
X109521533Y-110514831D01*
X109594154Y-110359094D01*
X109640325Y-110306657D01*
X109706535Y-110287501D01*
X110228459Y-110287501D01*
X110295498Y-110307186D01*
X110341253Y-110359990D01*
X110346388Y-110373178D01*
X110349351Y-110382297D01*
X110349353Y-110382302D01*
X110349354Y-110382304D01*
X110406950Y-110495342D01*
X110406952Y-110495344D01*
X110406954Y-110495347D01*
X110496652Y-110585045D01*
X110496654Y-110585046D01*
X110496658Y-110585050D01*
X110609694Y-110642645D01*
X110609698Y-110642647D01*
X110703475Y-110657499D01*
X110703481Y-110657500D01*
X111166518Y-110657499D01*
X111260304Y-110642646D01*
X111373342Y-110585050D01*
X111463050Y-110495342D01*
X111487995Y-110446384D01*
X111535967Y-110395591D01*
X111603788Y-110378796D01*
X111669923Y-110401333D01*
X111713375Y-110456048D01*
X111716863Y-110465791D01*
X111741981Y-110546396D01*
X111829927Y-110691877D01*
X111950122Y-110812072D01*
X112095604Y-110900019D01*
X112095603Y-110900019D01*
X112257894Y-110950590D01*
X112257893Y-110950590D01*
X112328408Y-110956998D01*
X112328426Y-110956999D01*
X112334999Y-110956998D01*
X112335000Y-110956998D01*
X112335000Y-110232000D01*
X112835000Y-110232000D01*
X112835000Y-110956999D01*
X112841581Y-110956999D01*
X112912102Y-110950591D01*
X112912107Y-110950590D01*
X113074396Y-110900018D01*
X113219877Y-110812072D01*
X113340072Y-110691877D01*
X113428019Y-110546395D01*
X113478590Y-110384106D01*
X113485000Y-110313572D01*
X113485000Y-110232000D01*
X112835000Y-110232000D01*
X112335000Y-110232000D01*
X112335000Y-109007000D01*
X112835000Y-109007000D01*
X112835000Y-109732000D01*
X113484999Y-109732000D01*
X113484999Y-109650417D01*
X113478591Y-109579897D01*
X113478590Y-109579892D01*
X113428018Y-109417603D01*
X113340072Y-109272122D01*
X113219877Y-109151927D01*
X113074395Y-109063980D01*
X113074396Y-109063980D01*
X112912105Y-109013409D01*
X112912106Y-109013409D01*
X112841572Y-109007000D01*
X112835000Y-109007000D01*
X112335000Y-109007000D01*
X112334999Y-109006999D01*
X112328436Y-109007000D01*
X112328417Y-109007001D01*
X112257897Y-109013408D01*
X112257892Y-109013409D01*
X112095603Y-109063981D01*
X111950122Y-109151927D01*
X111829927Y-109272122D01*
X111741981Y-109417603D01*
X111716863Y-109498209D01*
X111678125Y-109556356D01*
X111614100Y-109584330D01*
X111545115Y-109573248D01*
X111493072Y-109526629D01*
X111488002Y-109517630D01*
X111463050Y-109468658D01*
X111463048Y-109468656D01*
X111463045Y-109468652D01*
X111373347Y-109378954D01*
X111373344Y-109378952D01*
X111373342Y-109378950D01*
X111296517Y-109339805D01*
X111260301Y-109321352D01*
X111166524Y-109306500D01*
X110703482Y-109306500D01*
X110622519Y-109319323D01*
X110609696Y-109321354D01*
X110508362Y-109372986D01*
X110452069Y-109386501D01*
X109706535Y-109386501D01*
X109639496Y-109366816D01*
X109594154Y-109314907D01*
X109521533Y-109159172D01*
X109486023Y-109108457D01*
X109385992Y-108965598D01*
X109218900Y-108798507D01*
X109218893Y-108798502D01*
X109199230Y-108784734D01*
X109135460Y-108740081D01*
X109025332Y-108662968D01*
X109025328Y-108662966D01*
X108938984Y-108622703D01*
X108811161Y-108563098D01*
X108811157Y-108563097D01*
X108811153Y-108563095D01*
X108582911Y-108501939D01*
X108582901Y-108501937D01*
X108347499Y-108481342D01*
X108347497Y-108481342D01*
X108112094Y-108501937D01*
X108112084Y-108501939D01*
X107883842Y-108563095D01*
X107883833Y-108563099D01*
X107669669Y-108662965D01*
X107669667Y-108662966D01*
X107476095Y-108798506D01*
X107309003Y-108965598D01*
X107173463Y-109159170D01*
X107173462Y-109159172D01*
X107073596Y-109373336D01*
X107073592Y-109373345D01*
X107012436Y-109601587D01*
X107012434Y-109601597D01*
X106991839Y-109837000D01*
X106991839Y-109837001D01*
X104203158Y-109837001D01*
X104182562Y-109601593D01*
X104121402Y-109373338D01*
X104021534Y-109159172D01*
X103986024Y-109108457D01*
X103885993Y-108965598D01*
X103718901Y-108798507D01*
X103718894Y-108798502D01*
X103699231Y-108784734D01*
X103635461Y-108740081D01*
X103525333Y-108662968D01*
X103525329Y-108662966D01*
X103438985Y-108622703D01*
X103311162Y-108563098D01*
X103311158Y-108563097D01*
X103311154Y-108563095D01*
X103082912Y-108501939D01*
X103082902Y-108501937D01*
X102847500Y-108481342D01*
X102847498Y-108481342D01*
X102612095Y-108501937D01*
X102612085Y-108501939D01*
X102383843Y-108563095D01*
X102383834Y-108563099D01*
X102169670Y-108662965D01*
X102169668Y-108662966D01*
X101976096Y-108798506D01*
X101809004Y-108965598D01*
X101673464Y-109159170D01*
X101673463Y-109159172D01*
X101573597Y-109373336D01*
X101573593Y-109373345D01*
X101512437Y-109601587D01*
X101512435Y-109601597D01*
X101503620Y-109702354D01*
X101495200Y-109798604D01*
X101495138Y-109799308D01*
X101469685Y-109864376D01*
X101413095Y-109905355D01*
X101371610Y-109912500D01*
X99759057Y-109912500D01*
X99692018Y-109892815D01*
X99658793Y-109856093D01*
X99656786Y-109857552D01*
X99651050Y-109849657D01*
X99561347Y-109759954D01*
X99561344Y-109759952D01*
X99561342Y-109759950D01*
X99484517Y-109720805D01*
X99448301Y-109702352D01*
X99354524Y-109687500D01*
X98891482Y-109687500D01*
X98810519Y-109700323D01*
X98797696Y-109702354D01*
X98684658Y-109759950D01*
X98684657Y-109759951D01*
X98684652Y-109759954D01*
X98594954Y-109849652D01*
X98594950Y-109849657D01*
X98570005Y-109898614D01*
X98522029Y-109949409D01*
X98454208Y-109966203D01*
X98388074Y-109943664D01*
X98344623Y-109888948D01*
X98341135Y-109879207D01*
X98316017Y-109798600D01*
X98228072Y-109653122D01*
X98107877Y-109532927D01*
X97962395Y-109444980D01*
X97962396Y-109444980D01*
X97800105Y-109394409D01*
X97800106Y-109394409D01*
X97729572Y-109388000D01*
X97723000Y-109388000D01*
X97723000Y-111337999D01*
X97216426Y-111337999D01*
X97222999Y-111337998D01*
X97223000Y-111337998D01*
X97223000Y-110613000D01*
X96573001Y-110613000D01*
X87000000Y-110613000D01*
X87000000Y-110113000D01*
X96573000Y-110113000D01*
X97223000Y-110113000D01*
X97223000Y-109388000D01*
X97222999Y-109387999D01*
X97216436Y-109388000D01*
X97216417Y-109388001D01*
X97145897Y-109394408D01*
X97145892Y-109394409D01*
X96983603Y-109444981D01*
X96838122Y-109532927D01*
X96717927Y-109653122D01*
X96629980Y-109798604D01*
X96579409Y-109960893D01*
X96573000Y-110031427D01*
X96573000Y-110113000D01*
X87000000Y-110113000D01*
X87000000Y-105025000D01*
X96573001Y-105025000D01*
X96573001Y-105106582D01*
X96579408Y-105177102D01*
X96579409Y-105177107D01*
X96629981Y-105339396D01*
X96717927Y-105484877D01*
X96838122Y-105605072D01*
X96983604Y-105693019D01*
X96983603Y-105693019D01*
X97145894Y-105743590D01*
X97145893Y-105743590D01*
X97216408Y-105749998D01*
X97216426Y-105749999D01*
X97222999Y-105749998D01*
X97223000Y-105749998D01*
X97223000Y-105025000D01*
X96573001Y-105025000D01*
X87000000Y-105025000D01*
X87000000Y-104525000D01*
X96573000Y-104525000D01*
X97223000Y-104525000D01*
X97223000Y-103800000D01*
X97723000Y-103800000D01*
X97723000Y-105749999D01*
X97729581Y-105749999D01*
X97800102Y-105743591D01*
X97800107Y-105743590D01*
X97962396Y-105693018D01*
X98107877Y-105605072D01*
X98228072Y-105484877D01*
X98316017Y-105339398D01*
X98341135Y-105258792D01*
X98379872Y-105200644D01*
X98443897Y-105172669D01*
X98512883Y-105183750D01*
X98564926Y-105230368D01*
X98570001Y-105239377D01*
X98594950Y-105288342D01*
X98594952Y-105288344D01*
X98594954Y-105288347D01*
X98684652Y-105378045D01*
X98684654Y-105378046D01*
X98684658Y-105378050D01*
X98797694Y-105435645D01*
X98797698Y-105435647D01*
X98891475Y-105450499D01*
X98891481Y-105450500D01*
X99354518Y-105450499D01*
X99448304Y-105435646D01*
X99561342Y-105378050D01*
X99603324Y-105336068D01*
X99651050Y-105288343D01*
X99656786Y-105280448D01*
X99659059Y-105282100D01*
X99696546Y-105242409D01*
X99759057Y-105225500D01*
X101398020Y-105225500D01*
X101465059Y-105245185D01*
X101510814Y-105297989D01*
X101520758Y-105367147D01*
X101517795Y-105381592D01*
X101512438Y-105401585D01*
X101512435Y-105401598D01*
X101491840Y-105637001D01*
X101491840Y-105637002D01*
X101512435Y-105872405D01*
X101512437Y-105872415D01*
X101573593Y-106100657D01*
X101573595Y-106100661D01*
X101573596Y-106100665D01*
X101654522Y-106274210D01*
X101673464Y-106314832D01*
X101673466Y-106314836D01*
X101779363Y-106466071D01*
X101809004Y-106508403D01*
X101976098Y-106675497D01*
X102048334Y-106726077D01*
X102169664Y-106811034D01*
X102169666Y-106811035D01*
X102169669Y-106811037D01*
X102383836Y-106910905D01*
X102612091Y-106972065D01*
X102800417Y-106988541D01*
X102847498Y-106992661D01*
X102847499Y-106992661D01*
X102847500Y-106992661D01*
X102886733Y-106989228D01*
X103082907Y-106972065D01*
X103311162Y-106910905D01*
X103525329Y-106811037D01*
X103718900Y-106675497D01*
X103885994Y-106508403D01*
X104021534Y-106314832D01*
X104121402Y-106100665D01*
X104182562Y-105872410D01*
X104203158Y-105637002D01*
X106991839Y-105637002D01*
X107012434Y-105872405D01*
X107012436Y-105872415D01*
X107073592Y-106100657D01*
X107073594Y-106100661D01*
X107073595Y-106100665D01*
X107154521Y-106274210D01*
X107173463Y-106314832D01*
X107173465Y-106314836D01*
X107279362Y-106466071D01*
X107309003Y-106508403D01*
X107476097Y-106675497D01*
X107548333Y-106726077D01*
X107669663Y-106811034D01*
X107669665Y-106811035D01*
X107669668Y-106811037D01*
X107883835Y-106910905D01*
X108112090Y-106972065D01*
X108300416Y-106988541D01*
X108347497Y-106992661D01*
X108347498Y-106992661D01*
X108347499Y-106992661D01*
X108386732Y-106989228D01*
X108582906Y-106972065D01*
X108811161Y-106910905D01*
X109025328Y-106811037D01*
X109218899Y-106675497D01*
X109385993Y-106508403D01*
X109521533Y-106314832D01*
X109594154Y-106159095D01*
X109640325Y-106106658D01*
X109706535Y-106087502D01*
X110285187Y-106087502D01*
X110352226Y-106107187D01*
X110395671Y-106155206D01*
X110406949Y-106177340D01*
X110406954Y-106177347D01*
X110496652Y-106267045D01*
X110496654Y-106267046D01*
X110496658Y-106267050D01*
X110590443Y-106314836D01*
X110609698Y-106324647D01*
X110703475Y-106339499D01*
X110703481Y-106339500D01*
X111166518Y-106339499D01*
X111260304Y-106324646D01*
X111373342Y-106267050D01*
X111463050Y-106177342D01*
X111487995Y-106128384D01*
X111535967Y-106077591D01*
X111603788Y-106060796D01*
X111669923Y-106083333D01*
X111713375Y-106138048D01*
X111716863Y-106147791D01*
X111741981Y-106228396D01*
X111829927Y-106373877D01*
X111950122Y-106494072D01*
X112095604Y-106582019D01*
X112095603Y-106582019D01*
X112257894Y-106632590D01*
X112257893Y-106632590D01*
X112328408Y-106638998D01*
X112328426Y-106638999D01*
X112334999Y-106638998D01*
X112335000Y-106638998D01*
X112335000Y-105914000D01*
X112835000Y-105914000D01*
X112835000Y-106638999D01*
X112841581Y-106638999D01*
X112912102Y-106632591D01*
X112912107Y-106632590D01*
X113074396Y-106582018D01*
X113219877Y-106494072D01*
X113340072Y-106373877D01*
X113428019Y-106228395D01*
X113478590Y-106066106D01*
X113485000Y-105995572D01*
X113485000Y-105914000D01*
X112835000Y-105914000D01*
X112335000Y-105914000D01*
X112335000Y-104689000D01*
X112835000Y-104689000D01*
X112835000Y-105414000D01*
X113484999Y-105414000D01*
X137684000Y-105414000D01*
X138434000Y-105414000D01*
X138434000Y-104664000D01*
X138136155Y-104664000D01*
X138076627Y-104670401D01*
X138076620Y-104670403D01*
X137941913Y-104720645D01*
X137941906Y-104720649D01*
X137826812Y-104806809D01*
X137826809Y-104806812D01*
X137740649Y-104921906D01*
X137740645Y-104921913D01*
X137690403Y-105056620D01*
X137690401Y-105056627D01*
X137684000Y-105116155D01*
X137684000Y-105414000D01*
X113484999Y-105414000D01*
X113484999Y-105332417D01*
X113478591Y-105261897D01*
X113478590Y-105261892D01*
X113428018Y-105099603D01*
X113340072Y-104954122D01*
X113219877Y-104833927D01*
X113074395Y-104745980D01*
X113074396Y-104745980D01*
X112912105Y-104695409D01*
X112912106Y-104695409D01*
X112841572Y-104689000D01*
X112835000Y-104689000D01*
X112335000Y-104689000D01*
X112334999Y-104688999D01*
X112328436Y-104689000D01*
X112328417Y-104689001D01*
X112257897Y-104695408D01*
X112257892Y-104695409D01*
X112095603Y-104745981D01*
X111950122Y-104833927D01*
X111829927Y-104954122D01*
X111741981Y-105099603D01*
X111716863Y-105180209D01*
X111678125Y-105238356D01*
X111614100Y-105266330D01*
X111545115Y-105255248D01*
X111493072Y-105208629D01*
X111488002Y-105199630D01*
X111463050Y-105150658D01*
X111463048Y-105150656D01*
X111463045Y-105150652D01*
X111373347Y-105060954D01*
X111373344Y-105060952D01*
X111373342Y-105060950D01*
X111296517Y-105021805D01*
X111260301Y-105003352D01*
X111166524Y-104988500D01*
X110703482Y-104988500D01*
X110622519Y-105001323D01*
X110609696Y-105003354D01*
X110496658Y-105060950D01*
X110496657Y-105060951D01*
X110496652Y-105060954D01*
X110407424Y-105150183D01*
X110346101Y-105183668D01*
X110319743Y-105186502D01*
X109706535Y-105186502D01*
X109639496Y-105166817D01*
X109594154Y-105114908D01*
X109521533Y-104959173D01*
X109517997Y-104954122D01*
X109385992Y-104765599D01*
X109218900Y-104598508D01*
X109218893Y-104598503D01*
X109025332Y-104462969D01*
X109025328Y-104462967D01*
X108931570Y-104419247D01*
X108811161Y-104363099D01*
X108811157Y-104363098D01*
X108811153Y-104363096D01*
X108582911Y-104301940D01*
X108582901Y-104301938D01*
X108347499Y-104281343D01*
X108347497Y-104281343D01*
X108112094Y-104301938D01*
X108112084Y-104301940D01*
X107883842Y-104363096D01*
X107883833Y-104363100D01*
X107669669Y-104462966D01*
X107669667Y-104462967D01*
X107476095Y-104598507D01*
X107309003Y-104765599D01*
X107173463Y-104959171D01*
X107173462Y-104959173D01*
X107073596Y-105173337D01*
X107073592Y-105173346D01*
X107012436Y-105401588D01*
X107012434Y-105401598D01*
X106991839Y-105637001D01*
X106991839Y-105637002D01*
X104203158Y-105637002D01*
X104182562Y-105401594D01*
X104121402Y-105173339D01*
X104021534Y-104959173D01*
X104017998Y-104954122D01*
X103885993Y-104765599D01*
X103718901Y-104598508D01*
X103718894Y-104598503D01*
X103525333Y-104462969D01*
X103525329Y-104462967D01*
X103431571Y-104419247D01*
X103311162Y-104363099D01*
X103311158Y-104363098D01*
X103311154Y-104363096D01*
X103082912Y-104301940D01*
X103082902Y-104301938D01*
X102847500Y-104281343D01*
X102847498Y-104281343D01*
X102612095Y-104301938D01*
X102612085Y-104301940D01*
X102383843Y-104363096D01*
X102383833Y-104363100D01*
X102327378Y-104389425D01*
X102258301Y-104399916D01*
X102205122Y-104379495D01*
X102183170Y-104364527D01*
X102053400Y-104324500D01*
X102053399Y-104324500D01*
X99759057Y-104324500D01*
X99692018Y-104304815D01*
X99658793Y-104268093D01*
X99656786Y-104269552D01*
X99651050Y-104261657D01*
X99561347Y-104171954D01*
X99561344Y-104171952D01*
X99561342Y-104171950D01*
X99484517Y-104132805D01*
X99448301Y-104114352D01*
X99354524Y-104099500D01*
X98891482Y-104099500D01*
X98810519Y-104112323D01*
X98797696Y-104114354D01*
X98684658Y-104171950D01*
X98684657Y-104171951D01*
X98684652Y-104171954D01*
X98594954Y-104261652D01*
X98594950Y-104261657D01*
X98570005Y-104310614D01*
X98522029Y-104361409D01*
X98454208Y-104378203D01*
X98388074Y-104355664D01*
X98344623Y-104300948D01*
X98341135Y-104291207D01*
X98316017Y-104210600D01*
X98228072Y-104065122D01*
X98107877Y-103944927D01*
X97962395Y-103856980D01*
X97962396Y-103856980D01*
X97800105Y-103806409D01*
X97800106Y-103806409D01*
X97729572Y-103800000D01*
X97723000Y-103800000D01*
X97223000Y-103800000D01*
X97222999Y-103799999D01*
X97216436Y-103800000D01*
X97216417Y-103800001D01*
X97145897Y-103806408D01*
X97145892Y-103806409D01*
X96983603Y-103856981D01*
X96838122Y-103944927D01*
X96717927Y-104065122D01*
X96629980Y-104210604D01*
X96579409Y-104372893D01*
X96573000Y-104443427D01*
X96573000Y-104525000D01*
X87000000Y-104525000D01*
X87000000Y-101850000D01*
X96573001Y-101850000D01*
X96573001Y-101931582D01*
X96579408Y-102002102D01*
X96579409Y-102002107D01*
X96629981Y-102164396D01*
X96717927Y-102309877D01*
X96838122Y-102430072D01*
X96983604Y-102518019D01*
X96983603Y-102518019D01*
X97145894Y-102568590D01*
X97145893Y-102568590D01*
X97216408Y-102574998D01*
X97216426Y-102574999D01*
X97723000Y-102574999D01*
X97729581Y-102574999D01*
X97800102Y-102568591D01*
X97800107Y-102568590D01*
X97962396Y-102518018D01*
X98107877Y-102430072D01*
X98228072Y-102309877D01*
X98316017Y-102164398D01*
X98341135Y-102083792D01*
X98379872Y-102025644D01*
X98443897Y-101997669D01*
X98512883Y-102008750D01*
X98564926Y-102055368D01*
X98570001Y-102064377D01*
X98594950Y-102113342D01*
X98594952Y-102113344D01*
X98594954Y-102113347D01*
X98684652Y-102203045D01*
X98684654Y-102203046D01*
X98684658Y-102203050D01*
X98797694Y-102260645D01*
X98797698Y-102260647D01*
X98891475Y-102275499D01*
X98891481Y-102275500D01*
X99354518Y-102275499D01*
X99448304Y-102260646D01*
X99561342Y-102203050D01*
X99651050Y-102113342D01*
X99708646Y-102000304D01*
X99709944Y-101992106D01*
X99739873Y-101928972D01*
X99799184Y-101892040D01*
X99832418Y-101887503D01*
X101488462Y-101887503D01*
X101555501Y-101907188D01*
X101600842Y-101959096D01*
X101645735Y-102055368D01*
X101673464Y-102114833D01*
X101673466Y-102114837D01*
X101735233Y-102203048D01*
X101809004Y-102308404D01*
X101976098Y-102475498D01*
X102036823Y-102518018D01*
X102169664Y-102611035D01*
X102169666Y-102611036D01*
X102169669Y-102611038D01*
X102383836Y-102710906D01*
X102612091Y-102772066D01*
X102800417Y-102788542D01*
X102847498Y-102792662D01*
X102847499Y-102792662D01*
X102847500Y-102792662D01*
X102886733Y-102789229D01*
X103082907Y-102772066D01*
X103311162Y-102710906D01*
X103525329Y-102611038D01*
X103718900Y-102475498D01*
X103885994Y-102308404D01*
X104021534Y-102114833D01*
X104121402Y-101900666D01*
X104182562Y-101672411D01*
X104203158Y-101437003D01*
X106991839Y-101437003D01*
X107012434Y-101672406D01*
X107012436Y-101672416D01*
X107073592Y-101900658D01*
X107073594Y-101900662D01*
X107073595Y-101900666D01*
X107145734Y-102055368D01*
X107173463Y-102114833D01*
X107173465Y-102114837D01*
X107235232Y-102203048D01*
X107309003Y-102308404D01*
X107476097Y-102475498D01*
X107536822Y-102518018D01*
X107669663Y-102611035D01*
X107669665Y-102611036D01*
X107669668Y-102611038D01*
X107883835Y-102710906D01*
X108112090Y-102772066D01*
X108300416Y-102788542D01*
X108347497Y-102792662D01*
X108347498Y-102792662D01*
X108347499Y-102792662D01*
X108386732Y-102789229D01*
X108582906Y-102772066D01*
X108811161Y-102710906D01*
X109025328Y-102611038D01*
X109218899Y-102475498D01*
X109385993Y-102308404D01*
X109521533Y-102114833D01*
X109594154Y-101959096D01*
X109640325Y-101906659D01*
X109706535Y-101887503D01*
X110288582Y-101887503D01*
X110355621Y-101907188D01*
X110401376Y-101959992D01*
X110411055Y-101992106D01*
X110412352Y-102000299D01*
X110412352Y-102000300D01*
X110412353Y-102000303D01*
X110412354Y-102000304D01*
X110469950Y-102113342D01*
X110469952Y-102113344D01*
X110469954Y-102113347D01*
X110559652Y-102203045D01*
X110559654Y-102203046D01*
X110559658Y-102203050D01*
X110672694Y-102260645D01*
X110672698Y-102260647D01*
X110766475Y-102275499D01*
X110766481Y-102275500D01*
X111229518Y-102275499D01*
X111323304Y-102260646D01*
X111436342Y-102203050D01*
X111526050Y-102113342D01*
X111550995Y-102064384D01*
X111598967Y-102013591D01*
X111666788Y-101996796D01*
X111732923Y-102019333D01*
X111776375Y-102074048D01*
X111779863Y-102083791D01*
X111804981Y-102164396D01*
X111892927Y-102309877D01*
X112013122Y-102430072D01*
X112158604Y-102518019D01*
X112158603Y-102518019D01*
X112320894Y-102568590D01*
X112320893Y-102568590D01*
X112391408Y-102574998D01*
X112391426Y-102574999D01*
X112397999Y-102574998D01*
X112398000Y-102574998D01*
X112398000Y-101850000D01*
X112898000Y-101850000D01*
X112898000Y-102574999D01*
X112904581Y-102574999D01*
X112975102Y-102568591D01*
X112975107Y-102568590D01*
X113137396Y-102518018D01*
X113282877Y-102430072D01*
X113403072Y-102309877D01*
X113491019Y-102164395D01*
X113541590Y-102002106D01*
X113548000Y-101931572D01*
X113548000Y-101850000D01*
X112898000Y-101850000D01*
X112398000Y-101850000D01*
X112398000Y-100625000D01*
X112898000Y-100625000D01*
X112898000Y-101350000D01*
X113547999Y-101350000D01*
X113547999Y-101268417D01*
X113541591Y-101197897D01*
X113541590Y-101197892D01*
X113491018Y-101035603D01*
X113403072Y-100890122D01*
X113282877Y-100769927D01*
X113137395Y-100681980D01*
X113137396Y-100681980D01*
X112975105Y-100631409D01*
X112975106Y-100631409D01*
X112904572Y-100625000D01*
X112898000Y-100625000D01*
X112398000Y-100625000D01*
X112397999Y-100624999D01*
X112391436Y-100625000D01*
X112391417Y-100625001D01*
X112320897Y-100631408D01*
X112320892Y-100631409D01*
X112158603Y-100681981D01*
X112013122Y-100769927D01*
X111892927Y-100890122D01*
X111804981Y-101035603D01*
X111779863Y-101116209D01*
X111741125Y-101174356D01*
X111677100Y-101202330D01*
X111608115Y-101191248D01*
X111556072Y-101144629D01*
X111550994Y-101135614D01*
X111526050Y-101086658D01*
X111526048Y-101086656D01*
X111526045Y-101086652D01*
X111436347Y-100996954D01*
X111436344Y-100996952D01*
X111436342Y-100996950D01*
X111359517Y-100957805D01*
X111323301Y-100939352D01*
X111229524Y-100924500D01*
X110766482Y-100924500D01*
X110672695Y-100939354D01*
X110606685Y-100972988D01*
X110550391Y-100986503D01*
X109706535Y-100986503D01*
X109639496Y-100966818D01*
X109594154Y-100914909D01*
X109521533Y-100759174D01*
X109467483Y-100681981D01*
X109385992Y-100565600D01*
X109218900Y-100398509D01*
X109218893Y-100398504D01*
X109025332Y-100262970D01*
X109025328Y-100262968D01*
X109025326Y-100262967D01*
X108811161Y-100163100D01*
X108811157Y-100163099D01*
X108811153Y-100163097D01*
X108582911Y-100101941D01*
X108582901Y-100101939D01*
X108347499Y-100081344D01*
X108347497Y-100081344D01*
X108112094Y-100101939D01*
X108112084Y-100101941D01*
X107883842Y-100163097D01*
X107883833Y-100163101D01*
X107669669Y-100262967D01*
X107669667Y-100262968D01*
X107476095Y-100398508D01*
X107309003Y-100565600D01*
X107173463Y-100759172D01*
X107173462Y-100759174D01*
X107073596Y-100973338D01*
X107073592Y-100973347D01*
X107012436Y-101201589D01*
X107012434Y-101201599D01*
X106991839Y-101437002D01*
X106991839Y-101437003D01*
X104203158Y-101437003D01*
X104182562Y-101201595D01*
X104127729Y-100996954D01*
X104121404Y-100973347D01*
X104121403Y-100973346D01*
X104121402Y-100973340D01*
X104021534Y-100759174D01*
X103967484Y-100681981D01*
X103885993Y-100565600D01*
X103718901Y-100398509D01*
X103718894Y-100398504D01*
X103525333Y-100262970D01*
X103525329Y-100262968D01*
X103525327Y-100262967D01*
X103311162Y-100163100D01*
X103311158Y-100163099D01*
X103311154Y-100163097D01*
X103082912Y-100101941D01*
X103082902Y-100101939D01*
X102847500Y-100081344D01*
X102847498Y-100081344D01*
X102612095Y-100101939D01*
X102612085Y-100101941D01*
X102383843Y-100163097D01*
X102383834Y-100163101D01*
X102169670Y-100262967D01*
X102169668Y-100262968D01*
X101976096Y-100398508D01*
X101809004Y-100565600D01*
X101673464Y-100759172D01*
X101673463Y-100759174D01*
X101625216Y-100862639D01*
X101600842Y-100914909D01*
X101554672Y-100967347D01*
X101488462Y-100986503D01*
X99570609Y-100986503D01*
X99514314Y-100972988D01*
X99448301Y-100939352D01*
X99354524Y-100924500D01*
X98891482Y-100924500D01*
X98810519Y-100937323D01*
X98797696Y-100939354D01*
X98684658Y-100996950D01*
X98684657Y-100996951D01*
X98684652Y-100996954D01*
X98594954Y-101086652D01*
X98594950Y-101086657D01*
X98570005Y-101135614D01*
X98522029Y-101186409D01*
X98454208Y-101203203D01*
X98388074Y-101180664D01*
X98344623Y-101125948D01*
X98341135Y-101116207D01*
X98316017Y-101035600D01*
X98228072Y-100890122D01*
X98107877Y-100769927D01*
X97962395Y-100681980D01*
X97962396Y-100681980D01*
X97800105Y-100631409D01*
X97800106Y-100631409D01*
X97729572Y-100625000D01*
X97723000Y-100625000D01*
X97723000Y-102574999D01*
X97216426Y-102574999D01*
X97222999Y-102574998D01*
X97223000Y-102574998D01*
X97223000Y-101850000D01*
X96573001Y-101850000D01*
X87000000Y-101850000D01*
X87000000Y-101350000D01*
X96573000Y-101350000D01*
X97223000Y-101350000D01*
X97223000Y-100625000D01*
X97222999Y-100624999D01*
X97216436Y-100625000D01*
X97216417Y-100625001D01*
X97145897Y-100631408D01*
X97145892Y-100631409D01*
X96983603Y-100681981D01*
X96838122Y-100769927D01*
X96717927Y-100890122D01*
X96629980Y-101035604D01*
X96579409Y-101197893D01*
X96573000Y-101268427D01*
X96573000Y-101350000D01*
X87000000Y-101350000D01*
X87000000Y-87626000D01*
X97589001Y-87626000D01*
X97589001Y-87707582D01*
X97595408Y-87778102D01*
X97595409Y-87778107D01*
X97645981Y-87940396D01*
X97733927Y-88085877D01*
X97854122Y-88206072D01*
X97999604Y-88294019D01*
X97999603Y-88294019D01*
X98161894Y-88344590D01*
X98161893Y-88344590D01*
X98232408Y-88350998D01*
X98232426Y-88350999D01*
X98739000Y-88350999D01*
X98745581Y-88350999D01*
X98816102Y-88344591D01*
X98816107Y-88344590D01*
X98978396Y-88294018D01*
X99123877Y-88206072D01*
X99244072Y-88085877D01*
X99332017Y-87940398D01*
X99357135Y-87859792D01*
X99395872Y-87801644D01*
X99459897Y-87773669D01*
X99528883Y-87784750D01*
X99580926Y-87831368D01*
X99586001Y-87840377D01*
X99610950Y-87889342D01*
X99610952Y-87889344D01*
X99610954Y-87889347D01*
X99700652Y-87979045D01*
X99700654Y-87979046D01*
X99700658Y-87979050D01*
X99813694Y-88036645D01*
X99813698Y-88036647D01*
X99907475Y-88051499D01*
X99907481Y-88051500D01*
X100370518Y-88051499D01*
X100464304Y-88036646D01*
X100577342Y-87979050D01*
X100667050Y-87889342D01*
X100685465Y-87853201D01*
X100733439Y-87802406D01*
X100795949Y-87785497D01*
X101241499Y-87785497D01*
X101308538Y-87805182D01*
X101354293Y-87857986D01*
X101365499Y-87909497D01*
X101365499Y-88504749D01*
X101377130Y-88563226D01*
X101377131Y-88563227D01*
X101421446Y-88629549D01*
X101487768Y-88673864D01*
X101487769Y-88673865D01*
X101546246Y-88685496D01*
X101546249Y-88685497D01*
X101546251Y-88685497D01*
X103885749Y-88685497D01*
X103885750Y-88685496D01*
X103900567Y-88682549D01*
X103944228Y-88673865D01*
X103944228Y-88673864D01*
X103944230Y-88673864D01*
X104010551Y-88629549D01*
X104054866Y-88563228D01*
X104054866Y-88563226D01*
X104054867Y-88563226D01*
X104066498Y-88504749D01*
X104066499Y-88504747D01*
X104066499Y-87334997D01*
X106860339Y-87334997D01*
X106880934Y-87570400D01*
X106880936Y-87570410D01*
X106942092Y-87798652D01*
X106942094Y-87798656D01*
X106942095Y-87798660D01*
X107041963Y-88012827D01*
X107041965Y-88012831D01*
X107069041Y-88051499D01*
X107177503Y-88206398D01*
X107344597Y-88373492D01*
X107441382Y-88441262D01*
X107538163Y-88509029D01*
X107538165Y-88509030D01*
X107538168Y-88509032D01*
X107752335Y-88608900D01*
X107980590Y-88670060D01*
X108157032Y-88685497D01*
X108215997Y-88690656D01*
X108215998Y-88690656D01*
X108215999Y-88690656D01*
X108274964Y-88685497D01*
X108451406Y-88670060D01*
X108679661Y-88608900D01*
X108893828Y-88509032D01*
X109087399Y-88373492D01*
X109254493Y-88206398D01*
X109390033Y-88012827D01*
X109443534Y-87898093D01*
X109489705Y-87845656D01*
X109555915Y-87826500D01*
X110298943Y-87826500D01*
X110365982Y-87846185D01*
X110399206Y-87882906D01*
X110401214Y-87881448D01*
X110406950Y-87889343D01*
X110496652Y-87979045D01*
X110496654Y-87979046D01*
X110496658Y-87979050D01*
X110609694Y-88036645D01*
X110609698Y-88036647D01*
X110703475Y-88051499D01*
X110703481Y-88051500D01*
X111166518Y-88051499D01*
X111260304Y-88036646D01*
X111373342Y-87979050D01*
X111463050Y-87889342D01*
X111487995Y-87840384D01*
X111535967Y-87789591D01*
X111603788Y-87772796D01*
X111669923Y-87795333D01*
X111713375Y-87850048D01*
X111716863Y-87859791D01*
X111741981Y-87940396D01*
X111829927Y-88085877D01*
X111950122Y-88206072D01*
X112095604Y-88294019D01*
X112095603Y-88294019D01*
X112257894Y-88344590D01*
X112257893Y-88344590D01*
X112328408Y-88350998D01*
X112328426Y-88350999D01*
X112334999Y-88350998D01*
X112335000Y-88350998D01*
X112335000Y-87626000D01*
X112835000Y-87626000D01*
X112835000Y-88350999D01*
X112841581Y-88350999D01*
X112912102Y-88344591D01*
X112912107Y-88344590D01*
X113074396Y-88294018D01*
X113219877Y-88206072D01*
X113340072Y-88085877D01*
X113428019Y-87940395D01*
X113478590Y-87778106D01*
X113485000Y-87707572D01*
X113485000Y-87626000D01*
X112835000Y-87626000D01*
X112335000Y-87626000D01*
X112335000Y-86401000D01*
X112835000Y-86401000D01*
X112835000Y-87126000D01*
X113484999Y-87126000D01*
X113484999Y-87044417D01*
X113478591Y-86973897D01*
X113478590Y-86973892D01*
X113428018Y-86811603D01*
X113340072Y-86666122D01*
X113219877Y-86545927D01*
X113074395Y-86457980D01*
X113074396Y-86457980D01*
X112912105Y-86407409D01*
X112912106Y-86407409D01*
X112841572Y-86401000D01*
X112835000Y-86401000D01*
X112335000Y-86401000D01*
X112334999Y-86400999D01*
X112328436Y-86401000D01*
X112328417Y-86401001D01*
X112257897Y-86407408D01*
X112257892Y-86407409D01*
X112095603Y-86457981D01*
X111950122Y-86545927D01*
X111829927Y-86666122D01*
X111741981Y-86811603D01*
X111716863Y-86892209D01*
X111678125Y-86950356D01*
X111614100Y-86978330D01*
X111545115Y-86967248D01*
X111493072Y-86920629D01*
X111487994Y-86911614D01*
X111463050Y-86862658D01*
X111463048Y-86862656D01*
X111463045Y-86862652D01*
X111373347Y-86772954D01*
X111373344Y-86772952D01*
X111373342Y-86772950D01*
X111296517Y-86733805D01*
X111260301Y-86715352D01*
X111166524Y-86700500D01*
X110703482Y-86700500D01*
X110622519Y-86713323D01*
X110609696Y-86715354D01*
X110496658Y-86772950D01*
X110496657Y-86772951D01*
X110496652Y-86772954D01*
X110406950Y-86862657D01*
X110401214Y-86870552D01*
X110398940Y-86868899D01*
X110361454Y-86908591D01*
X110298943Y-86925500D01*
X109594156Y-86925500D01*
X109527117Y-86905815D01*
X109481774Y-86853905D01*
X109390033Y-86657168D01*
X109390032Y-86657166D01*
X109254492Y-86463594D01*
X109087400Y-86296503D01*
X109087393Y-86296498D01*
X108893832Y-86160964D01*
X108893828Y-86160962D01*
X108893826Y-86160961D01*
X108679661Y-86061094D01*
X108679657Y-86061093D01*
X108679653Y-86061091D01*
X108451411Y-85999935D01*
X108451401Y-85999933D01*
X108215999Y-85979338D01*
X108215997Y-85979338D01*
X107980594Y-85999933D01*
X107980584Y-85999935D01*
X107752342Y-86061091D01*
X107752333Y-86061095D01*
X107538169Y-86160961D01*
X107538167Y-86160962D01*
X107344595Y-86296502D01*
X107177503Y-86463594D01*
X107041963Y-86657166D01*
X107041962Y-86657168D01*
X106969948Y-86811603D01*
X106943231Y-86868899D01*
X106942096Y-86871332D01*
X106942092Y-86871341D01*
X106880936Y-87099583D01*
X106880934Y-87099593D01*
X106860339Y-87334996D01*
X106860339Y-87334997D01*
X104066499Y-87334997D01*
X104066499Y-86165246D01*
X104066498Y-86165244D01*
X104054867Y-86106767D01*
X104054866Y-86106766D01*
X104010551Y-86040444D01*
X103944229Y-85996129D01*
X103944228Y-85996128D01*
X103885751Y-85984497D01*
X103885747Y-85984497D01*
X101546251Y-85984497D01*
X101546246Y-85984497D01*
X101487769Y-85996128D01*
X101487768Y-85996129D01*
X101421446Y-86040444D01*
X101377131Y-86106766D01*
X101377130Y-86106767D01*
X101365499Y-86165244D01*
X101365499Y-86760497D01*
X101345814Y-86827536D01*
X101293010Y-86873291D01*
X101241499Y-86884497D01*
X100740252Y-86884497D01*
X100673213Y-86864812D01*
X100652571Y-86848178D01*
X100577347Y-86772954D01*
X100577344Y-86772952D01*
X100577342Y-86772950D01*
X100500517Y-86733805D01*
X100464301Y-86715352D01*
X100370524Y-86700500D01*
X99907482Y-86700500D01*
X99826519Y-86713323D01*
X99813696Y-86715354D01*
X99700658Y-86772950D01*
X99700657Y-86772951D01*
X99700652Y-86772954D01*
X99610954Y-86862652D01*
X99610950Y-86862657D01*
X99586005Y-86911614D01*
X99538029Y-86962409D01*
X99470208Y-86979203D01*
X99404074Y-86956664D01*
X99360623Y-86901948D01*
X99357135Y-86892207D01*
X99332017Y-86811600D01*
X99244072Y-86666122D01*
X99123877Y-86545927D01*
X98978395Y-86457980D01*
X98978396Y-86457980D01*
X98816105Y-86407409D01*
X98816106Y-86407409D01*
X98745572Y-86401000D01*
X98739000Y-86401000D01*
X98739000Y-88350999D01*
X98232426Y-88350999D01*
X98238999Y-88350998D01*
X98239000Y-88350998D01*
X98239000Y-87626000D01*
X97589001Y-87626000D01*
X87000000Y-87626000D01*
X87000000Y-87126000D01*
X97589000Y-87126000D01*
X98239000Y-87126000D01*
X98239000Y-86401000D01*
X98238999Y-86400999D01*
X98232436Y-86401000D01*
X98232417Y-86401001D01*
X98161897Y-86407408D01*
X98161892Y-86407409D01*
X97999603Y-86457981D01*
X97854122Y-86545927D01*
X97733927Y-86666122D01*
X97645980Y-86811604D01*
X97595409Y-86973893D01*
X97589000Y-87044427D01*
X97589000Y-87126000D01*
X87000000Y-87126000D01*
X87000000Y-83308000D01*
X97589001Y-83308000D01*
X97589001Y-83389582D01*
X97595408Y-83460102D01*
X97595409Y-83460107D01*
X97645981Y-83622396D01*
X97733927Y-83767877D01*
X97854122Y-83888072D01*
X97999604Y-83976019D01*
X97999603Y-83976019D01*
X98161894Y-84026590D01*
X98161893Y-84026590D01*
X98232408Y-84032998D01*
X98232426Y-84032999D01*
X98739000Y-84032999D01*
X98745581Y-84032999D01*
X98816102Y-84026591D01*
X98816107Y-84026590D01*
X98978396Y-83976018D01*
X99123877Y-83888072D01*
X99244072Y-83767877D01*
X99332017Y-83622398D01*
X99357135Y-83541792D01*
X99395872Y-83483644D01*
X99459897Y-83455669D01*
X99528883Y-83466750D01*
X99580926Y-83513368D01*
X99586001Y-83522377D01*
X99610950Y-83571342D01*
X99610952Y-83571344D01*
X99610954Y-83571347D01*
X99700652Y-83661045D01*
X99700654Y-83661046D01*
X99700658Y-83661050D01*
X99813694Y-83718645D01*
X99813698Y-83718647D01*
X99907475Y-83733499D01*
X99907481Y-83733500D01*
X100370518Y-83733499D01*
X100464304Y-83718646D01*
X100577342Y-83661050D01*
X100616574Y-83621818D01*
X100677897Y-83588332D01*
X100704256Y-83585498D01*
X101356962Y-83585498D01*
X101424001Y-83605183D01*
X101469342Y-83657091D01*
X101471187Y-83661046D01*
X101541964Y-83812828D01*
X101541966Y-83812832D01*
X101594650Y-83888072D01*
X101677504Y-84006399D01*
X101844598Y-84173493D01*
X101941383Y-84241263D01*
X102038164Y-84309030D01*
X102038166Y-84309031D01*
X102038169Y-84309033D01*
X102252336Y-84408901D01*
X102480591Y-84470061D01*
X102668917Y-84486537D01*
X102715998Y-84490657D01*
X102715999Y-84490657D01*
X102716000Y-84490657D01*
X102755233Y-84487224D01*
X102951407Y-84470061D01*
X103179662Y-84408901D01*
X103393829Y-84309033D01*
X103587400Y-84173493D01*
X103754494Y-84006399D01*
X103890034Y-83812828D01*
X103989902Y-83598661D01*
X104051062Y-83370406D01*
X104071658Y-83134998D01*
X106860339Y-83134998D01*
X106880934Y-83370401D01*
X106880936Y-83370411D01*
X106942092Y-83598653D01*
X106942094Y-83598657D01*
X106942095Y-83598661D01*
X106971186Y-83661046D01*
X107041963Y-83812828D01*
X107041965Y-83812832D01*
X107094649Y-83888072D01*
X107177503Y-84006399D01*
X107344597Y-84173493D01*
X107441382Y-84241263D01*
X107538163Y-84309030D01*
X107538165Y-84309031D01*
X107538168Y-84309033D01*
X107752335Y-84408901D01*
X107980590Y-84470061D01*
X108168916Y-84486537D01*
X108215997Y-84490657D01*
X108215998Y-84490657D01*
X108215999Y-84490657D01*
X108255232Y-84487224D01*
X108451406Y-84470061D01*
X108679661Y-84408901D01*
X108893828Y-84309033D01*
X109087399Y-84173493D01*
X109254493Y-84006399D01*
X109390033Y-83812828D01*
X109489901Y-83598661D01*
X109489905Y-83598644D01*
X109491755Y-83593567D01*
X109493264Y-83594116D01*
X109525811Y-83540736D01*
X109588661Y-83510214D01*
X109609209Y-83508500D01*
X110107943Y-83508500D01*
X110174982Y-83528185D01*
X110208206Y-83564906D01*
X110210214Y-83563448D01*
X110215950Y-83571343D01*
X110305652Y-83661045D01*
X110305654Y-83661046D01*
X110305658Y-83661050D01*
X110418694Y-83718645D01*
X110418698Y-83718647D01*
X110512475Y-83733499D01*
X110512481Y-83733500D01*
X110975518Y-83733499D01*
X111069304Y-83718646D01*
X111182342Y-83661050D01*
X111272050Y-83571342D01*
X111296995Y-83522384D01*
X111344967Y-83471591D01*
X111412788Y-83454796D01*
X111478923Y-83477333D01*
X111522375Y-83532048D01*
X111525863Y-83541791D01*
X111550981Y-83622396D01*
X111638927Y-83767877D01*
X111759122Y-83888072D01*
X111904604Y-83976019D01*
X111904603Y-83976019D01*
X112066894Y-84026590D01*
X112066893Y-84026590D01*
X112137408Y-84032998D01*
X112137426Y-84032999D01*
X112143999Y-84032998D01*
X112144000Y-84032998D01*
X112144000Y-83308000D01*
X112644000Y-83308000D01*
X112644000Y-84032999D01*
X112650581Y-84032999D01*
X112721102Y-84026591D01*
X112721107Y-84026590D01*
X112883396Y-83976018D01*
X113028877Y-83888072D01*
X113149072Y-83767877D01*
X113237019Y-83622395D01*
X113287590Y-83460106D01*
X113294000Y-83389572D01*
X113294000Y-83308000D01*
X112644000Y-83308000D01*
X112144000Y-83308000D01*
X112144000Y-82083000D01*
X112644000Y-82083000D01*
X112644000Y-82808000D01*
X113293999Y-82808000D01*
X113293999Y-82726417D01*
X113287591Y-82655897D01*
X113287590Y-82655892D01*
X113237018Y-82493603D01*
X113149072Y-82348122D01*
X113028877Y-82227927D01*
X112883395Y-82139980D01*
X112883396Y-82139980D01*
X112721105Y-82089409D01*
X112721106Y-82089409D01*
X112650572Y-82083000D01*
X112644000Y-82083000D01*
X112144000Y-82083000D01*
X112143999Y-82082999D01*
X112137436Y-82083000D01*
X112137417Y-82083001D01*
X112066897Y-82089408D01*
X112066892Y-82089409D01*
X111904603Y-82139981D01*
X111759122Y-82227927D01*
X111638927Y-82348122D01*
X111550981Y-82493603D01*
X111525863Y-82574209D01*
X111487125Y-82632356D01*
X111423100Y-82660330D01*
X111354115Y-82649248D01*
X111302072Y-82602629D01*
X111296994Y-82593614D01*
X111272050Y-82544658D01*
X111272048Y-82544656D01*
X111272045Y-82544652D01*
X111182347Y-82454954D01*
X111182344Y-82454952D01*
X111182342Y-82454950D01*
X111105517Y-82415805D01*
X111069301Y-82397352D01*
X110975524Y-82382500D01*
X110512482Y-82382500D01*
X110431519Y-82395323D01*
X110418696Y-82397354D01*
X110305658Y-82454950D01*
X110305657Y-82454951D01*
X110305652Y-82454954D01*
X110215950Y-82544657D01*
X110210214Y-82552552D01*
X110207940Y-82550899D01*
X110170454Y-82590591D01*
X110107943Y-82607500D01*
X109539131Y-82607500D01*
X109472092Y-82587815D01*
X109426749Y-82535905D01*
X109390033Y-82457169D01*
X109390032Y-82457167D01*
X109254492Y-82263595D01*
X109087400Y-82096504D01*
X109087393Y-82096499D01*
X108893832Y-81960965D01*
X108893828Y-81960963D01*
X108893826Y-81960962D01*
X108679661Y-81861095D01*
X108679657Y-81861094D01*
X108679653Y-81861092D01*
X108451411Y-81799936D01*
X108451401Y-81799934D01*
X108215999Y-81779339D01*
X108215997Y-81779339D01*
X107980594Y-81799934D01*
X107980584Y-81799936D01*
X107752342Y-81861092D01*
X107752333Y-81861096D01*
X107538169Y-81960962D01*
X107538167Y-81960963D01*
X107344595Y-82096503D01*
X107177503Y-82263595D01*
X107041963Y-82457167D01*
X107041962Y-82457169D01*
X106942096Y-82671333D01*
X106942092Y-82671342D01*
X106880936Y-82899584D01*
X106880934Y-82899594D01*
X106860339Y-83134997D01*
X106860339Y-83134998D01*
X104071658Y-83134998D01*
X104051062Y-82899590D01*
X103989902Y-82671335D01*
X103890034Y-82457169D01*
X103888481Y-82454950D01*
X103754493Y-82263595D01*
X103587401Y-82096504D01*
X103587394Y-82096499D01*
X103393833Y-81960965D01*
X103393829Y-81960963D01*
X103393827Y-81960962D01*
X103179662Y-81861095D01*
X103179658Y-81861094D01*
X103179654Y-81861092D01*
X102951412Y-81799936D01*
X102951402Y-81799934D01*
X102716000Y-81779339D01*
X102715998Y-81779339D01*
X102480595Y-81799934D01*
X102480585Y-81799936D01*
X102252343Y-81861092D01*
X102252334Y-81861096D01*
X102038170Y-81960962D01*
X102038168Y-81960963D01*
X101844596Y-82096503D01*
X101677504Y-82263595D01*
X101541964Y-82457167D01*
X101541963Y-82457169D01*
X101501170Y-82544652D01*
X101469342Y-82612904D01*
X101423172Y-82665342D01*
X101356962Y-82684498D01*
X100814289Y-82684498D01*
X100747250Y-82664813D01*
X100703805Y-82616794D01*
X100667050Y-82544658D01*
X100667046Y-82544654D01*
X100667045Y-82544652D01*
X100577347Y-82454954D01*
X100577344Y-82454952D01*
X100577342Y-82454950D01*
X100500517Y-82415805D01*
X100464301Y-82397352D01*
X100370524Y-82382500D01*
X99907482Y-82382500D01*
X99826519Y-82395323D01*
X99813696Y-82397354D01*
X99700658Y-82454950D01*
X99700657Y-82454951D01*
X99700652Y-82454954D01*
X99610954Y-82544652D01*
X99610950Y-82544657D01*
X99586005Y-82593614D01*
X99538029Y-82644409D01*
X99470208Y-82661203D01*
X99404074Y-82638664D01*
X99360623Y-82583948D01*
X99357135Y-82574207D01*
X99332017Y-82493600D01*
X99244072Y-82348122D01*
X99123877Y-82227927D01*
X98978395Y-82139980D01*
X98978396Y-82139980D01*
X98816105Y-82089409D01*
X98816106Y-82089409D01*
X98745572Y-82083000D01*
X98739000Y-82083000D01*
X98739000Y-84032999D01*
X98232426Y-84032999D01*
X98238999Y-84032998D01*
X98239000Y-84032998D01*
X98239000Y-83308000D01*
X97589001Y-83308000D01*
X87000000Y-83308000D01*
X87000000Y-82808000D01*
X97589000Y-82808000D01*
X98239000Y-82808000D01*
X98239000Y-82083000D01*
X98238999Y-82082999D01*
X98232436Y-82083000D01*
X98232417Y-82083001D01*
X98161897Y-82089408D01*
X98161892Y-82089409D01*
X97999603Y-82139981D01*
X97854122Y-82227927D01*
X97733927Y-82348122D01*
X97645980Y-82493604D01*
X97595409Y-82655893D01*
X97589000Y-82726427D01*
X97589000Y-82808000D01*
X87000000Y-82808000D01*
X87000000Y-79752000D01*
X97526001Y-79752000D01*
X97526001Y-79833582D01*
X97532408Y-79904102D01*
X97532409Y-79904107D01*
X97582981Y-80066396D01*
X97670927Y-80211877D01*
X97791122Y-80332072D01*
X97936604Y-80420019D01*
X97936603Y-80420019D01*
X98098894Y-80470590D01*
X98098893Y-80470590D01*
X98169408Y-80476998D01*
X98169426Y-80476999D01*
X98676000Y-80476999D01*
X98682581Y-80476999D01*
X98753102Y-80470591D01*
X98753107Y-80470590D01*
X98915396Y-80420018D01*
X99060877Y-80332072D01*
X99181072Y-80211877D01*
X99269017Y-80066398D01*
X99294135Y-79985792D01*
X99332872Y-79927644D01*
X99396897Y-79899669D01*
X99465883Y-79910750D01*
X99517926Y-79957368D01*
X99523001Y-79966377D01*
X99547950Y-80015342D01*
X99547952Y-80015344D01*
X99547954Y-80015347D01*
X99637652Y-80105045D01*
X99637654Y-80105046D01*
X99637658Y-80105050D01*
X99750694Y-80162645D01*
X99750698Y-80162647D01*
X99844475Y-80177499D01*
X99844481Y-80177500D01*
X100307518Y-80177499D01*
X100401304Y-80162646D01*
X100514342Y-80105050D01*
X100552996Y-80066396D01*
X100604050Y-80015343D01*
X100609786Y-80007448D01*
X100612059Y-80009100D01*
X100649546Y-79969409D01*
X100712057Y-79952500D01*
X101775518Y-79952500D01*
X101842557Y-79972185D01*
X101846641Y-79974925D01*
X102038164Y-80109031D01*
X102038166Y-80109032D01*
X102038169Y-80109034D01*
X102252336Y-80208902D01*
X102480591Y-80270062D01*
X102668917Y-80286538D01*
X102715998Y-80290658D01*
X102715999Y-80290658D01*
X102716000Y-80290658D01*
X102755233Y-80287225D01*
X102951407Y-80270062D01*
X103179662Y-80208902D01*
X103393829Y-80109034D01*
X103587400Y-79973494D01*
X103754494Y-79806400D01*
X103890034Y-79612829D01*
X103989902Y-79398662D01*
X104051062Y-79170407D01*
X104071658Y-78934999D01*
X106860339Y-78934999D01*
X106880934Y-79170402D01*
X106880936Y-79170412D01*
X106942092Y-79398654D01*
X106942094Y-79398658D01*
X106942095Y-79398662D01*
X107034603Y-79597045D01*
X107041963Y-79612829D01*
X107041965Y-79612833D01*
X107139412Y-79752000D01*
X107177503Y-79806400D01*
X107344597Y-79973494D01*
X107395448Y-80009100D01*
X107538163Y-80109031D01*
X107538165Y-80109032D01*
X107538168Y-80109034D01*
X107752335Y-80208902D01*
X107980590Y-80270062D01*
X108168916Y-80286538D01*
X108215997Y-80290658D01*
X108215998Y-80290658D01*
X108215999Y-80290658D01*
X108255232Y-80287225D01*
X108451406Y-80270062D01*
X108679661Y-80208902D01*
X108893828Y-80109034D01*
X109087399Y-79973494D01*
X109254493Y-79806400D01*
X109390033Y-79612829D01*
X109435141Y-79516095D01*
X109481314Y-79463656D01*
X109547523Y-79444500D01*
X110298943Y-79444500D01*
X110365982Y-79464185D01*
X110399206Y-79500906D01*
X110401214Y-79499448D01*
X110406950Y-79507343D01*
X110496652Y-79597045D01*
X110496654Y-79597046D01*
X110496658Y-79597050D01*
X110609694Y-79654645D01*
X110609698Y-79654647D01*
X110703475Y-79669499D01*
X110703481Y-79669500D01*
X111166518Y-79669499D01*
X111260304Y-79654646D01*
X111373342Y-79597050D01*
X111463050Y-79507342D01*
X111487995Y-79458384D01*
X111535967Y-79407591D01*
X111603788Y-79390796D01*
X111669923Y-79413333D01*
X111713375Y-79468048D01*
X111716863Y-79477791D01*
X111741981Y-79558396D01*
X111829927Y-79703877D01*
X111950122Y-79824072D01*
X112095604Y-79912019D01*
X112095603Y-79912019D01*
X112257894Y-79962590D01*
X112257893Y-79962590D01*
X112328408Y-79968998D01*
X112328426Y-79968999D01*
X112334999Y-79968998D01*
X112335000Y-79968998D01*
X112335000Y-79244000D01*
X112835000Y-79244000D01*
X112835000Y-79968999D01*
X112841581Y-79968999D01*
X112912102Y-79962591D01*
X112912107Y-79962590D01*
X113074396Y-79912018D01*
X113219877Y-79824072D01*
X113340072Y-79703877D01*
X113428019Y-79558395D01*
X113478590Y-79396106D01*
X113485000Y-79325572D01*
X113485000Y-79244000D01*
X112835000Y-79244000D01*
X112335000Y-79244000D01*
X112335000Y-78019000D01*
X112835000Y-78019000D01*
X112835000Y-78744000D01*
X113484999Y-78744000D01*
X113484999Y-78662417D01*
X113478591Y-78591897D01*
X113478590Y-78591892D01*
X113428018Y-78429603D01*
X113340072Y-78284122D01*
X113219877Y-78163927D01*
X113074395Y-78075980D01*
X113074396Y-78075980D01*
X112912105Y-78025409D01*
X112912106Y-78025409D01*
X112841572Y-78019000D01*
X112835000Y-78019000D01*
X112335000Y-78019000D01*
X112334999Y-78018999D01*
X112328436Y-78019000D01*
X112328417Y-78019001D01*
X112257897Y-78025408D01*
X112257892Y-78025409D01*
X112095603Y-78075981D01*
X111950122Y-78163927D01*
X111829927Y-78284122D01*
X111741981Y-78429603D01*
X111716863Y-78510209D01*
X111678125Y-78568356D01*
X111614100Y-78596330D01*
X111545115Y-78585248D01*
X111493072Y-78538629D01*
X111488002Y-78529630D01*
X111463050Y-78480658D01*
X111463048Y-78480656D01*
X111463045Y-78480652D01*
X111373347Y-78390954D01*
X111373344Y-78390952D01*
X111373342Y-78390950D01*
X111296517Y-78351805D01*
X111260301Y-78333352D01*
X111166524Y-78318500D01*
X110703482Y-78318500D01*
X110622519Y-78331323D01*
X110609696Y-78333354D01*
X110496658Y-78390950D01*
X110496657Y-78390951D01*
X110496652Y-78390954D01*
X110406950Y-78480657D01*
X110401214Y-78488552D01*
X110398940Y-78486899D01*
X110361454Y-78526591D01*
X110298943Y-78543500D01*
X109602548Y-78543500D01*
X109535509Y-78523815D01*
X109490166Y-78471905D01*
X109452416Y-78390951D01*
X109390033Y-78257170D01*
X109254493Y-78063598D01*
X109254492Y-78063596D01*
X109087400Y-77896505D01*
X109087393Y-77896500D01*
X108893832Y-77760966D01*
X108893828Y-77760964D01*
X108893826Y-77760963D01*
X108679661Y-77661096D01*
X108679657Y-77661095D01*
X108679653Y-77661093D01*
X108451411Y-77599937D01*
X108451401Y-77599935D01*
X108215999Y-77579340D01*
X108215997Y-77579340D01*
X107980594Y-77599935D01*
X107980584Y-77599937D01*
X107752342Y-77661093D01*
X107752333Y-77661097D01*
X107538169Y-77760963D01*
X107538167Y-77760964D01*
X107344595Y-77896504D01*
X107177503Y-78063596D01*
X107041963Y-78257168D01*
X107041962Y-78257170D01*
X106942096Y-78471334D01*
X106942092Y-78471343D01*
X106880936Y-78699585D01*
X106880934Y-78699595D01*
X106860339Y-78934998D01*
X106860339Y-78934999D01*
X104071658Y-78934999D01*
X104051062Y-78699591D01*
X103992398Y-78480652D01*
X103989904Y-78471343D01*
X103989903Y-78471342D01*
X103989902Y-78471336D01*
X103890034Y-78257170D01*
X103754494Y-78063598D01*
X103754493Y-78063596D01*
X103587401Y-77896505D01*
X103587394Y-77896500D01*
X103393833Y-77760966D01*
X103393829Y-77760964D01*
X103393827Y-77760963D01*
X103179662Y-77661096D01*
X103179658Y-77661095D01*
X103179654Y-77661093D01*
X102951412Y-77599937D01*
X102951402Y-77599935D01*
X102716000Y-77579340D01*
X102715998Y-77579340D01*
X102480595Y-77599935D01*
X102480585Y-77599937D01*
X102252343Y-77661093D01*
X102252334Y-77661097D01*
X102038170Y-77760963D01*
X102038168Y-77760964D01*
X101844596Y-77896504D01*
X101677504Y-78063596D01*
X101541964Y-78257168D01*
X101541963Y-78257170D01*
X101442097Y-78471334D01*
X101442093Y-78471343D01*
X101380937Y-78699585D01*
X101380935Y-78699595D01*
X101360050Y-78938308D01*
X101334597Y-79003377D01*
X101278006Y-79044355D01*
X101236522Y-79051500D01*
X100712057Y-79051500D01*
X100645018Y-79031815D01*
X100611793Y-78995093D01*
X100609786Y-78996552D01*
X100604050Y-78988657D01*
X100514347Y-78898954D01*
X100514344Y-78898952D01*
X100514342Y-78898950D01*
X100437517Y-78859805D01*
X100401301Y-78841352D01*
X100307524Y-78826500D01*
X99844482Y-78826500D01*
X99763519Y-78839323D01*
X99750696Y-78841354D01*
X99637658Y-78898950D01*
X99637657Y-78898951D01*
X99637652Y-78898954D01*
X99547954Y-78988652D01*
X99547950Y-78988657D01*
X99523005Y-79037614D01*
X99475029Y-79088409D01*
X99407208Y-79105203D01*
X99341074Y-79082664D01*
X99297623Y-79027948D01*
X99294135Y-79018207D01*
X99269017Y-78937600D01*
X99181072Y-78792122D01*
X99060877Y-78671927D01*
X98915395Y-78583980D01*
X98915396Y-78583980D01*
X98753105Y-78533409D01*
X98753106Y-78533409D01*
X98682572Y-78527000D01*
X98676000Y-78527000D01*
X98676000Y-80476999D01*
X98169426Y-80476999D01*
X98175999Y-80476998D01*
X98176000Y-80476998D01*
X98176000Y-79752000D01*
X97526001Y-79752000D01*
X87000000Y-79752000D01*
X87000000Y-79252000D01*
X97526000Y-79252000D01*
X98176000Y-79252000D01*
X98176000Y-78527000D01*
X98175999Y-78526999D01*
X98169436Y-78527000D01*
X98169417Y-78527001D01*
X98098897Y-78533408D01*
X98098892Y-78533409D01*
X97936603Y-78583981D01*
X97791122Y-78671927D01*
X97670927Y-78792122D01*
X97582980Y-78937604D01*
X97532409Y-79099893D01*
X97526000Y-79170427D01*
X97526000Y-79252000D01*
X87000000Y-79252000D01*
X87000000Y-74926000D01*
X97589001Y-74926000D01*
X97589001Y-75007582D01*
X97595408Y-75078102D01*
X97595409Y-75078107D01*
X97645981Y-75240396D01*
X97733927Y-75385877D01*
X97854122Y-75506072D01*
X97999604Y-75594019D01*
X97999603Y-75594019D01*
X98161894Y-75644590D01*
X98161893Y-75644590D01*
X98232408Y-75650998D01*
X98232426Y-75650999D01*
X98739000Y-75650999D01*
X98745581Y-75650999D01*
X98816102Y-75644591D01*
X98816107Y-75644590D01*
X98978396Y-75594018D01*
X99123877Y-75506072D01*
X99244072Y-75385877D01*
X99332017Y-75240398D01*
X99357135Y-75159792D01*
X99395872Y-75101644D01*
X99459897Y-75073669D01*
X99528883Y-75084750D01*
X99580926Y-75131368D01*
X99586001Y-75140377D01*
X99610950Y-75189342D01*
X99610952Y-75189344D01*
X99610954Y-75189347D01*
X99700652Y-75279045D01*
X99700654Y-75279046D01*
X99700658Y-75279050D01*
X99813694Y-75336645D01*
X99813698Y-75336647D01*
X99907475Y-75351499D01*
X99907481Y-75351500D01*
X100370518Y-75351499D01*
X100464304Y-75336646D01*
X100577342Y-75279050D01*
X100634575Y-75221816D01*
X100695896Y-75188333D01*
X100722255Y-75185499D01*
X101356962Y-75185499D01*
X101424001Y-75205184D01*
X101469342Y-75257092D01*
X101513366Y-75351500D01*
X101541964Y-75412829D01*
X101541966Y-75412833D01*
X101650280Y-75567520D01*
X101677504Y-75606400D01*
X101844598Y-75773494D01*
X101941383Y-75841264D01*
X102038164Y-75909031D01*
X102038166Y-75909032D01*
X102038169Y-75909034D01*
X102252336Y-76008902D01*
X102480591Y-76070062D01*
X102668917Y-76086538D01*
X102715998Y-76090658D01*
X102715999Y-76090658D01*
X102716000Y-76090658D01*
X102755233Y-76087225D01*
X102951407Y-76070062D01*
X103179662Y-76008902D01*
X103393829Y-75909034D01*
X103587400Y-75773494D01*
X103754494Y-75606400D01*
X103890034Y-75412829D01*
X103989902Y-75198662D01*
X104051062Y-74970407D01*
X104071658Y-74734999D01*
X106860339Y-74734999D01*
X106880934Y-74970402D01*
X106880936Y-74970412D01*
X106942092Y-75198654D01*
X106942094Y-75198658D01*
X106942095Y-75198662D01*
X106979580Y-75279048D01*
X107041963Y-75412829D01*
X107041965Y-75412833D01*
X107150279Y-75567520D01*
X107177503Y-75606400D01*
X107344597Y-75773494D01*
X107441382Y-75841264D01*
X107538163Y-75909031D01*
X107538165Y-75909032D01*
X107538168Y-75909034D01*
X107752335Y-76008902D01*
X107980590Y-76070062D01*
X108168916Y-76086538D01*
X108215997Y-76090658D01*
X108215998Y-76090658D01*
X108215999Y-76090658D01*
X108255232Y-76087225D01*
X108451406Y-76070062D01*
X108679661Y-76008902D01*
X108893828Y-75909034D01*
X109087399Y-75773494D01*
X109254493Y-75606400D01*
X109390033Y-75412829D01*
X109489901Y-75198662D01*
X109489901Y-75198659D01*
X109490165Y-75198095D01*
X109536337Y-75145656D01*
X109602547Y-75126500D01*
X110361943Y-75126500D01*
X110428982Y-75146185D01*
X110462206Y-75182906D01*
X110464214Y-75181448D01*
X110469950Y-75189343D01*
X110559652Y-75279045D01*
X110559654Y-75279046D01*
X110559658Y-75279050D01*
X110672694Y-75336645D01*
X110672698Y-75336647D01*
X110766475Y-75351499D01*
X110766481Y-75351500D01*
X111229518Y-75351499D01*
X111323304Y-75336646D01*
X111436342Y-75279050D01*
X111526050Y-75189342D01*
X111550995Y-75140384D01*
X111598967Y-75089591D01*
X111666788Y-75072796D01*
X111732923Y-75095333D01*
X111776375Y-75150048D01*
X111779863Y-75159791D01*
X111804981Y-75240396D01*
X111892927Y-75385877D01*
X112013122Y-75506072D01*
X112158604Y-75594019D01*
X112158603Y-75594019D01*
X112320894Y-75644590D01*
X112320893Y-75644590D01*
X112391408Y-75650998D01*
X112391426Y-75650999D01*
X112397999Y-75650998D01*
X112398000Y-75650998D01*
X112398000Y-74926000D01*
X112898000Y-74926000D01*
X112898000Y-75650999D01*
X112904581Y-75650999D01*
X112975102Y-75644591D01*
X112975107Y-75644590D01*
X113137396Y-75594018D01*
X113282877Y-75506072D01*
X113403072Y-75385877D01*
X113491019Y-75240395D01*
X113541590Y-75078106D01*
X113548000Y-75007572D01*
X113548000Y-74926000D01*
X112898000Y-74926000D01*
X112398000Y-74926000D01*
X112398000Y-73701000D01*
X112898000Y-73701000D01*
X112898000Y-74426000D01*
X113547999Y-74426000D01*
X113547999Y-74344417D01*
X113541591Y-74273897D01*
X113541590Y-74273892D01*
X113491018Y-74111603D01*
X113403072Y-73966122D01*
X113282877Y-73845927D01*
X113137395Y-73757980D01*
X113137396Y-73757980D01*
X112975105Y-73707409D01*
X112975106Y-73707409D01*
X112904572Y-73701000D01*
X112898000Y-73701000D01*
X112398000Y-73701000D01*
X112397999Y-73700999D01*
X112391436Y-73701000D01*
X112391417Y-73701001D01*
X112320897Y-73707408D01*
X112320892Y-73707409D01*
X112158603Y-73757981D01*
X112013122Y-73845927D01*
X111892927Y-73966122D01*
X111804981Y-74111603D01*
X111779863Y-74192209D01*
X111741125Y-74250356D01*
X111677100Y-74278330D01*
X111608115Y-74267248D01*
X111556072Y-74220629D01*
X111550994Y-74211614D01*
X111526050Y-74162658D01*
X111526048Y-74162656D01*
X111526045Y-74162652D01*
X111436347Y-74072954D01*
X111436344Y-74072952D01*
X111436342Y-74072950D01*
X111359517Y-74033805D01*
X111323301Y-74015352D01*
X111229524Y-74000500D01*
X110766482Y-74000500D01*
X110685519Y-74013323D01*
X110672696Y-74015354D01*
X110559658Y-74072950D01*
X110559657Y-74072951D01*
X110559652Y-74072954D01*
X110469950Y-74162657D01*
X110464214Y-74170552D01*
X110461940Y-74168899D01*
X110424454Y-74208591D01*
X110361943Y-74225500D01*
X109547523Y-74225500D01*
X109480484Y-74205815D01*
X109435142Y-74153906D01*
X109390033Y-74057170D01*
X109390031Y-74057167D01*
X109390030Y-74057165D01*
X109254492Y-73863596D01*
X109087400Y-73696505D01*
X109087393Y-73696500D01*
X108893832Y-73560966D01*
X108893828Y-73560964D01*
X108893826Y-73560963D01*
X108679661Y-73461096D01*
X108679657Y-73461095D01*
X108679653Y-73461093D01*
X108451411Y-73399937D01*
X108451401Y-73399935D01*
X108215999Y-73379340D01*
X108215997Y-73379340D01*
X107980594Y-73399935D01*
X107980584Y-73399937D01*
X107752342Y-73461093D01*
X107752333Y-73461097D01*
X107538169Y-73560963D01*
X107538167Y-73560964D01*
X107344595Y-73696504D01*
X107177503Y-73863596D01*
X107041963Y-74057168D01*
X107041962Y-74057170D01*
X106942096Y-74271334D01*
X106942092Y-74271343D01*
X106880936Y-74499585D01*
X106880934Y-74499595D01*
X106860339Y-74734998D01*
X106860339Y-74734999D01*
X104071658Y-74734999D01*
X104051062Y-74499591D01*
X103989902Y-74271336D01*
X103890034Y-74057170D01*
X103890033Y-74057168D01*
X103754493Y-73863596D01*
X103587401Y-73696505D01*
X103587394Y-73696500D01*
X103393833Y-73560966D01*
X103393829Y-73560964D01*
X103393827Y-73560963D01*
X103179662Y-73461096D01*
X103179658Y-73461095D01*
X103179654Y-73461093D01*
X102951412Y-73399937D01*
X102951402Y-73399935D01*
X102716000Y-73379340D01*
X102715998Y-73379340D01*
X102480595Y-73399935D01*
X102480585Y-73399937D01*
X102252343Y-73461093D01*
X102252334Y-73461097D01*
X102038170Y-73560963D01*
X102038168Y-73560964D01*
X101844596Y-73696504D01*
X101677504Y-73863596D01*
X101541964Y-74057168D01*
X101541963Y-74057170D01*
X101496855Y-74153905D01*
X101469342Y-74212905D01*
X101423172Y-74265343D01*
X101356962Y-74284499D01*
X100805119Y-74284499D01*
X100738080Y-74264814D01*
X100694635Y-74216795D01*
X100670230Y-74168899D01*
X100667050Y-74162658D01*
X100667047Y-74162655D01*
X100667045Y-74162652D01*
X100577347Y-74072954D01*
X100577344Y-74072952D01*
X100577342Y-74072950D01*
X100500517Y-74033805D01*
X100464301Y-74015352D01*
X100370524Y-74000500D01*
X99907482Y-74000500D01*
X99826519Y-74013323D01*
X99813696Y-74015354D01*
X99700658Y-74072950D01*
X99700657Y-74072951D01*
X99700652Y-74072954D01*
X99610954Y-74162652D01*
X99610950Y-74162657D01*
X99586005Y-74211614D01*
X99538029Y-74262409D01*
X99470208Y-74279203D01*
X99404074Y-74256664D01*
X99360623Y-74201948D01*
X99357135Y-74192207D01*
X99332017Y-74111600D01*
X99244072Y-73966122D01*
X99123877Y-73845927D01*
X98978395Y-73757980D01*
X98978396Y-73757980D01*
X98816105Y-73707409D01*
X98816106Y-73707409D01*
X98745572Y-73701000D01*
X98739000Y-73701000D01*
X98739000Y-75650999D01*
X98232426Y-75650999D01*
X98238999Y-75650998D01*
X98239000Y-75650998D01*
X98239000Y-74926000D01*
X97589001Y-74926000D01*
X87000000Y-74926000D01*
X87000000Y-74426000D01*
X97589000Y-74426000D01*
X98239000Y-74426000D01*
X98239000Y-73701000D01*
X98238999Y-73700999D01*
X98232436Y-73701000D01*
X98232417Y-73701001D01*
X98161897Y-73707408D01*
X98161892Y-73707409D01*
X97999603Y-73757981D01*
X97854122Y-73845927D01*
X97733927Y-73966122D01*
X97645980Y-74111604D01*
X97595409Y-74273893D01*
X97589000Y-74344427D01*
X97589000Y-74426000D01*
X87000000Y-74426000D01*
X87000000Y-70608000D01*
X97652001Y-70608000D01*
X97652001Y-70689582D01*
X97658408Y-70760102D01*
X97658409Y-70760107D01*
X97708981Y-70922396D01*
X97796927Y-71067877D01*
X97917122Y-71188072D01*
X98062604Y-71276019D01*
X98062603Y-71276019D01*
X98224894Y-71326590D01*
X98224893Y-71326590D01*
X98295408Y-71332998D01*
X98295426Y-71332999D01*
X98802000Y-71332999D01*
X98808581Y-71332999D01*
X98879102Y-71326591D01*
X98879107Y-71326590D01*
X99041396Y-71276018D01*
X99186877Y-71188072D01*
X99307072Y-71067877D01*
X99395017Y-70922398D01*
X99420135Y-70841792D01*
X99458872Y-70783644D01*
X99522897Y-70755669D01*
X99591883Y-70766750D01*
X99643926Y-70813368D01*
X99649001Y-70822377D01*
X99673950Y-70871342D01*
X99673952Y-70871344D01*
X99673954Y-70871347D01*
X99763652Y-70961045D01*
X99763654Y-70961046D01*
X99763658Y-70961050D01*
X99867786Y-71014106D01*
X99876698Y-71018647D01*
X99970475Y-71033499D01*
X99970481Y-71033500D01*
X100433518Y-71033499D01*
X100527304Y-71018646D01*
X100565832Y-70999015D01*
X100622126Y-70985500D01*
X101356962Y-70985500D01*
X101424001Y-71005185D01*
X101469342Y-71057093D01*
X101530419Y-71188072D01*
X101541964Y-71212830D01*
X101541966Y-71212834D01*
X101626107Y-71332999D01*
X101677504Y-71406401D01*
X101844598Y-71573495D01*
X101863884Y-71586999D01*
X102038164Y-71709032D01*
X102038166Y-71709033D01*
X102038169Y-71709035D01*
X102252336Y-71808903D01*
X102480591Y-71870063D01*
X102668917Y-71886539D01*
X102715998Y-71890659D01*
X102715999Y-71890659D01*
X102716000Y-71890659D01*
X102755233Y-71887226D01*
X102951407Y-71870063D01*
X103179662Y-71808903D01*
X103393829Y-71709035D01*
X103587400Y-71573495D01*
X103754494Y-71406401D01*
X103890034Y-71212830D01*
X103989902Y-70998663D01*
X104051062Y-70770408D01*
X104071658Y-70535000D01*
X106860339Y-70535000D01*
X106880934Y-70770403D01*
X106880936Y-70770413D01*
X106942092Y-70998655D01*
X106942094Y-70998659D01*
X106942095Y-70998663D01*
X107030418Y-71188072D01*
X107041963Y-71212830D01*
X107041965Y-71212834D01*
X107126106Y-71332999D01*
X107177503Y-71406401D01*
X107344597Y-71573495D01*
X107363883Y-71586999D01*
X107538163Y-71709032D01*
X107538165Y-71709033D01*
X107538168Y-71709035D01*
X107752335Y-71808903D01*
X107980590Y-71870063D01*
X108168916Y-71886539D01*
X108215997Y-71890659D01*
X108215998Y-71890659D01*
X108215999Y-71890659D01*
X108255232Y-71887226D01*
X108451406Y-71870063D01*
X108679661Y-71808903D01*
X108893828Y-71709035D01*
X109087399Y-71573495D01*
X109254493Y-71406401D01*
X109390033Y-71212830D01*
X109462654Y-71057093D01*
X109508825Y-71004656D01*
X109575035Y-70985500D01*
X110513710Y-70985500D01*
X110580749Y-71005185D01*
X110624193Y-71053202D01*
X110660950Y-71125342D01*
X110660952Y-71125344D01*
X110660954Y-71125347D01*
X110750652Y-71215045D01*
X110750654Y-71215046D01*
X110750658Y-71215050D01*
X110863694Y-71272645D01*
X110863698Y-71272647D01*
X110957475Y-71287499D01*
X110957481Y-71287500D01*
X111420518Y-71287499D01*
X111514304Y-71272646D01*
X111627342Y-71215050D01*
X111717050Y-71125342D01*
X111741995Y-71076384D01*
X111789967Y-71025591D01*
X111857788Y-71008796D01*
X111923923Y-71031333D01*
X111967375Y-71086048D01*
X111970863Y-71095791D01*
X111995981Y-71176396D01*
X112083927Y-71321877D01*
X112204122Y-71442072D01*
X112349604Y-71530019D01*
X112349603Y-71530019D01*
X112511894Y-71580590D01*
X112511893Y-71580590D01*
X112582408Y-71586998D01*
X112582426Y-71586999D01*
X112588999Y-71586998D01*
X112589000Y-71586998D01*
X112589000Y-70862000D01*
X113089000Y-70862000D01*
X113089000Y-71586999D01*
X113095581Y-71586999D01*
X113166102Y-71580591D01*
X113166107Y-71580590D01*
X113328396Y-71530018D01*
X113473877Y-71442072D01*
X113594072Y-71321877D01*
X113682019Y-71176395D01*
X113732590Y-71014106D01*
X113739000Y-70943572D01*
X113739000Y-70862000D01*
X113089000Y-70862000D01*
X112589000Y-70862000D01*
X112589000Y-69637000D01*
X113089000Y-69637000D01*
X113089000Y-70362000D01*
X113738999Y-70362000D01*
X113738999Y-70280417D01*
X113732591Y-70209897D01*
X113732590Y-70209892D01*
X113682018Y-70047603D01*
X113594072Y-69902122D01*
X113473877Y-69781927D01*
X113328395Y-69693980D01*
X113328396Y-69693980D01*
X113166105Y-69643409D01*
X113166106Y-69643409D01*
X113095572Y-69637000D01*
X113089000Y-69637000D01*
X112589000Y-69637000D01*
X112588999Y-69636999D01*
X112582436Y-69637000D01*
X112582417Y-69637001D01*
X112511897Y-69643408D01*
X112511892Y-69643409D01*
X112349603Y-69693981D01*
X112204122Y-69781927D01*
X112083927Y-69902122D01*
X111995981Y-70047603D01*
X111970863Y-70128209D01*
X111932125Y-70186356D01*
X111868100Y-70214330D01*
X111799115Y-70203248D01*
X111747072Y-70156629D01*
X111742002Y-70147630D01*
X111717050Y-70098658D01*
X111717048Y-70098656D01*
X111717045Y-70098652D01*
X111627347Y-70008954D01*
X111627344Y-70008952D01*
X111627342Y-70008950D01*
X111526751Y-69957696D01*
X111514301Y-69951352D01*
X111420524Y-69936500D01*
X110957482Y-69936500D01*
X110876519Y-69949323D01*
X110863696Y-69951354D01*
X110750658Y-70008950D01*
X110750657Y-70008951D01*
X110750653Y-70008953D01*
X110711428Y-70048180D01*
X110650105Y-70081666D01*
X110623746Y-70084500D01*
X109575035Y-70084500D01*
X109507996Y-70064815D01*
X109462654Y-70012906D01*
X109390033Y-69857171D01*
X109381272Y-69844658D01*
X109254492Y-69663597D01*
X109087400Y-69496506D01*
X109087393Y-69496501D01*
X108893832Y-69360967D01*
X108893828Y-69360965D01*
X108893826Y-69360964D01*
X108679661Y-69261097D01*
X108679657Y-69261096D01*
X108679653Y-69261094D01*
X108451411Y-69199938D01*
X108451401Y-69199936D01*
X108215999Y-69179341D01*
X108215997Y-69179341D01*
X107980594Y-69199936D01*
X107980584Y-69199938D01*
X107752342Y-69261094D01*
X107752333Y-69261098D01*
X107538169Y-69360964D01*
X107538167Y-69360965D01*
X107344595Y-69496505D01*
X107177503Y-69663597D01*
X107041963Y-69857169D01*
X107041962Y-69857171D01*
X106942096Y-70071335D01*
X106942092Y-70071344D01*
X106880936Y-70299586D01*
X106880934Y-70299596D01*
X106860339Y-70534999D01*
X106860339Y-70535000D01*
X104071658Y-70535000D01*
X104051062Y-70299592D01*
X103989902Y-70071337D01*
X103890034Y-69857171D01*
X103881273Y-69844658D01*
X103754493Y-69663597D01*
X103587401Y-69496506D01*
X103587394Y-69496501D01*
X103393833Y-69360967D01*
X103393829Y-69360965D01*
X103393827Y-69360964D01*
X103179662Y-69261097D01*
X103179658Y-69261096D01*
X103179654Y-69261094D01*
X102951412Y-69199938D01*
X102951402Y-69199936D01*
X102716000Y-69179341D01*
X102715998Y-69179341D01*
X102480595Y-69199936D01*
X102480585Y-69199938D01*
X102252343Y-69261094D01*
X102252334Y-69261098D01*
X102038170Y-69360964D01*
X102038168Y-69360965D01*
X101844596Y-69496505D01*
X101677504Y-69663597D01*
X101541964Y-69857169D01*
X101541963Y-69857171D01*
X101503963Y-69938664D01*
X101469342Y-70012906D01*
X101423172Y-70065344D01*
X101356962Y-70084500D01*
X100913636Y-70084500D01*
X100846597Y-70064815D01*
X100800842Y-70012011D01*
X100791163Y-69979898D01*
X100787647Y-69957699D01*
X100787646Y-69957697D01*
X100787646Y-69957696D01*
X100730050Y-69844658D01*
X100730046Y-69844654D01*
X100730045Y-69844652D01*
X100640347Y-69754954D01*
X100640344Y-69754952D01*
X100640342Y-69754950D01*
X100563517Y-69715805D01*
X100527301Y-69697352D01*
X100433524Y-69682500D01*
X99970482Y-69682500D01*
X99889519Y-69695323D01*
X99876696Y-69697354D01*
X99763658Y-69754950D01*
X99763657Y-69754951D01*
X99763652Y-69754954D01*
X99673954Y-69844652D01*
X99673950Y-69844657D01*
X99649005Y-69893614D01*
X99601029Y-69944409D01*
X99533208Y-69961203D01*
X99467074Y-69938664D01*
X99423623Y-69883948D01*
X99420135Y-69874207D01*
X99395017Y-69793600D01*
X99307072Y-69648122D01*
X99186877Y-69527927D01*
X99041395Y-69439980D01*
X99041396Y-69439980D01*
X98879105Y-69389409D01*
X98879106Y-69389409D01*
X98808572Y-69383000D01*
X98802000Y-69383000D01*
X98802000Y-71332999D01*
X98295426Y-71332999D01*
X98301999Y-71332998D01*
X98302000Y-71332998D01*
X98302000Y-70608000D01*
X97652001Y-70608000D01*
X87000000Y-70608000D01*
X87000000Y-70108000D01*
X97652000Y-70108000D01*
X98302000Y-70108000D01*
X98302000Y-69383000D01*
X98301999Y-69382999D01*
X98295436Y-69383000D01*
X98295417Y-69383001D01*
X98224897Y-69389408D01*
X98224892Y-69389409D01*
X98062603Y-69439981D01*
X97917122Y-69527927D01*
X97796927Y-69648122D01*
X97708980Y-69793604D01*
X97658409Y-69955893D01*
X97652000Y-70026427D01*
X97652000Y-70108000D01*
X87000000Y-70108000D01*
X87000000Y-66290000D01*
X97589001Y-66290000D01*
X97589001Y-66371582D01*
X97595408Y-66442102D01*
X97595409Y-66442107D01*
X97645981Y-66604396D01*
X97733927Y-66749877D01*
X97854122Y-66870072D01*
X97999604Y-66958019D01*
X97999603Y-66958019D01*
X98161894Y-67008590D01*
X98161893Y-67008590D01*
X98232408Y-67014998D01*
X98232426Y-67014999D01*
X98739000Y-67014999D01*
X98745581Y-67014999D01*
X98816102Y-67008591D01*
X98816107Y-67008590D01*
X98978396Y-66958018D01*
X99123877Y-66870072D01*
X99244072Y-66749877D01*
X99332017Y-66604398D01*
X99357135Y-66523792D01*
X99395872Y-66465644D01*
X99459897Y-66437669D01*
X99528883Y-66448750D01*
X99580926Y-66495368D01*
X99586001Y-66504377D01*
X99610950Y-66553342D01*
X99610952Y-66553344D01*
X99610954Y-66553347D01*
X99700652Y-66643045D01*
X99700654Y-66643046D01*
X99700658Y-66643050D01*
X99813696Y-66700646D01*
X99813698Y-66700647D01*
X99907475Y-66715499D01*
X99907481Y-66715500D01*
X100154115Y-66715499D01*
X100221154Y-66735183D01*
X100223965Y-66737045D01*
X100236323Y-66745470D01*
X100236325Y-66745471D01*
X100236328Y-66745473D01*
X100366099Y-66785501D01*
X101356962Y-66785501D01*
X101424001Y-66805186D01*
X101469342Y-66857094D01*
X101520748Y-66967333D01*
X101541964Y-67012831D01*
X101541966Y-67012835D01*
X101638745Y-67151048D01*
X101677504Y-67206402D01*
X101844598Y-67373496D01*
X101941383Y-67441266D01*
X102038164Y-67509033D01*
X102038166Y-67509034D01*
X102038169Y-67509036D01*
X102252336Y-67608904D01*
X102480591Y-67670064D01*
X102668917Y-67686540D01*
X102715998Y-67690660D01*
X102715999Y-67690660D01*
X102716000Y-67690660D01*
X102755233Y-67687227D01*
X102951407Y-67670064D01*
X103179662Y-67608904D01*
X103393829Y-67509036D01*
X103587400Y-67373496D01*
X103754494Y-67206402D01*
X103890034Y-67012831D01*
X103989902Y-66798664D01*
X104051062Y-66570409D01*
X104071658Y-66335001D01*
X106860339Y-66335001D01*
X106880934Y-66570404D01*
X106880936Y-66570414D01*
X106942092Y-66798656D01*
X106942094Y-66798660D01*
X106942095Y-66798664D01*
X107012714Y-66950106D01*
X107041963Y-67012831D01*
X107041965Y-67012835D01*
X107138744Y-67151048D01*
X107177503Y-67206402D01*
X107344597Y-67373496D01*
X107441382Y-67441266D01*
X107538163Y-67509033D01*
X107538165Y-67509034D01*
X107538168Y-67509036D01*
X107752335Y-67608904D01*
X107980590Y-67670064D01*
X108168916Y-67686540D01*
X108215997Y-67690660D01*
X108215998Y-67690660D01*
X108215999Y-67690660D01*
X108255232Y-67687227D01*
X108451406Y-67670064D01*
X108679661Y-67608904D01*
X108893828Y-67509036D01*
X109087399Y-67373496D01*
X109254493Y-67206402D01*
X109390033Y-67012831D01*
X109462654Y-66857094D01*
X109508825Y-66804657D01*
X109575035Y-66785501D01*
X110471663Y-66785501D01*
X110538702Y-66805186D01*
X110584457Y-66857990D01*
X110594136Y-66890102D01*
X110603354Y-66948304D01*
X110660950Y-67061342D01*
X110660952Y-67061344D01*
X110660954Y-67061347D01*
X110750652Y-67151045D01*
X110750654Y-67151046D01*
X110750658Y-67151050D01*
X110859280Y-67206396D01*
X110863698Y-67208647D01*
X110957475Y-67223499D01*
X110957481Y-67223500D01*
X111420518Y-67223499D01*
X111514304Y-67208646D01*
X111627342Y-67151050D01*
X111717050Y-67061342D01*
X111741995Y-67012384D01*
X111789967Y-66961591D01*
X111857788Y-66944796D01*
X111923923Y-66967333D01*
X111967375Y-67022048D01*
X111970863Y-67031791D01*
X111995981Y-67112396D01*
X112083927Y-67257877D01*
X112204122Y-67378072D01*
X112349604Y-67466019D01*
X112349603Y-67466019D01*
X112511894Y-67516590D01*
X112511893Y-67516590D01*
X112582408Y-67522998D01*
X112582426Y-67522999D01*
X112588999Y-67522998D01*
X112589000Y-67522998D01*
X112589000Y-66798000D01*
X113089000Y-66798000D01*
X113089000Y-67522999D01*
X113095581Y-67522999D01*
X113166102Y-67516591D01*
X113166107Y-67516590D01*
X113328396Y-67466018D01*
X113473877Y-67378072D01*
X113594072Y-67257877D01*
X113682019Y-67112395D01*
X113732590Y-66950106D01*
X113739000Y-66879572D01*
X113739000Y-66798000D01*
X113089000Y-66798000D01*
X112589000Y-66798000D01*
X112589000Y-65573000D01*
X113089000Y-65573000D01*
X113089000Y-66298000D01*
X113738999Y-66298000D01*
X113738999Y-66216417D01*
X113732591Y-66145897D01*
X113732590Y-66145892D01*
X113682018Y-65983603D01*
X113594072Y-65838122D01*
X113473877Y-65717927D01*
X113328395Y-65629980D01*
X113328396Y-65629980D01*
X113166105Y-65579409D01*
X113166106Y-65579409D01*
X113095572Y-65573000D01*
X113089000Y-65573000D01*
X112589000Y-65573000D01*
X112588999Y-65572999D01*
X112582436Y-65573000D01*
X112582417Y-65573001D01*
X112511897Y-65579408D01*
X112511892Y-65579409D01*
X112349603Y-65629981D01*
X112204122Y-65717927D01*
X112083927Y-65838122D01*
X111995981Y-65983603D01*
X111970863Y-66064209D01*
X111932125Y-66122356D01*
X111868100Y-66150330D01*
X111799115Y-66139248D01*
X111747072Y-66092629D01*
X111742002Y-66083630D01*
X111717050Y-66034658D01*
X111717048Y-66034656D01*
X111717045Y-66034652D01*
X111627347Y-65944954D01*
X111627344Y-65944952D01*
X111627342Y-65944950D01*
X111550517Y-65905805D01*
X111514301Y-65887352D01*
X111420524Y-65872500D01*
X110957481Y-65872500D01*
X110891346Y-65882975D01*
X110871950Y-65884501D01*
X109575035Y-65884501D01*
X109507996Y-65864816D01*
X109462654Y-65812907D01*
X109390033Y-65657172D01*
X109377797Y-65639696D01*
X109254492Y-65463598D01*
X109087400Y-65296507D01*
X109087393Y-65296502D01*
X108893832Y-65160968D01*
X108893828Y-65160966D01*
X108893826Y-65160965D01*
X108679661Y-65061098D01*
X108679657Y-65061097D01*
X108679653Y-65061095D01*
X108451411Y-64999939D01*
X108451401Y-64999937D01*
X108215999Y-64979342D01*
X108215997Y-64979342D01*
X107980594Y-64999937D01*
X107980584Y-64999939D01*
X107752342Y-65061095D01*
X107752333Y-65061099D01*
X107538169Y-65160965D01*
X107538167Y-65160966D01*
X107344595Y-65296506D01*
X107177503Y-65463598D01*
X107041963Y-65657170D01*
X107041962Y-65657172D01*
X106942096Y-65871336D01*
X106942092Y-65871345D01*
X106880936Y-66099587D01*
X106880934Y-66099597D01*
X106860339Y-66335000D01*
X106860339Y-66335001D01*
X104071658Y-66335001D01*
X104051062Y-66099593D01*
X104004625Y-65926286D01*
X103989904Y-65871345D01*
X103989903Y-65871344D01*
X103989902Y-65871338D01*
X103890034Y-65657172D01*
X103877798Y-65639696D01*
X103754493Y-65463598D01*
X103587401Y-65296507D01*
X103587394Y-65296502D01*
X103393833Y-65160968D01*
X103393829Y-65160966D01*
X103393827Y-65160965D01*
X103179662Y-65061098D01*
X103179658Y-65061097D01*
X103179654Y-65061095D01*
X102951412Y-64999939D01*
X102951402Y-64999937D01*
X102716000Y-64979342D01*
X102715998Y-64979342D01*
X102480595Y-64999937D01*
X102480585Y-64999939D01*
X102252343Y-65061095D01*
X102252334Y-65061099D01*
X102038170Y-65160965D01*
X102038168Y-65160966D01*
X101844596Y-65296506D01*
X101677504Y-65463598D01*
X101541964Y-65657170D01*
X101541963Y-65657172D01*
X101518063Y-65708427D01*
X101469342Y-65812907D01*
X101423172Y-65865345D01*
X101356962Y-65884501D01*
X100863499Y-65884501D01*
X100796460Y-65864816D01*
X100750705Y-65812012D01*
X100739499Y-65760501D01*
X100739499Y-65733482D01*
X100739499Y-65733481D01*
X100724646Y-65639696D01*
X100667050Y-65526658D01*
X100667046Y-65526654D01*
X100667045Y-65526652D01*
X100577347Y-65436954D01*
X100577344Y-65436952D01*
X100577342Y-65436950D01*
X100500517Y-65397805D01*
X100464301Y-65379352D01*
X100370524Y-65364500D01*
X99907482Y-65364500D01*
X99826519Y-65377323D01*
X99813696Y-65379354D01*
X99700658Y-65436950D01*
X99700657Y-65436951D01*
X99700652Y-65436954D01*
X99610954Y-65526652D01*
X99610950Y-65526657D01*
X99586005Y-65575614D01*
X99538029Y-65626409D01*
X99470208Y-65643203D01*
X99404074Y-65620664D01*
X99360623Y-65565948D01*
X99357135Y-65556207D01*
X99332017Y-65475600D01*
X99244072Y-65330122D01*
X99123877Y-65209927D01*
X98978395Y-65121980D01*
X98978396Y-65121980D01*
X98816105Y-65071409D01*
X98816106Y-65071409D01*
X98745572Y-65065000D01*
X98739000Y-65065000D01*
X98739000Y-67014999D01*
X98232426Y-67014999D01*
X98238999Y-67014998D01*
X98239000Y-67014998D01*
X98239000Y-66290000D01*
X97589001Y-66290000D01*
X87000000Y-66290000D01*
X87000000Y-65790000D01*
X97589000Y-65790000D01*
X98239000Y-65790000D01*
X98239000Y-65065000D01*
X98238999Y-65064999D01*
X98232436Y-65065000D01*
X98232417Y-65065001D01*
X98161897Y-65071408D01*
X98161892Y-65071409D01*
X97999603Y-65121981D01*
X97854122Y-65209927D01*
X97733927Y-65330122D01*
X97645980Y-65475604D01*
X97595409Y-65637893D01*
X97589000Y-65708427D01*
X97589000Y-65790000D01*
X87000000Y-65790000D01*
X87000000Y-57124000D01*
X87019685Y-57056961D01*
X87072489Y-57011206D01*
X87124000Y-57000000D01*
X141851500Y-57000000D01*
X141918539Y-57019685D01*
G37*
%TD.AperFunction*%
%TD*%
M02*
