%TF.GenerationSoftware,KiCad,Pcbnew,7.0.10*%
%TF.CreationDate,2024-02-20T17:57:49-08:00*%
%TF.ProjectId,HarnessTesterAll,4861726e-6573-4735-9465-73746572416c,rev?*%
%TF.SameCoordinates,Original*%
%TF.FileFunction,Other,User*%
%FSLAX46Y46*%
G04 Gerber Fmt 4.6, Leading zero omitted, Abs format (unit mm)*
G04 Created by KiCad (PCBNEW 7.0.10) date 2024-02-20 17:57:49*
%MOMM*%
%LPD*%
G01*
G04 APERTURE LIST*
%ADD10C,0.050000*%
G04 APERTURE END LIST*
D10*
%TO.C,R13*%
X97834000Y-86646000D02*
X97834000Y-88106000D01*
X97834000Y-88106000D02*
X100794000Y-88106000D01*
X100794000Y-86646000D02*
X97834000Y-86646000D01*
X100794000Y-88106000D02*
X100794000Y-86646000D01*
%TO.C,R14*%
X97834000Y-82328000D02*
X97834000Y-83788000D01*
X97834000Y-83788000D02*
X100794000Y-83788000D01*
X100794000Y-82328000D02*
X97834000Y-82328000D01*
X100794000Y-83788000D02*
X100794000Y-82328000D01*
%TO.C,R20*%
X113049000Y-83788000D02*
X113049000Y-82328000D01*
X113049000Y-82328000D02*
X110089000Y-82328000D01*
X110089000Y-83788000D02*
X113049000Y-83788000D01*
X110089000Y-82328000D02*
X110089000Y-83788000D01*
%TO.C,R27*%
X120352000Y-115792000D02*
X120352000Y-114332000D01*
X120352000Y-114332000D02*
X117392000Y-114332000D01*
X117392000Y-115792000D02*
X120352000Y-115792000D01*
X117392000Y-114332000D02*
X117392000Y-115792000D01*
%TO.C,R23*%
X113494000Y-71342000D02*
X113494000Y-69882000D01*
X113494000Y-69882000D02*
X110534000Y-69882000D01*
X110534000Y-71342000D02*
X113494000Y-71342000D01*
X110534000Y-69882000D02*
X110534000Y-71342000D01*
%TO.C,R7*%
X113049000Y-123158000D02*
X113049000Y-121698000D01*
X113049000Y-121698000D02*
X110089000Y-121698000D01*
X110089000Y-123158000D02*
X113049000Y-123158000D01*
X110089000Y-121698000D02*
X110089000Y-123158000D01*
%TO.C,R1*%
X96818000Y-121698000D02*
X96818000Y-123158000D01*
X96818000Y-123158000D02*
X99778000Y-123158000D01*
X99778000Y-121698000D02*
X96818000Y-121698000D01*
X99778000Y-123158000D02*
X99778000Y-121698000D01*
%TO.C,R5*%
X96818000Y-104045000D02*
X96818000Y-105505000D01*
X96818000Y-105505000D02*
X99778000Y-105505000D01*
X99778000Y-104045000D02*
X96818000Y-104045000D01*
X99778000Y-105505000D02*
X99778000Y-104045000D01*
%TO.C,R24*%
X113494000Y-67278000D02*
X113494000Y-65818000D01*
X113494000Y-65818000D02*
X110534000Y-65818000D01*
X110534000Y-67278000D02*
X113494000Y-67278000D01*
X110534000Y-65818000D02*
X110534000Y-67278000D01*
%TO.C,R17*%
X97897000Y-69628000D02*
X97897000Y-71088000D01*
X97897000Y-71088000D02*
X100857000Y-71088000D01*
X100857000Y-69628000D02*
X97897000Y-69628000D01*
X100857000Y-71088000D02*
X100857000Y-69628000D01*
%TO.C,R15*%
X97771000Y-78772000D02*
X97771000Y-80232000D01*
X97771000Y-80232000D02*
X100731000Y-80232000D01*
X100731000Y-78772000D02*
X97771000Y-78772000D01*
X100731000Y-80232000D02*
X100731000Y-78772000D01*
%TO.C,R12*%
X113303000Y-102330000D02*
X113303000Y-100870000D01*
X113303000Y-100870000D02*
X110343000Y-100870000D01*
X110343000Y-102330000D02*
X113303000Y-102330000D01*
X110343000Y-100870000D02*
X110343000Y-102330000D01*
%TO.C,R11*%
X113240000Y-106394000D02*
X113240000Y-104934000D01*
X113240000Y-104934000D02*
X110280000Y-104934000D01*
X110280000Y-106394000D02*
X113240000Y-106394000D01*
X110280000Y-104934000D02*
X110280000Y-106394000D01*
%TO.C,R21*%
X113240000Y-79724000D02*
X113240000Y-78264000D01*
X113240000Y-78264000D02*
X110280000Y-78264000D01*
X110280000Y-79724000D02*
X113240000Y-79724000D01*
X110280000Y-78264000D02*
X110280000Y-79724000D01*
%TO.C,R3*%
X96818000Y-113570000D02*
X96818000Y-115030000D01*
X96818000Y-115030000D02*
X99778000Y-115030000D01*
X99778000Y-113570000D02*
X96818000Y-113570000D01*
X99778000Y-115030000D02*
X99778000Y-113570000D01*
%TO.C,R4*%
X96818000Y-109633000D02*
X96818000Y-111093000D01*
X96818000Y-111093000D02*
X99778000Y-111093000D01*
X99778000Y-109633000D02*
X96818000Y-109633000D01*
X99778000Y-111093000D02*
X99778000Y-109633000D01*
%TO.C,R22*%
X113303000Y-75406000D02*
X113303000Y-73946000D01*
X113303000Y-73946000D02*
X110343000Y-73946000D01*
X110343000Y-75406000D02*
X113303000Y-75406000D01*
X110343000Y-73946000D02*
X110343000Y-75406000D01*
%TO.C,R6*%
X96818000Y-100870000D02*
X96818000Y-102330000D01*
X96818000Y-102330000D02*
X99778000Y-102330000D01*
X99778000Y-100870000D02*
X96818000Y-100870000D01*
X99778000Y-102330000D02*
X99778000Y-100870000D01*
%TO.C,R18*%
X97834000Y-65310000D02*
X97834000Y-66770000D01*
X97834000Y-66770000D02*
X100794000Y-66770000D01*
X100794000Y-65310000D02*
X97834000Y-65310000D01*
X100794000Y-66770000D02*
X100794000Y-65310000D01*
%TO.C,R19*%
X113240000Y-88106000D02*
X113240000Y-86646000D01*
X113240000Y-86646000D02*
X110280000Y-86646000D01*
X110280000Y-88106000D02*
X113240000Y-88106000D01*
X110280000Y-86646000D02*
X110280000Y-88106000D01*
%TO.C,R10*%
X113240000Y-110712000D02*
X113240000Y-109252000D01*
X113240000Y-109252000D02*
X110280000Y-109252000D01*
X110280000Y-110712000D02*
X113240000Y-110712000D01*
X110280000Y-109252000D02*
X110280000Y-110712000D01*
%TO.C,R9*%
X112986000Y-114776000D02*
X112986000Y-113316000D01*
X112986000Y-113316000D02*
X110026000Y-113316000D01*
X110026000Y-114776000D02*
X112986000Y-114776000D01*
X110026000Y-113316000D02*
X110026000Y-114776000D01*
%TO.C,R8*%
X112986000Y-119094000D02*
X112986000Y-117634000D01*
X112986000Y-117634000D02*
X110026000Y-117634000D01*
X110026000Y-119094000D02*
X112986000Y-119094000D01*
X110026000Y-117634000D02*
X110026000Y-119094000D01*
%TO.C,R2*%
X96818000Y-117380000D02*
X96818000Y-118840000D01*
X96818000Y-118840000D02*
X99778000Y-118840000D01*
X99778000Y-117380000D02*
X96818000Y-117380000D01*
X99778000Y-118840000D02*
X99778000Y-117380000D01*
%TO.C,R16*%
X97834000Y-73946000D02*
X97834000Y-75406000D01*
X97834000Y-75406000D02*
X100794000Y-75406000D01*
X100794000Y-73946000D02*
X97834000Y-73946000D01*
X100794000Y-75406000D02*
X100794000Y-73946000D01*
%TD*%
M02*
