%TF.GenerationSoftware,KiCad,Pcbnew,7.0.10*%
%TF.CreationDate,2024-02-20T17:57:49-08:00*%
%TF.ProjectId,HarnessTesterAll,4861726e-6573-4735-9465-73746572416c,rev?*%
%TF.SameCoordinates,Original*%
%TF.FileFunction,AssemblyDrawing,Bot*%
%FSLAX46Y46*%
G04 Gerber Fmt 4.6, Leading zero omitted, Abs format (unit mm)*
G04 Created by KiCad (PCBNEW 7.0.10) date 2024-02-20 17:57:49*
%MOMM*%
%LPD*%
G01*
G04 APERTURE LIST*
%ADD10C,0.060000*%
%ADD11C,0.150000*%
%ADD12C,0.100000*%
G04 APERTURE END LIST*
D10*
X99571142Y-87557927D02*
X99704475Y-87367451D01*
X99799713Y-87557927D02*
X99799713Y-87157927D01*
X99799713Y-87157927D02*
X99647332Y-87157927D01*
X99647332Y-87157927D02*
X99609237Y-87176975D01*
X99609237Y-87176975D02*
X99590190Y-87196022D01*
X99590190Y-87196022D02*
X99571142Y-87234118D01*
X99571142Y-87234118D02*
X99571142Y-87291260D01*
X99571142Y-87291260D02*
X99590190Y-87329356D01*
X99590190Y-87329356D02*
X99609237Y-87348403D01*
X99609237Y-87348403D02*
X99647332Y-87367451D01*
X99647332Y-87367451D02*
X99799713Y-87367451D01*
X99190190Y-87557927D02*
X99418761Y-87557927D01*
X99304475Y-87557927D02*
X99304475Y-87157927D01*
X99304475Y-87157927D02*
X99342571Y-87215070D01*
X99342571Y-87215070D02*
X99380666Y-87253165D01*
X99380666Y-87253165D02*
X99418761Y-87272213D01*
X99056857Y-87157927D02*
X98809238Y-87157927D01*
X98809238Y-87157927D02*
X98942571Y-87310308D01*
X98942571Y-87310308D02*
X98885428Y-87310308D01*
X98885428Y-87310308D02*
X98847333Y-87329356D01*
X98847333Y-87329356D02*
X98828285Y-87348403D01*
X98828285Y-87348403D02*
X98809238Y-87386499D01*
X98809238Y-87386499D02*
X98809238Y-87481737D01*
X98809238Y-87481737D02*
X98828285Y-87519832D01*
X98828285Y-87519832D02*
X98847333Y-87538880D01*
X98847333Y-87538880D02*
X98885428Y-87557927D01*
X98885428Y-87557927D02*
X98999714Y-87557927D01*
X98999714Y-87557927D02*
X99037809Y-87538880D01*
X99037809Y-87538880D02*
X99056857Y-87519832D01*
X99571142Y-83239927D02*
X99704475Y-83049451D01*
X99799713Y-83239927D02*
X99799713Y-82839927D01*
X99799713Y-82839927D02*
X99647332Y-82839927D01*
X99647332Y-82839927D02*
X99609237Y-82858975D01*
X99609237Y-82858975D02*
X99590190Y-82878022D01*
X99590190Y-82878022D02*
X99571142Y-82916118D01*
X99571142Y-82916118D02*
X99571142Y-82973260D01*
X99571142Y-82973260D02*
X99590190Y-83011356D01*
X99590190Y-83011356D02*
X99609237Y-83030403D01*
X99609237Y-83030403D02*
X99647332Y-83049451D01*
X99647332Y-83049451D02*
X99799713Y-83049451D01*
X99190190Y-83239927D02*
X99418761Y-83239927D01*
X99304475Y-83239927D02*
X99304475Y-82839927D01*
X99304475Y-82839927D02*
X99342571Y-82897070D01*
X99342571Y-82897070D02*
X99380666Y-82935165D01*
X99380666Y-82935165D02*
X99418761Y-82954213D01*
X98847333Y-82973260D02*
X98847333Y-83239927D01*
X98942571Y-82820880D02*
X99037809Y-83106594D01*
X99037809Y-83106594D02*
X98790190Y-83106594D01*
X111826142Y-83239927D02*
X111959475Y-83049451D01*
X112054713Y-83239927D02*
X112054713Y-82839927D01*
X112054713Y-82839927D02*
X111902332Y-82839927D01*
X111902332Y-82839927D02*
X111864237Y-82858975D01*
X111864237Y-82858975D02*
X111845190Y-82878022D01*
X111845190Y-82878022D02*
X111826142Y-82916118D01*
X111826142Y-82916118D02*
X111826142Y-82973260D01*
X111826142Y-82973260D02*
X111845190Y-83011356D01*
X111845190Y-83011356D02*
X111864237Y-83030403D01*
X111864237Y-83030403D02*
X111902332Y-83049451D01*
X111902332Y-83049451D02*
X112054713Y-83049451D01*
X111673761Y-82878022D02*
X111654713Y-82858975D01*
X111654713Y-82858975D02*
X111616618Y-82839927D01*
X111616618Y-82839927D02*
X111521380Y-82839927D01*
X111521380Y-82839927D02*
X111483285Y-82858975D01*
X111483285Y-82858975D02*
X111464237Y-82878022D01*
X111464237Y-82878022D02*
X111445190Y-82916118D01*
X111445190Y-82916118D02*
X111445190Y-82954213D01*
X111445190Y-82954213D02*
X111464237Y-83011356D01*
X111464237Y-83011356D02*
X111692809Y-83239927D01*
X111692809Y-83239927D02*
X111445190Y-83239927D01*
X111197571Y-82839927D02*
X111159476Y-82839927D01*
X111159476Y-82839927D02*
X111121380Y-82858975D01*
X111121380Y-82858975D02*
X111102333Y-82878022D01*
X111102333Y-82878022D02*
X111083285Y-82916118D01*
X111083285Y-82916118D02*
X111064238Y-82992308D01*
X111064238Y-82992308D02*
X111064238Y-83087546D01*
X111064238Y-83087546D02*
X111083285Y-83163737D01*
X111083285Y-83163737D02*
X111102333Y-83201832D01*
X111102333Y-83201832D02*
X111121380Y-83220880D01*
X111121380Y-83220880D02*
X111159476Y-83239927D01*
X111159476Y-83239927D02*
X111197571Y-83239927D01*
X111197571Y-83239927D02*
X111235666Y-83220880D01*
X111235666Y-83220880D02*
X111254714Y-83201832D01*
X111254714Y-83201832D02*
X111273761Y-83163737D01*
X111273761Y-83163737D02*
X111292809Y-83087546D01*
X111292809Y-83087546D02*
X111292809Y-82992308D01*
X111292809Y-82992308D02*
X111273761Y-82916118D01*
X111273761Y-82916118D02*
X111254714Y-82878022D01*
X111254714Y-82878022D02*
X111235666Y-82858975D01*
X111235666Y-82858975D02*
X111197571Y-82839927D01*
D11*
X119467238Y-116946819D02*
X120038666Y-116946819D01*
X119752952Y-116946819D02*
X119752952Y-115946819D01*
X119752952Y-115946819D02*
X119848190Y-116089676D01*
X119848190Y-116089676D02*
X119943428Y-116184914D01*
X119943428Y-116184914D02*
X120038666Y-116232533D01*
X118848190Y-115946819D02*
X118752952Y-115946819D01*
X118752952Y-115946819D02*
X118657714Y-115994438D01*
X118657714Y-115994438D02*
X118610095Y-116042057D01*
X118610095Y-116042057D02*
X118562476Y-116137295D01*
X118562476Y-116137295D02*
X118514857Y-116327771D01*
X118514857Y-116327771D02*
X118514857Y-116565866D01*
X118514857Y-116565866D02*
X118562476Y-116756342D01*
X118562476Y-116756342D02*
X118610095Y-116851580D01*
X118610095Y-116851580D02*
X118657714Y-116899200D01*
X118657714Y-116899200D02*
X118752952Y-116946819D01*
X118752952Y-116946819D02*
X118848190Y-116946819D01*
X118848190Y-116946819D02*
X118943428Y-116899200D01*
X118943428Y-116899200D02*
X118991047Y-116851580D01*
X118991047Y-116851580D02*
X119038666Y-116756342D01*
X119038666Y-116756342D02*
X119086285Y-116565866D01*
X119086285Y-116565866D02*
X119086285Y-116327771D01*
X119086285Y-116327771D02*
X119038666Y-116137295D01*
X119038666Y-116137295D02*
X118991047Y-116042057D01*
X118991047Y-116042057D02*
X118943428Y-115994438D01*
X118943428Y-115994438D02*
X118848190Y-115946819D01*
X118086285Y-116946819D02*
X118086285Y-115946819D01*
X117991047Y-116565866D02*
X117705333Y-116946819D01*
X117705333Y-116280152D02*
X118086285Y-116661104D01*
D10*
X119129142Y-115243927D02*
X119262475Y-115053451D01*
X119357713Y-115243927D02*
X119357713Y-114843927D01*
X119357713Y-114843927D02*
X119205332Y-114843927D01*
X119205332Y-114843927D02*
X119167237Y-114862975D01*
X119167237Y-114862975D02*
X119148190Y-114882022D01*
X119148190Y-114882022D02*
X119129142Y-114920118D01*
X119129142Y-114920118D02*
X119129142Y-114977260D01*
X119129142Y-114977260D02*
X119148190Y-115015356D01*
X119148190Y-115015356D02*
X119167237Y-115034403D01*
X119167237Y-115034403D02*
X119205332Y-115053451D01*
X119205332Y-115053451D02*
X119357713Y-115053451D01*
X118976761Y-114882022D02*
X118957713Y-114862975D01*
X118957713Y-114862975D02*
X118919618Y-114843927D01*
X118919618Y-114843927D02*
X118824380Y-114843927D01*
X118824380Y-114843927D02*
X118786285Y-114862975D01*
X118786285Y-114862975D02*
X118767237Y-114882022D01*
X118767237Y-114882022D02*
X118748190Y-114920118D01*
X118748190Y-114920118D02*
X118748190Y-114958213D01*
X118748190Y-114958213D02*
X118767237Y-115015356D01*
X118767237Y-115015356D02*
X118995809Y-115243927D01*
X118995809Y-115243927D02*
X118748190Y-115243927D01*
X118614857Y-114843927D02*
X118348190Y-114843927D01*
X118348190Y-114843927D02*
X118519619Y-115243927D01*
X112271142Y-70793927D02*
X112404475Y-70603451D01*
X112499713Y-70793927D02*
X112499713Y-70393927D01*
X112499713Y-70393927D02*
X112347332Y-70393927D01*
X112347332Y-70393927D02*
X112309237Y-70412975D01*
X112309237Y-70412975D02*
X112290190Y-70432022D01*
X112290190Y-70432022D02*
X112271142Y-70470118D01*
X112271142Y-70470118D02*
X112271142Y-70527260D01*
X112271142Y-70527260D02*
X112290190Y-70565356D01*
X112290190Y-70565356D02*
X112309237Y-70584403D01*
X112309237Y-70584403D02*
X112347332Y-70603451D01*
X112347332Y-70603451D02*
X112499713Y-70603451D01*
X112118761Y-70432022D02*
X112099713Y-70412975D01*
X112099713Y-70412975D02*
X112061618Y-70393927D01*
X112061618Y-70393927D02*
X111966380Y-70393927D01*
X111966380Y-70393927D02*
X111928285Y-70412975D01*
X111928285Y-70412975D02*
X111909237Y-70432022D01*
X111909237Y-70432022D02*
X111890190Y-70470118D01*
X111890190Y-70470118D02*
X111890190Y-70508213D01*
X111890190Y-70508213D02*
X111909237Y-70565356D01*
X111909237Y-70565356D02*
X112137809Y-70793927D01*
X112137809Y-70793927D02*
X111890190Y-70793927D01*
X111756857Y-70393927D02*
X111509238Y-70393927D01*
X111509238Y-70393927D02*
X111642571Y-70546308D01*
X111642571Y-70546308D02*
X111585428Y-70546308D01*
X111585428Y-70546308D02*
X111547333Y-70565356D01*
X111547333Y-70565356D02*
X111528285Y-70584403D01*
X111528285Y-70584403D02*
X111509238Y-70622499D01*
X111509238Y-70622499D02*
X111509238Y-70717737D01*
X111509238Y-70717737D02*
X111528285Y-70755832D01*
X111528285Y-70755832D02*
X111547333Y-70774880D01*
X111547333Y-70774880D02*
X111585428Y-70793927D01*
X111585428Y-70793927D02*
X111699714Y-70793927D01*
X111699714Y-70793927D02*
X111737809Y-70774880D01*
X111737809Y-70774880D02*
X111756857Y-70755832D01*
X111635666Y-122609927D02*
X111768999Y-122419451D01*
X111864237Y-122609927D02*
X111864237Y-122209927D01*
X111864237Y-122209927D02*
X111711856Y-122209927D01*
X111711856Y-122209927D02*
X111673761Y-122228975D01*
X111673761Y-122228975D02*
X111654714Y-122248022D01*
X111654714Y-122248022D02*
X111635666Y-122286118D01*
X111635666Y-122286118D02*
X111635666Y-122343260D01*
X111635666Y-122343260D02*
X111654714Y-122381356D01*
X111654714Y-122381356D02*
X111673761Y-122400403D01*
X111673761Y-122400403D02*
X111711856Y-122419451D01*
X111711856Y-122419451D02*
X111864237Y-122419451D01*
X111502333Y-122209927D02*
X111235666Y-122209927D01*
X111235666Y-122209927D02*
X111407095Y-122609927D01*
X98364666Y-122609927D02*
X98497999Y-122419451D01*
X98593237Y-122609927D02*
X98593237Y-122209927D01*
X98593237Y-122209927D02*
X98440856Y-122209927D01*
X98440856Y-122209927D02*
X98402761Y-122228975D01*
X98402761Y-122228975D02*
X98383714Y-122248022D01*
X98383714Y-122248022D02*
X98364666Y-122286118D01*
X98364666Y-122286118D02*
X98364666Y-122343260D01*
X98364666Y-122343260D02*
X98383714Y-122381356D01*
X98383714Y-122381356D02*
X98402761Y-122400403D01*
X98402761Y-122400403D02*
X98440856Y-122419451D01*
X98440856Y-122419451D02*
X98593237Y-122419451D01*
X97983714Y-122609927D02*
X98212285Y-122609927D01*
X98097999Y-122609927D02*
X98097999Y-122209927D01*
X98097999Y-122209927D02*
X98136095Y-122267070D01*
X98136095Y-122267070D02*
X98174190Y-122305165D01*
X98174190Y-122305165D02*
X98212285Y-122324213D01*
X98364666Y-104956927D02*
X98497999Y-104766451D01*
X98593237Y-104956927D02*
X98593237Y-104556927D01*
X98593237Y-104556927D02*
X98440856Y-104556927D01*
X98440856Y-104556927D02*
X98402761Y-104575975D01*
X98402761Y-104575975D02*
X98383714Y-104595022D01*
X98383714Y-104595022D02*
X98364666Y-104633118D01*
X98364666Y-104633118D02*
X98364666Y-104690260D01*
X98364666Y-104690260D02*
X98383714Y-104728356D01*
X98383714Y-104728356D02*
X98402761Y-104747403D01*
X98402761Y-104747403D02*
X98440856Y-104766451D01*
X98440856Y-104766451D02*
X98593237Y-104766451D01*
X98002761Y-104556927D02*
X98193237Y-104556927D01*
X98193237Y-104556927D02*
X98212285Y-104747403D01*
X98212285Y-104747403D02*
X98193237Y-104728356D01*
X98193237Y-104728356D02*
X98155142Y-104709308D01*
X98155142Y-104709308D02*
X98059904Y-104709308D01*
X98059904Y-104709308D02*
X98021809Y-104728356D01*
X98021809Y-104728356D02*
X98002761Y-104747403D01*
X98002761Y-104747403D02*
X97983714Y-104785499D01*
X97983714Y-104785499D02*
X97983714Y-104880737D01*
X97983714Y-104880737D02*
X98002761Y-104918832D01*
X98002761Y-104918832D02*
X98021809Y-104937880D01*
X98021809Y-104937880D02*
X98059904Y-104956927D01*
X98059904Y-104956927D02*
X98155142Y-104956927D01*
X98155142Y-104956927D02*
X98193237Y-104937880D01*
X98193237Y-104937880D02*
X98212285Y-104918832D01*
X112271142Y-66729927D02*
X112404475Y-66539451D01*
X112499713Y-66729927D02*
X112499713Y-66329927D01*
X112499713Y-66329927D02*
X112347332Y-66329927D01*
X112347332Y-66329927D02*
X112309237Y-66348975D01*
X112309237Y-66348975D02*
X112290190Y-66368022D01*
X112290190Y-66368022D02*
X112271142Y-66406118D01*
X112271142Y-66406118D02*
X112271142Y-66463260D01*
X112271142Y-66463260D02*
X112290190Y-66501356D01*
X112290190Y-66501356D02*
X112309237Y-66520403D01*
X112309237Y-66520403D02*
X112347332Y-66539451D01*
X112347332Y-66539451D02*
X112499713Y-66539451D01*
X112118761Y-66368022D02*
X112099713Y-66348975D01*
X112099713Y-66348975D02*
X112061618Y-66329927D01*
X112061618Y-66329927D02*
X111966380Y-66329927D01*
X111966380Y-66329927D02*
X111928285Y-66348975D01*
X111928285Y-66348975D02*
X111909237Y-66368022D01*
X111909237Y-66368022D02*
X111890190Y-66406118D01*
X111890190Y-66406118D02*
X111890190Y-66444213D01*
X111890190Y-66444213D02*
X111909237Y-66501356D01*
X111909237Y-66501356D02*
X112137809Y-66729927D01*
X112137809Y-66729927D02*
X111890190Y-66729927D01*
X111547333Y-66463260D02*
X111547333Y-66729927D01*
X111642571Y-66310880D02*
X111737809Y-66596594D01*
X111737809Y-66596594D02*
X111490190Y-66596594D01*
X99634142Y-70539927D02*
X99767475Y-70349451D01*
X99862713Y-70539927D02*
X99862713Y-70139927D01*
X99862713Y-70139927D02*
X99710332Y-70139927D01*
X99710332Y-70139927D02*
X99672237Y-70158975D01*
X99672237Y-70158975D02*
X99653190Y-70178022D01*
X99653190Y-70178022D02*
X99634142Y-70216118D01*
X99634142Y-70216118D02*
X99634142Y-70273260D01*
X99634142Y-70273260D02*
X99653190Y-70311356D01*
X99653190Y-70311356D02*
X99672237Y-70330403D01*
X99672237Y-70330403D02*
X99710332Y-70349451D01*
X99710332Y-70349451D02*
X99862713Y-70349451D01*
X99253190Y-70539927D02*
X99481761Y-70539927D01*
X99367475Y-70539927D02*
X99367475Y-70139927D01*
X99367475Y-70139927D02*
X99405571Y-70197070D01*
X99405571Y-70197070D02*
X99443666Y-70235165D01*
X99443666Y-70235165D02*
X99481761Y-70254213D01*
X99119857Y-70139927D02*
X98853190Y-70139927D01*
X98853190Y-70139927D02*
X99024619Y-70539927D01*
X99508142Y-79683927D02*
X99641475Y-79493451D01*
X99736713Y-79683927D02*
X99736713Y-79283927D01*
X99736713Y-79283927D02*
X99584332Y-79283927D01*
X99584332Y-79283927D02*
X99546237Y-79302975D01*
X99546237Y-79302975D02*
X99527190Y-79322022D01*
X99527190Y-79322022D02*
X99508142Y-79360118D01*
X99508142Y-79360118D02*
X99508142Y-79417260D01*
X99508142Y-79417260D02*
X99527190Y-79455356D01*
X99527190Y-79455356D02*
X99546237Y-79474403D01*
X99546237Y-79474403D02*
X99584332Y-79493451D01*
X99584332Y-79493451D02*
X99736713Y-79493451D01*
X99127190Y-79683927D02*
X99355761Y-79683927D01*
X99241475Y-79683927D02*
X99241475Y-79283927D01*
X99241475Y-79283927D02*
X99279571Y-79341070D01*
X99279571Y-79341070D02*
X99317666Y-79379165D01*
X99317666Y-79379165D02*
X99355761Y-79398213D01*
X98765285Y-79283927D02*
X98955761Y-79283927D01*
X98955761Y-79283927D02*
X98974809Y-79474403D01*
X98974809Y-79474403D02*
X98955761Y-79455356D01*
X98955761Y-79455356D02*
X98917666Y-79436308D01*
X98917666Y-79436308D02*
X98822428Y-79436308D01*
X98822428Y-79436308D02*
X98784333Y-79455356D01*
X98784333Y-79455356D02*
X98765285Y-79474403D01*
X98765285Y-79474403D02*
X98746238Y-79512499D01*
X98746238Y-79512499D02*
X98746238Y-79607737D01*
X98746238Y-79607737D02*
X98765285Y-79645832D01*
X98765285Y-79645832D02*
X98784333Y-79664880D01*
X98784333Y-79664880D02*
X98822428Y-79683927D01*
X98822428Y-79683927D02*
X98917666Y-79683927D01*
X98917666Y-79683927D02*
X98955761Y-79664880D01*
X98955761Y-79664880D02*
X98974809Y-79645832D01*
X112080142Y-101781927D02*
X112213475Y-101591451D01*
X112308713Y-101781927D02*
X112308713Y-101381927D01*
X112308713Y-101381927D02*
X112156332Y-101381927D01*
X112156332Y-101381927D02*
X112118237Y-101400975D01*
X112118237Y-101400975D02*
X112099190Y-101420022D01*
X112099190Y-101420022D02*
X112080142Y-101458118D01*
X112080142Y-101458118D02*
X112080142Y-101515260D01*
X112080142Y-101515260D02*
X112099190Y-101553356D01*
X112099190Y-101553356D02*
X112118237Y-101572403D01*
X112118237Y-101572403D02*
X112156332Y-101591451D01*
X112156332Y-101591451D02*
X112308713Y-101591451D01*
X111699190Y-101781927D02*
X111927761Y-101781927D01*
X111813475Y-101781927D02*
X111813475Y-101381927D01*
X111813475Y-101381927D02*
X111851571Y-101439070D01*
X111851571Y-101439070D02*
X111889666Y-101477165D01*
X111889666Y-101477165D02*
X111927761Y-101496213D01*
X111546809Y-101420022D02*
X111527761Y-101400975D01*
X111527761Y-101400975D02*
X111489666Y-101381927D01*
X111489666Y-101381927D02*
X111394428Y-101381927D01*
X111394428Y-101381927D02*
X111356333Y-101400975D01*
X111356333Y-101400975D02*
X111337285Y-101420022D01*
X111337285Y-101420022D02*
X111318238Y-101458118D01*
X111318238Y-101458118D02*
X111318238Y-101496213D01*
X111318238Y-101496213D02*
X111337285Y-101553356D01*
X111337285Y-101553356D02*
X111565857Y-101781927D01*
X111565857Y-101781927D02*
X111318238Y-101781927D01*
X112017142Y-105845927D02*
X112150475Y-105655451D01*
X112245713Y-105845927D02*
X112245713Y-105445927D01*
X112245713Y-105445927D02*
X112093332Y-105445927D01*
X112093332Y-105445927D02*
X112055237Y-105464975D01*
X112055237Y-105464975D02*
X112036190Y-105484022D01*
X112036190Y-105484022D02*
X112017142Y-105522118D01*
X112017142Y-105522118D02*
X112017142Y-105579260D01*
X112017142Y-105579260D02*
X112036190Y-105617356D01*
X112036190Y-105617356D02*
X112055237Y-105636403D01*
X112055237Y-105636403D02*
X112093332Y-105655451D01*
X112093332Y-105655451D02*
X112245713Y-105655451D01*
X111636190Y-105845927D02*
X111864761Y-105845927D01*
X111750475Y-105845927D02*
X111750475Y-105445927D01*
X111750475Y-105445927D02*
X111788571Y-105503070D01*
X111788571Y-105503070D02*
X111826666Y-105541165D01*
X111826666Y-105541165D02*
X111864761Y-105560213D01*
X111255238Y-105845927D02*
X111483809Y-105845927D01*
X111369523Y-105845927D02*
X111369523Y-105445927D01*
X111369523Y-105445927D02*
X111407619Y-105503070D01*
X111407619Y-105503070D02*
X111445714Y-105541165D01*
X111445714Y-105541165D02*
X111483809Y-105560213D01*
X112017142Y-79175927D02*
X112150475Y-78985451D01*
X112245713Y-79175927D02*
X112245713Y-78775927D01*
X112245713Y-78775927D02*
X112093332Y-78775927D01*
X112093332Y-78775927D02*
X112055237Y-78794975D01*
X112055237Y-78794975D02*
X112036190Y-78814022D01*
X112036190Y-78814022D02*
X112017142Y-78852118D01*
X112017142Y-78852118D02*
X112017142Y-78909260D01*
X112017142Y-78909260D02*
X112036190Y-78947356D01*
X112036190Y-78947356D02*
X112055237Y-78966403D01*
X112055237Y-78966403D02*
X112093332Y-78985451D01*
X112093332Y-78985451D02*
X112245713Y-78985451D01*
X111864761Y-78814022D02*
X111845713Y-78794975D01*
X111845713Y-78794975D02*
X111807618Y-78775927D01*
X111807618Y-78775927D02*
X111712380Y-78775927D01*
X111712380Y-78775927D02*
X111674285Y-78794975D01*
X111674285Y-78794975D02*
X111655237Y-78814022D01*
X111655237Y-78814022D02*
X111636190Y-78852118D01*
X111636190Y-78852118D02*
X111636190Y-78890213D01*
X111636190Y-78890213D02*
X111655237Y-78947356D01*
X111655237Y-78947356D02*
X111883809Y-79175927D01*
X111883809Y-79175927D02*
X111636190Y-79175927D01*
X111255238Y-79175927D02*
X111483809Y-79175927D01*
X111369523Y-79175927D02*
X111369523Y-78775927D01*
X111369523Y-78775927D02*
X111407619Y-78833070D01*
X111407619Y-78833070D02*
X111445714Y-78871165D01*
X111445714Y-78871165D02*
X111483809Y-78890213D01*
X98364666Y-114481927D02*
X98497999Y-114291451D01*
X98593237Y-114481927D02*
X98593237Y-114081927D01*
X98593237Y-114081927D02*
X98440856Y-114081927D01*
X98440856Y-114081927D02*
X98402761Y-114100975D01*
X98402761Y-114100975D02*
X98383714Y-114120022D01*
X98383714Y-114120022D02*
X98364666Y-114158118D01*
X98364666Y-114158118D02*
X98364666Y-114215260D01*
X98364666Y-114215260D02*
X98383714Y-114253356D01*
X98383714Y-114253356D02*
X98402761Y-114272403D01*
X98402761Y-114272403D02*
X98440856Y-114291451D01*
X98440856Y-114291451D02*
X98593237Y-114291451D01*
X98231333Y-114081927D02*
X97983714Y-114081927D01*
X97983714Y-114081927D02*
X98117047Y-114234308D01*
X98117047Y-114234308D02*
X98059904Y-114234308D01*
X98059904Y-114234308D02*
X98021809Y-114253356D01*
X98021809Y-114253356D02*
X98002761Y-114272403D01*
X98002761Y-114272403D02*
X97983714Y-114310499D01*
X97983714Y-114310499D02*
X97983714Y-114405737D01*
X97983714Y-114405737D02*
X98002761Y-114443832D01*
X98002761Y-114443832D02*
X98021809Y-114462880D01*
X98021809Y-114462880D02*
X98059904Y-114481927D01*
X98059904Y-114481927D02*
X98174190Y-114481927D01*
X98174190Y-114481927D02*
X98212285Y-114462880D01*
X98212285Y-114462880D02*
X98231333Y-114443832D01*
X98364666Y-110544927D02*
X98497999Y-110354451D01*
X98593237Y-110544927D02*
X98593237Y-110144927D01*
X98593237Y-110144927D02*
X98440856Y-110144927D01*
X98440856Y-110144927D02*
X98402761Y-110163975D01*
X98402761Y-110163975D02*
X98383714Y-110183022D01*
X98383714Y-110183022D02*
X98364666Y-110221118D01*
X98364666Y-110221118D02*
X98364666Y-110278260D01*
X98364666Y-110278260D02*
X98383714Y-110316356D01*
X98383714Y-110316356D02*
X98402761Y-110335403D01*
X98402761Y-110335403D02*
X98440856Y-110354451D01*
X98440856Y-110354451D02*
X98593237Y-110354451D01*
X98021809Y-110278260D02*
X98021809Y-110544927D01*
X98117047Y-110125880D02*
X98212285Y-110411594D01*
X98212285Y-110411594D02*
X97964666Y-110411594D01*
X112080142Y-74857927D02*
X112213475Y-74667451D01*
X112308713Y-74857927D02*
X112308713Y-74457927D01*
X112308713Y-74457927D02*
X112156332Y-74457927D01*
X112156332Y-74457927D02*
X112118237Y-74476975D01*
X112118237Y-74476975D02*
X112099190Y-74496022D01*
X112099190Y-74496022D02*
X112080142Y-74534118D01*
X112080142Y-74534118D02*
X112080142Y-74591260D01*
X112080142Y-74591260D02*
X112099190Y-74629356D01*
X112099190Y-74629356D02*
X112118237Y-74648403D01*
X112118237Y-74648403D02*
X112156332Y-74667451D01*
X112156332Y-74667451D02*
X112308713Y-74667451D01*
X111927761Y-74496022D02*
X111908713Y-74476975D01*
X111908713Y-74476975D02*
X111870618Y-74457927D01*
X111870618Y-74457927D02*
X111775380Y-74457927D01*
X111775380Y-74457927D02*
X111737285Y-74476975D01*
X111737285Y-74476975D02*
X111718237Y-74496022D01*
X111718237Y-74496022D02*
X111699190Y-74534118D01*
X111699190Y-74534118D02*
X111699190Y-74572213D01*
X111699190Y-74572213D02*
X111718237Y-74629356D01*
X111718237Y-74629356D02*
X111946809Y-74857927D01*
X111946809Y-74857927D02*
X111699190Y-74857927D01*
X111546809Y-74496022D02*
X111527761Y-74476975D01*
X111527761Y-74476975D02*
X111489666Y-74457927D01*
X111489666Y-74457927D02*
X111394428Y-74457927D01*
X111394428Y-74457927D02*
X111356333Y-74476975D01*
X111356333Y-74476975D02*
X111337285Y-74496022D01*
X111337285Y-74496022D02*
X111318238Y-74534118D01*
X111318238Y-74534118D02*
X111318238Y-74572213D01*
X111318238Y-74572213D02*
X111337285Y-74629356D01*
X111337285Y-74629356D02*
X111565857Y-74857927D01*
X111565857Y-74857927D02*
X111318238Y-74857927D01*
X98364666Y-101781927D02*
X98497999Y-101591451D01*
X98593237Y-101781927D02*
X98593237Y-101381927D01*
X98593237Y-101381927D02*
X98440856Y-101381927D01*
X98440856Y-101381927D02*
X98402761Y-101400975D01*
X98402761Y-101400975D02*
X98383714Y-101420022D01*
X98383714Y-101420022D02*
X98364666Y-101458118D01*
X98364666Y-101458118D02*
X98364666Y-101515260D01*
X98364666Y-101515260D02*
X98383714Y-101553356D01*
X98383714Y-101553356D02*
X98402761Y-101572403D01*
X98402761Y-101572403D02*
X98440856Y-101591451D01*
X98440856Y-101591451D02*
X98593237Y-101591451D01*
X98021809Y-101381927D02*
X98097999Y-101381927D01*
X98097999Y-101381927D02*
X98136095Y-101400975D01*
X98136095Y-101400975D02*
X98155142Y-101420022D01*
X98155142Y-101420022D02*
X98193237Y-101477165D01*
X98193237Y-101477165D02*
X98212285Y-101553356D01*
X98212285Y-101553356D02*
X98212285Y-101705737D01*
X98212285Y-101705737D02*
X98193237Y-101743832D01*
X98193237Y-101743832D02*
X98174190Y-101762880D01*
X98174190Y-101762880D02*
X98136095Y-101781927D01*
X98136095Y-101781927D02*
X98059904Y-101781927D01*
X98059904Y-101781927D02*
X98021809Y-101762880D01*
X98021809Y-101762880D02*
X98002761Y-101743832D01*
X98002761Y-101743832D02*
X97983714Y-101705737D01*
X97983714Y-101705737D02*
X97983714Y-101610499D01*
X97983714Y-101610499D02*
X98002761Y-101572403D01*
X98002761Y-101572403D02*
X98021809Y-101553356D01*
X98021809Y-101553356D02*
X98059904Y-101534308D01*
X98059904Y-101534308D02*
X98136095Y-101534308D01*
X98136095Y-101534308D02*
X98174190Y-101553356D01*
X98174190Y-101553356D02*
X98193237Y-101572403D01*
X98193237Y-101572403D02*
X98212285Y-101610499D01*
X99571142Y-66221927D02*
X99704475Y-66031451D01*
X99799713Y-66221927D02*
X99799713Y-65821927D01*
X99799713Y-65821927D02*
X99647332Y-65821927D01*
X99647332Y-65821927D02*
X99609237Y-65840975D01*
X99609237Y-65840975D02*
X99590190Y-65860022D01*
X99590190Y-65860022D02*
X99571142Y-65898118D01*
X99571142Y-65898118D02*
X99571142Y-65955260D01*
X99571142Y-65955260D02*
X99590190Y-65993356D01*
X99590190Y-65993356D02*
X99609237Y-66012403D01*
X99609237Y-66012403D02*
X99647332Y-66031451D01*
X99647332Y-66031451D02*
X99799713Y-66031451D01*
X99190190Y-66221927D02*
X99418761Y-66221927D01*
X99304475Y-66221927D02*
X99304475Y-65821927D01*
X99304475Y-65821927D02*
X99342571Y-65879070D01*
X99342571Y-65879070D02*
X99380666Y-65917165D01*
X99380666Y-65917165D02*
X99418761Y-65936213D01*
X98961619Y-65993356D02*
X98999714Y-65974308D01*
X98999714Y-65974308D02*
X99018761Y-65955260D01*
X99018761Y-65955260D02*
X99037809Y-65917165D01*
X99037809Y-65917165D02*
X99037809Y-65898118D01*
X99037809Y-65898118D02*
X99018761Y-65860022D01*
X99018761Y-65860022D02*
X98999714Y-65840975D01*
X98999714Y-65840975D02*
X98961619Y-65821927D01*
X98961619Y-65821927D02*
X98885428Y-65821927D01*
X98885428Y-65821927D02*
X98847333Y-65840975D01*
X98847333Y-65840975D02*
X98828285Y-65860022D01*
X98828285Y-65860022D02*
X98809238Y-65898118D01*
X98809238Y-65898118D02*
X98809238Y-65917165D01*
X98809238Y-65917165D02*
X98828285Y-65955260D01*
X98828285Y-65955260D02*
X98847333Y-65974308D01*
X98847333Y-65974308D02*
X98885428Y-65993356D01*
X98885428Y-65993356D02*
X98961619Y-65993356D01*
X98961619Y-65993356D02*
X98999714Y-66012403D01*
X98999714Y-66012403D02*
X99018761Y-66031451D01*
X99018761Y-66031451D02*
X99037809Y-66069546D01*
X99037809Y-66069546D02*
X99037809Y-66145737D01*
X99037809Y-66145737D02*
X99018761Y-66183832D01*
X99018761Y-66183832D02*
X98999714Y-66202880D01*
X98999714Y-66202880D02*
X98961619Y-66221927D01*
X98961619Y-66221927D02*
X98885428Y-66221927D01*
X98885428Y-66221927D02*
X98847333Y-66202880D01*
X98847333Y-66202880D02*
X98828285Y-66183832D01*
X98828285Y-66183832D02*
X98809238Y-66145737D01*
X98809238Y-66145737D02*
X98809238Y-66069546D01*
X98809238Y-66069546D02*
X98828285Y-66031451D01*
X98828285Y-66031451D02*
X98847333Y-66012403D01*
X98847333Y-66012403D02*
X98885428Y-65993356D01*
X112017142Y-87557927D02*
X112150475Y-87367451D01*
X112245713Y-87557927D02*
X112245713Y-87157927D01*
X112245713Y-87157927D02*
X112093332Y-87157927D01*
X112093332Y-87157927D02*
X112055237Y-87176975D01*
X112055237Y-87176975D02*
X112036190Y-87196022D01*
X112036190Y-87196022D02*
X112017142Y-87234118D01*
X112017142Y-87234118D02*
X112017142Y-87291260D01*
X112017142Y-87291260D02*
X112036190Y-87329356D01*
X112036190Y-87329356D02*
X112055237Y-87348403D01*
X112055237Y-87348403D02*
X112093332Y-87367451D01*
X112093332Y-87367451D02*
X112245713Y-87367451D01*
X111636190Y-87557927D02*
X111864761Y-87557927D01*
X111750475Y-87557927D02*
X111750475Y-87157927D01*
X111750475Y-87157927D02*
X111788571Y-87215070D01*
X111788571Y-87215070D02*
X111826666Y-87253165D01*
X111826666Y-87253165D02*
X111864761Y-87272213D01*
X111445714Y-87557927D02*
X111369523Y-87557927D01*
X111369523Y-87557927D02*
X111331428Y-87538880D01*
X111331428Y-87538880D02*
X111312380Y-87519832D01*
X111312380Y-87519832D02*
X111274285Y-87462689D01*
X111274285Y-87462689D02*
X111255238Y-87386499D01*
X111255238Y-87386499D02*
X111255238Y-87234118D01*
X111255238Y-87234118D02*
X111274285Y-87196022D01*
X111274285Y-87196022D02*
X111293333Y-87176975D01*
X111293333Y-87176975D02*
X111331428Y-87157927D01*
X111331428Y-87157927D02*
X111407619Y-87157927D01*
X111407619Y-87157927D02*
X111445714Y-87176975D01*
X111445714Y-87176975D02*
X111464761Y-87196022D01*
X111464761Y-87196022D02*
X111483809Y-87234118D01*
X111483809Y-87234118D02*
X111483809Y-87329356D01*
X111483809Y-87329356D02*
X111464761Y-87367451D01*
X111464761Y-87367451D02*
X111445714Y-87386499D01*
X111445714Y-87386499D02*
X111407619Y-87405546D01*
X111407619Y-87405546D02*
X111331428Y-87405546D01*
X111331428Y-87405546D02*
X111293333Y-87386499D01*
X111293333Y-87386499D02*
X111274285Y-87367451D01*
X111274285Y-87367451D02*
X111255238Y-87329356D01*
X112017142Y-110163927D02*
X112150475Y-109973451D01*
X112245713Y-110163927D02*
X112245713Y-109763927D01*
X112245713Y-109763927D02*
X112093332Y-109763927D01*
X112093332Y-109763927D02*
X112055237Y-109782975D01*
X112055237Y-109782975D02*
X112036190Y-109802022D01*
X112036190Y-109802022D02*
X112017142Y-109840118D01*
X112017142Y-109840118D02*
X112017142Y-109897260D01*
X112017142Y-109897260D02*
X112036190Y-109935356D01*
X112036190Y-109935356D02*
X112055237Y-109954403D01*
X112055237Y-109954403D02*
X112093332Y-109973451D01*
X112093332Y-109973451D02*
X112245713Y-109973451D01*
X111636190Y-110163927D02*
X111864761Y-110163927D01*
X111750475Y-110163927D02*
X111750475Y-109763927D01*
X111750475Y-109763927D02*
X111788571Y-109821070D01*
X111788571Y-109821070D02*
X111826666Y-109859165D01*
X111826666Y-109859165D02*
X111864761Y-109878213D01*
X111388571Y-109763927D02*
X111350476Y-109763927D01*
X111350476Y-109763927D02*
X111312380Y-109782975D01*
X111312380Y-109782975D02*
X111293333Y-109802022D01*
X111293333Y-109802022D02*
X111274285Y-109840118D01*
X111274285Y-109840118D02*
X111255238Y-109916308D01*
X111255238Y-109916308D02*
X111255238Y-110011546D01*
X111255238Y-110011546D02*
X111274285Y-110087737D01*
X111274285Y-110087737D02*
X111293333Y-110125832D01*
X111293333Y-110125832D02*
X111312380Y-110144880D01*
X111312380Y-110144880D02*
X111350476Y-110163927D01*
X111350476Y-110163927D02*
X111388571Y-110163927D01*
X111388571Y-110163927D02*
X111426666Y-110144880D01*
X111426666Y-110144880D02*
X111445714Y-110125832D01*
X111445714Y-110125832D02*
X111464761Y-110087737D01*
X111464761Y-110087737D02*
X111483809Y-110011546D01*
X111483809Y-110011546D02*
X111483809Y-109916308D01*
X111483809Y-109916308D02*
X111464761Y-109840118D01*
X111464761Y-109840118D02*
X111445714Y-109802022D01*
X111445714Y-109802022D02*
X111426666Y-109782975D01*
X111426666Y-109782975D02*
X111388571Y-109763927D01*
X111572666Y-114227927D02*
X111705999Y-114037451D01*
X111801237Y-114227927D02*
X111801237Y-113827927D01*
X111801237Y-113827927D02*
X111648856Y-113827927D01*
X111648856Y-113827927D02*
X111610761Y-113846975D01*
X111610761Y-113846975D02*
X111591714Y-113866022D01*
X111591714Y-113866022D02*
X111572666Y-113904118D01*
X111572666Y-113904118D02*
X111572666Y-113961260D01*
X111572666Y-113961260D02*
X111591714Y-113999356D01*
X111591714Y-113999356D02*
X111610761Y-114018403D01*
X111610761Y-114018403D02*
X111648856Y-114037451D01*
X111648856Y-114037451D02*
X111801237Y-114037451D01*
X111382190Y-114227927D02*
X111305999Y-114227927D01*
X111305999Y-114227927D02*
X111267904Y-114208880D01*
X111267904Y-114208880D02*
X111248856Y-114189832D01*
X111248856Y-114189832D02*
X111210761Y-114132689D01*
X111210761Y-114132689D02*
X111191714Y-114056499D01*
X111191714Y-114056499D02*
X111191714Y-113904118D01*
X111191714Y-113904118D02*
X111210761Y-113866022D01*
X111210761Y-113866022D02*
X111229809Y-113846975D01*
X111229809Y-113846975D02*
X111267904Y-113827927D01*
X111267904Y-113827927D02*
X111344095Y-113827927D01*
X111344095Y-113827927D02*
X111382190Y-113846975D01*
X111382190Y-113846975D02*
X111401237Y-113866022D01*
X111401237Y-113866022D02*
X111420285Y-113904118D01*
X111420285Y-113904118D02*
X111420285Y-113999356D01*
X111420285Y-113999356D02*
X111401237Y-114037451D01*
X111401237Y-114037451D02*
X111382190Y-114056499D01*
X111382190Y-114056499D02*
X111344095Y-114075546D01*
X111344095Y-114075546D02*
X111267904Y-114075546D01*
X111267904Y-114075546D02*
X111229809Y-114056499D01*
X111229809Y-114056499D02*
X111210761Y-114037451D01*
X111210761Y-114037451D02*
X111191714Y-113999356D01*
X111572666Y-118545927D02*
X111705999Y-118355451D01*
X111801237Y-118545927D02*
X111801237Y-118145927D01*
X111801237Y-118145927D02*
X111648856Y-118145927D01*
X111648856Y-118145927D02*
X111610761Y-118164975D01*
X111610761Y-118164975D02*
X111591714Y-118184022D01*
X111591714Y-118184022D02*
X111572666Y-118222118D01*
X111572666Y-118222118D02*
X111572666Y-118279260D01*
X111572666Y-118279260D02*
X111591714Y-118317356D01*
X111591714Y-118317356D02*
X111610761Y-118336403D01*
X111610761Y-118336403D02*
X111648856Y-118355451D01*
X111648856Y-118355451D02*
X111801237Y-118355451D01*
X111344095Y-118317356D02*
X111382190Y-118298308D01*
X111382190Y-118298308D02*
X111401237Y-118279260D01*
X111401237Y-118279260D02*
X111420285Y-118241165D01*
X111420285Y-118241165D02*
X111420285Y-118222118D01*
X111420285Y-118222118D02*
X111401237Y-118184022D01*
X111401237Y-118184022D02*
X111382190Y-118164975D01*
X111382190Y-118164975D02*
X111344095Y-118145927D01*
X111344095Y-118145927D02*
X111267904Y-118145927D01*
X111267904Y-118145927D02*
X111229809Y-118164975D01*
X111229809Y-118164975D02*
X111210761Y-118184022D01*
X111210761Y-118184022D02*
X111191714Y-118222118D01*
X111191714Y-118222118D02*
X111191714Y-118241165D01*
X111191714Y-118241165D02*
X111210761Y-118279260D01*
X111210761Y-118279260D02*
X111229809Y-118298308D01*
X111229809Y-118298308D02*
X111267904Y-118317356D01*
X111267904Y-118317356D02*
X111344095Y-118317356D01*
X111344095Y-118317356D02*
X111382190Y-118336403D01*
X111382190Y-118336403D02*
X111401237Y-118355451D01*
X111401237Y-118355451D02*
X111420285Y-118393546D01*
X111420285Y-118393546D02*
X111420285Y-118469737D01*
X111420285Y-118469737D02*
X111401237Y-118507832D01*
X111401237Y-118507832D02*
X111382190Y-118526880D01*
X111382190Y-118526880D02*
X111344095Y-118545927D01*
X111344095Y-118545927D02*
X111267904Y-118545927D01*
X111267904Y-118545927D02*
X111229809Y-118526880D01*
X111229809Y-118526880D02*
X111210761Y-118507832D01*
X111210761Y-118507832D02*
X111191714Y-118469737D01*
X111191714Y-118469737D02*
X111191714Y-118393546D01*
X111191714Y-118393546D02*
X111210761Y-118355451D01*
X111210761Y-118355451D02*
X111229809Y-118336403D01*
X111229809Y-118336403D02*
X111267904Y-118317356D01*
X98364666Y-118291927D02*
X98497999Y-118101451D01*
X98593237Y-118291927D02*
X98593237Y-117891927D01*
X98593237Y-117891927D02*
X98440856Y-117891927D01*
X98440856Y-117891927D02*
X98402761Y-117910975D01*
X98402761Y-117910975D02*
X98383714Y-117930022D01*
X98383714Y-117930022D02*
X98364666Y-117968118D01*
X98364666Y-117968118D02*
X98364666Y-118025260D01*
X98364666Y-118025260D02*
X98383714Y-118063356D01*
X98383714Y-118063356D02*
X98402761Y-118082403D01*
X98402761Y-118082403D02*
X98440856Y-118101451D01*
X98440856Y-118101451D02*
X98593237Y-118101451D01*
X98212285Y-117930022D02*
X98193237Y-117910975D01*
X98193237Y-117910975D02*
X98155142Y-117891927D01*
X98155142Y-117891927D02*
X98059904Y-117891927D01*
X98059904Y-117891927D02*
X98021809Y-117910975D01*
X98021809Y-117910975D02*
X98002761Y-117930022D01*
X98002761Y-117930022D02*
X97983714Y-117968118D01*
X97983714Y-117968118D02*
X97983714Y-118006213D01*
X97983714Y-118006213D02*
X98002761Y-118063356D01*
X98002761Y-118063356D02*
X98231333Y-118291927D01*
X98231333Y-118291927D02*
X97983714Y-118291927D01*
X99571142Y-74857927D02*
X99704475Y-74667451D01*
X99799713Y-74857927D02*
X99799713Y-74457927D01*
X99799713Y-74457927D02*
X99647332Y-74457927D01*
X99647332Y-74457927D02*
X99609237Y-74476975D01*
X99609237Y-74476975D02*
X99590190Y-74496022D01*
X99590190Y-74496022D02*
X99571142Y-74534118D01*
X99571142Y-74534118D02*
X99571142Y-74591260D01*
X99571142Y-74591260D02*
X99590190Y-74629356D01*
X99590190Y-74629356D02*
X99609237Y-74648403D01*
X99609237Y-74648403D02*
X99647332Y-74667451D01*
X99647332Y-74667451D02*
X99799713Y-74667451D01*
X99190190Y-74857927D02*
X99418761Y-74857927D01*
X99304475Y-74857927D02*
X99304475Y-74457927D01*
X99304475Y-74457927D02*
X99342571Y-74515070D01*
X99342571Y-74515070D02*
X99380666Y-74553165D01*
X99380666Y-74553165D02*
X99418761Y-74572213D01*
X98847333Y-74457927D02*
X98923523Y-74457927D01*
X98923523Y-74457927D02*
X98961619Y-74476975D01*
X98961619Y-74476975D02*
X98980666Y-74496022D01*
X98980666Y-74496022D02*
X99018761Y-74553165D01*
X99018761Y-74553165D02*
X99037809Y-74629356D01*
X99037809Y-74629356D02*
X99037809Y-74781737D01*
X99037809Y-74781737D02*
X99018761Y-74819832D01*
X99018761Y-74819832D02*
X98999714Y-74838880D01*
X98999714Y-74838880D02*
X98961619Y-74857927D01*
X98961619Y-74857927D02*
X98885428Y-74857927D01*
X98885428Y-74857927D02*
X98847333Y-74838880D01*
X98847333Y-74838880D02*
X98828285Y-74819832D01*
X98828285Y-74819832D02*
X98809238Y-74781737D01*
X98809238Y-74781737D02*
X98809238Y-74686499D01*
X98809238Y-74686499D02*
X98828285Y-74648403D01*
X98828285Y-74648403D02*
X98847333Y-74629356D01*
X98847333Y-74629356D02*
X98885428Y-74610308D01*
X98885428Y-74610308D02*
X98961619Y-74610308D01*
X98961619Y-74610308D02*
X98999714Y-74629356D01*
X98999714Y-74629356D02*
X99018761Y-74648403D01*
X99018761Y-74648403D02*
X99037809Y-74686499D01*
D12*
%TO.C,R13*%
X98514000Y-86963500D02*
X98514000Y-87788500D01*
X98514000Y-87788500D02*
X100114000Y-87788500D01*
X100114000Y-86963500D02*
X98514000Y-86963500D01*
X100114000Y-87788500D02*
X100114000Y-86963500D01*
%TO.C,R14*%
X98514000Y-82645500D02*
X98514000Y-83470500D01*
X98514000Y-83470500D02*
X100114000Y-83470500D01*
X100114000Y-82645500D02*
X98514000Y-82645500D01*
X100114000Y-83470500D02*
X100114000Y-82645500D01*
%TO.C,R20*%
X112369000Y-83470500D02*
X112369000Y-82645500D01*
X112369000Y-82645500D02*
X110769000Y-82645500D01*
X110769000Y-83470500D02*
X112369000Y-83470500D01*
X110769000Y-82645500D02*
X110769000Y-83470500D01*
%TO.C,R27*%
X119672000Y-115474500D02*
X119672000Y-114649500D01*
X119672000Y-114649500D02*
X118072000Y-114649500D01*
X118072000Y-115474500D02*
X119672000Y-115474500D01*
X118072000Y-114649500D02*
X118072000Y-115474500D01*
%TO.C,R23*%
X112814000Y-71024500D02*
X112814000Y-70199500D01*
X112814000Y-70199500D02*
X111214000Y-70199500D01*
X111214000Y-71024500D02*
X112814000Y-71024500D01*
X111214000Y-70199500D02*
X111214000Y-71024500D01*
%TO.C,R7*%
X112369000Y-122840500D02*
X112369000Y-122015500D01*
X112369000Y-122015500D02*
X110769000Y-122015500D01*
X110769000Y-122840500D02*
X112369000Y-122840500D01*
X110769000Y-122015500D02*
X110769000Y-122840500D01*
%TO.C,R1*%
X97498000Y-122015500D02*
X97498000Y-122840500D01*
X97498000Y-122840500D02*
X99098000Y-122840500D01*
X99098000Y-122015500D02*
X97498000Y-122015500D01*
X99098000Y-122840500D02*
X99098000Y-122015500D01*
%TO.C,R5*%
X97498000Y-104362500D02*
X97498000Y-105187500D01*
X97498000Y-105187500D02*
X99098000Y-105187500D01*
X99098000Y-104362500D02*
X97498000Y-104362500D01*
X99098000Y-105187500D02*
X99098000Y-104362500D01*
%TO.C,R24*%
X112814000Y-66960500D02*
X112814000Y-66135500D01*
X112814000Y-66135500D02*
X111214000Y-66135500D01*
X111214000Y-66960500D02*
X112814000Y-66960500D01*
X111214000Y-66135500D02*
X111214000Y-66960500D01*
%TO.C,R17*%
X98577000Y-69945500D02*
X98577000Y-70770500D01*
X98577000Y-70770500D02*
X100177000Y-70770500D01*
X100177000Y-69945500D02*
X98577000Y-69945500D01*
X100177000Y-70770500D02*
X100177000Y-69945500D01*
%TO.C,R15*%
X98451000Y-79089500D02*
X98451000Y-79914500D01*
X98451000Y-79914500D02*
X100051000Y-79914500D01*
X100051000Y-79089500D02*
X98451000Y-79089500D01*
X100051000Y-79914500D02*
X100051000Y-79089500D01*
%TO.C,R12*%
X112623000Y-102012500D02*
X112623000Y-101187500D01*
X112623000Y-101187500D02*
X111023000Y-101187500D01*
X111023000Y-102012500D02*
X112623000Y-102012500D01*
X111023000Y-101187500D02*
X111023000Y-102012500D01*
%TO.C,R11*%
X112560000Y-106076500D02*
X112560000Y-105251500D01*
X112560000Y-105251500D02*
X110960000Y-105251500D01*
X110960000Y-106076500D02*
X112560000Y-106076500D01*
X110960000Y-105251500D02*
X110960000Y-106076500D01*
%TO.C,R21*%
X112560000Y-79406500D02*
X112560000Y-78581500D01*
X112560000Y-78581500D02*
X110960000Y-78581500D01*
X110960000Y-79406500D02*
X112560000Y-79406500D01*
X110960000Y-78581500D02*
X110960000Y-79406500D01*
%TO.C,R3*%
X97498000Y-113887500D02*
X97498000Y-114712500D01*
X97498000Y-114712500D02*
X99098000Y-114712500D01*
X99098000Y-113887500D02*
X97498000Y-113887500D01*
X99098000Y-114712500D02*
X99098000Y-113887500D01*
%TO.C,R4*%
X97498000Y-109950500D02*
X97498000Y-110775500D01*
X97498000Y-110775500D02*
X99098000Y-110775500D01*
X99098000Y-109950500D02*
X97498000Y-109950500D01*
X99098000Y-110775500D02*
X99098000Y-109950500D01*
%TO.C,R22*%
X112623000Y-75088500D02*
X112623000Y-74263500D01*
X112623000Y-74263500D02*
X111023000Y-74263500D01*
X111023000Y-75088500D02*
X112623000Y-75088500D01*
X111023000Y-74263500D02*
X111023000Y-75088500D01*
%TO.C,R6*%
X97498000Y-101187500D02*
X97498000Y-102012500D01*
X97498000Y-102012500D02*
X99098000Y-102012500D01*
X99098000Y-101187500D02*
X97498000Y-101187500D01*
X99098000Y-102012500D02*
X99098000Y-101187500D01*
%TO.C,R18*%
X98514000Y-65627500D02*
X98514000Y-66452500D01*
X98514000Y-66452500D02*
X100114000Y-66452500D01*
X100114000Y-65627500D02*
X98514000Y-65627500D01*
X100114000Y-66452500D02*
X100114000Y-65627500D01*
%TO.C,R19*%
X112560000Y-87788500D02*
X112560000Y-86963500D01*
X112560000Y-86963500D02*
X110960000Y-86963500D01*
X110960000Y-87788500D02*
X112560000Y-87788500D01*
X110960000Y-86963500D02*
X110960000Y-87788500D01*
%TO.C,R10*%
X112560000Y-110394500D02*
X112560000Y-109569500D01*
X112560000Y-109569500D02*
X110960000Y-109569500D01*
X110960000Y-110394500D02*
X112560000Y-110394500D01*
X110960000Y-109569500D02*
X110960000Y-110394500D01*
%TO.C,R9*%
X112306000Y-114458500D02*
X112306000Y-113633500D01*
X112306000Y-113633500D02*
X110706000Y-113633500D01*
X110706000Y-114458500D02*
X112306000Y-114458500D01*
X110706000Y-113633500D02*
X110706000Y-114458500D01*
%TO.C,R8*%
X112306000Y-118776500D02*
X112306000Y-117951500D01*
X112306000Y-117951500D02*
X110706000Y-117951500D01*
X110706000Y-118776500D02*
X112306000Y-118776500D01*
X110706000Y-117951500D02*
X110706000Y-118776500D01*
%TO.C,R2*%
X97498000Y-117697500D02*
X97498000Y-118522500D01*
X97498000Y-118522500D02*
X99098000Y-118522500D01*
X99098000Y-117697500D02*
X97498000Y-117697500D01*
X99098000Y-118522500D02*
X99098000Y-117697500D01*
%TO.C,R16*%
X98514000Y-74263500D02*
X98514000Y-75088500D01*
X98514000Y-75088500D02*
X100114000Y-75088500D01*
X100114000Y-74263500D02*
X98514000Y-74263500D01*
X100114000Y-75088500D02*
X100114000Y-74263500D01*
%TD*%
M02*
