%TF.GenerationSoftware,KiCad,Pcbnew,7.0.10*%
%TF.CreationDate,2024-02-20T17:57:49-08:00*%
%TF.ProjectId,HarnessTesterAll,4861726e-6573-4735-9465-73746572416c,rev?*%
%TF.SameCoordinates,Original*%
%TF.FileFunction,Other,User*%
%FSLAX46Y46*%
G04 Gerber Fmt 4.6, Leading zero omitted, Abs format (unit mm)*
G04 Created by KiCad (PCBNEW 7.0.10) date 2024-02-20 17:57:49*
%MOMM*%
%LPD*%
G01*
G04 APERTURE LIST*
%ADD10C,0.050000*%
%ADD11C,0.127000*%
G04 APERTURE END LIST*
D10*
%TO.C,R26*%
X93859840Y-94075727D02*
X90899840Y-94075727D01*
X93859840Y-92615727D02*
X93859840Y-94075727D01*
X90899840Y-94075727D02*
X90899840Y-92615727D01*
X90899840Y-92615727D02*
X93859840Y-92615727D01*
D11*
%TO.C,J2*%
X110152498Y-96867030D02*
X87677499Y-96867030D01*
X87677499Y-96867030D02*
X87677499Y-127006975D01*
X110152498Y-127006975D02*
X110152498Y-96867030D01*
X87677499Y-127006975D02*
X110152498Y-127006975D01*
D10*
%TO.C,SW1*%
X124280000Y-74896000D02*
X124280000Y-64296000D01*
X139880000Y-74896000D02*
X124280000Y-74896000D01*
X124280000Y-64296000D02*
X139880000Y-64296000D01*
X139880000Y-64296000D02*
X139880000Y-74896000D01*
%TO.C,J3*%
X137084000Y-104514000D02*
X137084000Y-118264000D01*
X137084000Y-118264000D02*
X141534000Y-118264000D01*
X141534000Y-104514000D02*
X137084000Y-104514000D01*
X141534000Y-118264000D02*
X141534000Y-104514000D01*
%TO.C,C4*%
X117138000Y-103664000D02*
X120098000Y-103664000D01*
X117138000Y-105124000D02*
X117138000Y-103664000D01*
X120098000Y-103664000D02*
X120098000Y-105124000D01*
X120098000Y-105124000D02*
X117138000Y-105124000D01*
%TO.C,C1*%
X111728000Y-111550000D02*
X111728000Y-114510000D01*
X110268000Y-111550000D02*
X111728000Y-111550000D01*
X111728000Y-114510000D02*
X110268000Y-114510000D01*
X110268000Y-114510000D02*
X110268000Y-111550000D01*
%TO.C,D2*%
X87740999Y-94393000D02*
X90700999Y-94393000D01*
X87740999Y-95853000D02*
X87740999Y-94393000D01*
X90700999Y-94393000D02*
X90700999Y-95853000D01*
X90700999Y-95853000D02*
X87740999Y-95853000D01*
%TO.C,C2*%
X125762000Y-112973000D02*
X125762000Y-110013000D01*
X127222000Y-112973000D02*
X125762000Y-112973000D01*
X125762000Y-110013000D02*
X127222000Y-110013000D01*
X127222000Y-110013000D02*
X127222000Y-112973000D01*
%TO.C,D1*%
X87763340Y-92615727D02*
X90723340Y-92615727D01*
X87763340Y-94075727D02*
X87763340Y-92615727D01*
X90723340Y-92615727D02*
X90723340Y-94075727D01*
X90723340Y-94075727D02*
X87763340Y-94075727D01*
%TO.C,C3*%
X120098000Y-120618000D02*
X117138000Y-120618000D01*
X120098000Y-119158000D02*
X120098000Y-120618000D01*
X117138000Y-120618000D02*
X117138000Y-119158000D01*
X117138000Y-119158000D02*
X120098000Y-119158000D01*
%TO.C,R25*%
X93913499Y-95853000D02*
X90953499Y-95853000D01*
X93913499Y-94393000D02*
X93913499Y-95853000D01*
X90953499Y-95853000D02*
X90953499Y-94393000D01*
X90953499Y-94393000D02*
X93913499Y-94393000D01*
D11*
%TO.C,J1*%
X110020998Y-61765028D02*
X87545999Y-61765028D01*
X87545999Y-61765028D02*
X87545999Y-91904973D01*
X110020998Y-91904973D02*
X110020998Y-61765028D01*
X87545999Y-91904973D02*
X110020998Y-91904973D01*
D10*
%TO.C,U1*%
X112172000Y-105456000D02*
X112172000Y-118856000D01*
X112172000Y-105456000D02*
X125572000Y-105456000D01*
X112172000Y-118856000D02*
X125572000Y-118856000D01*
X125572000Y-105456000D02*
X125572000Y-118856000D01*
%TD*%
M02*
